<?xml version="1.0" ?>
<svg version="1.1" encoding="iso-8859-1" baseProfile="full"
xmlns:dc="http://purl.org/dc/elements/1.1/"
xmlns:cc="http://creativecommons.org/ns#"
xmlns:rdf="http://www.w3.org/1999/02/22-rdf-syntax-ns#"
xmlns="http://www.w3.org/2000/svg"
xmlns:xlink="http://www.w3.org/1999/xlink"
xmlns:ev="http://www.w3.org/2001/xml-events"
xmlns:sodipodi="http://sodipodi.sourceforge.net/DTD/sodipodi-0.dtd"
xmlns:inkscape="http://www.inkscape.org/namespaces/inkscape"
inkscape:version="0.46"
inkscape:output_extension="org.inkscape.output.svg.inkscape"
viewBox="0 0 801 566" xml:space="preserve">
<title>MAGICS++ PLOT</title>
<metadata id="MAGICSmetadata">
<rdf:RDF><cc:Work rdf:about="">
	<dc:format>image/svg+xml</dc:format>
	<dc:title>MAGICS++ PLOT</dc:title>
	<dc:author>mofp on omicron</dc:author>
	<dc:date>Sat Mar 20 21:09:20 2021</dc:date>
	<dc:language>en-GB</dc:language>
	<dc:creator><cc:Agent><dc:title>Metview 5.10.1</dc:title></cc:Agent></dc:creator>
	<dc:publisher><cc:Agent>
	 <dc:title>Magics 4.5.1 (64 bit)</dc:title>
	</cc:Agent></dc:publisher>
	<dc:coverage>Plot of meteorological data</dc:coverage>
</cc:Work></rdf:RDF>
</metadata>
<g id="page" transform="translate(0,565.657)" vector-effect="non-scaling-stroke">
<g id="Page0">
</g>
<g inkscape:groupmode="layer" inkscape:label="Coastline" id="Coastline"><title>Coastline</title>
<g id="Page0">
<g id="drawing" transform="translate(-1338.24,4446.89)">
</g>
</g>
</g>
<g id="singlelayer">
<g id="drawing" transform="translate(-1338.24,4446.89)">
<g fill-rule="evenodd" stroke="rgb(255,255,255)">
<path fill="rgb(255,255,255)" d="M1705.45 -4475.17v-424.242h-307.212v424.242h307.212"/>
</g>
<g stroke-width="0.5px" stroke="rgb(255,255,255)" fill="none">
<path d="M1705.45 -4475.17l0 -424.242l-307.212 0l0 424.242l307.212 0"/>
</g>
<g fill-rule="evenodd" stroke="rgb(255,255,255)">
<path fill="rgb(255,255,255)" d="M2009.97 -4475.17v-93.8328l-1.92745 -1.62171l-0.767391 -0.823718l-1.35971 -1.8278l-1.33513 -2.47744l-0.0990887 -0.174076l-0.192521 -0.286921l-1.64195 -2.36459l-0.761281 -0.564552l-1.27331 -0.688287l-1.42153 -0.711731l-1.16598 -0.686946l-1.52886 -0.990123l-2.23053 -1.66139l-0.464316 -0.383909l-2.426 -2.26761l-0.268842 -0.282343l-2.5539 -2.36917l-0.140945 -0.163034l-1.82765 -2.48848l-0.867195 -1.60246l-0.477111 -1.04905l0.0115298 -0.458095l0.0870026 -2.19342l0.0854891 -0.288377l0.293089 -0.533232l0.580155 -1.25908l0.425648 -0.570827l0.59269 -1.07872l1.09635 -1.18728l0.165006 -0.223159l0.188129 -0.162353l1.10984 -1.21206l1.23187 -0.809582l0.333919 -0.301323l0.58301 -0.32855l1.0468 -0.719361l0.731117 -0.282951l1.0656 -0.600738l1.62925 -0.534519l0.351577 -0.168022l1.21496 -0.345924l0.846082 -0.277687l0.282225 -0.0436885l1.83656 -0.523108l0.858283 -0.117353l1.78217 0.0638337l0.912678 0.0180669l2.30916 0.500454l0.385684 0.0505071l1.3653 0.328975l1.32955 0.360546v-65.861l-2.10778 -0.209822l-0.58706 -0.0365611l-2.39775 -0.248745l-0.297091 -0.0193164l-1.31693 -0.272998l-1.37791 -0.312025l-0.739937 -0.416016l-1.95491 -0.938426l-1.46624 -0.985049l-1.2286 -1.02563l-1.51525 -1.62588l-1.17959 -1.6707l-0.56673 -0.980811l-0.357427 -0.909298l-0.851674 -1.74222l-0.919012 -1.07737l-2.30655 -1.57414h-137.789l0.00427628 0.0398663l0.423399 2.61165l-0.093534 0.364428l-0.370383 0.759343l-0.448509 1.08645l-0.296676 0.441298l-0.632421 1.29606l-1.1139 1.35546l-0.0752002 0.126074l-0.128134 0.121258l-1.09266 1.32909l-1.44786 1.07509l-0.0786808 0.0744296l-0.0756459 0.0401197l-1.50486 1.0563l-1.18999 0.495856l-0.644193 0.35097l-1.88554 0.633835l-0.118315 0.0460412l-0.0467936 0.00943942l-1.96677 0.660885l-0.728072 0.129231l-1.41133 0.417284l-1.28352 0.203393l-0.949799 0.250714l-1.74504 0.249749l-0.91615 -0.216641l-1.77869 -0.279331l-1.7227 -0.51425l-0.972145 -0.198254l-2.23211 -0.75826l-0.462737 -0.182429l-0.422117 -0.232901l-2.27273 -1.06677l-1.7802 -1.16942l-0.91464 -0.742593l-1.82921 -1.90892l-0.865632 -1.18203l-0.880692 -1.46948l-0.606741 -1.46352l-0.602361 -1.188l0.249502 -1.8107l0.178173 -0.840813h-108.826v212.121h304.517z
M1938.57 -4589.18L1937.21 -4591L1936.7 -4591.84L1936.34 -4592.69L1935.42 -4594.49L1935.47 -4596.2L1935.51 -4597.14L1935.95 -4598.37L1936.83 -4599.79L1936.94 -4600.05L1937.21 -4600.4L1937.99 -4601.67L1938.77 -4602.44L1939.26 -4603.08L1939.9 -4603.57L1940.68 -4604.33L1941.95 -4605.09L1942.32 -4605.37L1942.6 -4605.48L1944.05 -4606.32L1945.29 -4606.74L1945.98 -4607.07L1947.99 -4607.66L1948.05 -4607.68L1948.29 -4607.74L1950.14 -4608.28L1950.68 -4608.36L1952.33 -4608.78L1953.38 -4608.91L1955.1 -4608.7L1956.07 -4608.63L1958.5 -4608.01L1958.77 -4607.97L1959.53 -4607.74L1961.46 -4607.1L1962.76 -4606.46L1964.16 -4605.91L1965.57 -4605.09L1966.85 -4604.19L1968.73 -4602.44L1969.55 -4601.46L1970.67 -4599.79L1971.67 -4597.7L1971.99 -4597.14L1972.07 -4594.65L1972.08 -4594.49L1971.37 -4592.69L1970.8 -4591.84L1970.41 -4590.99L1969.55 -4589.94L1969.24 -4589.48L1968.93 -4589.18L1968 -4588.05L1966.85 -4587.22L1966.5 -4586.88L1965.9 -4586.53L1964.9 -4585.8L1964.16 -4585.5L1963.13 -4584.89L1961.46 -4584.32L1961.17 -4584.17L1960.2 -4583.88L1959.14 -4583.51L1958.77 -4583.45L1957.03 -4582.93L1956.07 -4582.79L1954.67 -4582.61L1953.38 -4582.51L1951.66 -4582.92L1950.68 -4583.06L1948.13 -4583.74L1947.99 -4583.76L1947.59 -4583.88L1945.29 -4584.68L1943.65 -4585.5L1942.6 -4585.93L1941.62 -4586.53L1939.9 -4587.84L1938.57 -4589.18"/>
</g>
<g stroke-width="0.5px" stroke="rgb(255,255,255)" fill="none">
<path d="M2009.97 -4475.17l0 -93.8328l-1.92745 -1.62171l-0.767391 -0.823718l-1.35971 -1.8278l-1.33513 -2.47744l-0.0990887 -0.174076l-0.192521 -0.286921l-1.64195 -2.36459l-0.761281 -0.564552l-1.27331 -0.688287l-1.42153 -0.711731l-1.16598 -0.686946l-1.52886 -0.990123l-2.23053 -1.66139l-0.464316 -0.383909l-2.426 -2.26761l-0.268842 -0.282343l-2.5539 -2.36917l-0.140945 -0.163034l-1.82765 -2.48848l-0.867195 -1.60246l-0.477111 -1.04905l0.0115298 -0.458095l0.0870026 -2.19342l0.0854891 -0.288377l0.293089 -0.533232l0.580155 -1.25908l0.425648 -0.570827l0.59269 -1.07872l1.09635 -1.18728l0.165006 -0.223159l0.188129 -0.162353l1.10984 -1.21206l1.23187 -0.809582l0.333919 -0.301323l0.58301 -0.32855l1.0468 -0.719361l0.731117 -0.282951l1.0656 -0.600738l1.62925 -0.534519l0.351577 -0.168022l1.21496 -0.345924l0.846082 -0.277687l0.282225 -0.0436885l1.83656 -0.523108l0.858283 -0.117353l1.78217 0.0638337l0.912678 0.0180669l2.30916 0.500454l0.385684 0.0505071l1.3653 0.328975l1.32955 0.360546l-4.54747e-13 -0.360546l0 -65.5004l-2.10778 -0.209822l-0.58706 -0.0365611l-2.39775 -0.248745l-0.297091 -0.0193164l-1.31693 -0.272998l-1.37791 -0.312025l-0.739937 -0.416016l-1.95491 -0.938426l-1.46624 -0.985049l-1.2286 -1.02563l-1.51525 -1.62588l-1.17959 -1.6707l-0.56673 -0.980811l-0.357427 -0.909298l-0.851674 -1.74222l-0.919012 -1.07737l-2.30655 -1.57414l-0.38829 -9.09495e-13l-137.401 0l0.00427628 0.0398663l0.423399 2.61165l-0.093534 0.364428l-0.370383 0.759343l-0.448509 1.08645l-0.296676 0.441298l-0.632421 1.29606l-1.1139 1.35546l-0.0752002 0.126074l-0.128134 0.121258l-1.09266 1.32909l-1.44786 1.07509l-0.0786808 0.0744296l-0.0756459 0.0401197l-1.50486 1.0563l-1.18999 0.495856l-0.644193 0.35097l-1.88554 0.633835l-0.118315 0.0460412l-0.0467936 0.00943942l-1.96677 0.660885l-0.728072 0.129231l-1.41133 0.417284l-1.28352 0.203393l-0.949799 0.250714l-1.74504 0.249749l-0.91615 -0.216641l-1.77869 -0.279331l-1.7227 -0.51425l-0.972145 -0.198254l-2.23211 -0.75826l-0.462737 -0.182429l-0.422117 -0.232901l-2.27273 -1.06677l-1.7802 -1.16942l-0.91464 -0.742593l-1.82921 -1.90892l-0.865632 -1.18203l-0.880692 -1.46948l-0.606741 -1.46352l-0.602361 -1.188l0.249502 -1.8107l0.178173 -0.840813l-108.826 0l0 212.121l304.517 0"/>
<path d="M1938.57 -4589.18l-1.36284 -1.81144l-0.511964 -0.840071l-0.355048 -0.853072l-0.920758 -1.79844l0.0514022 -1.70845l0.0421095 -0.943065l0.438021 -1.23604l0.875819 -1.41548l0.111717 -0.264382l0.268702 -0.350678l0.783036 -1.26601l0.777367 -0.770446l0.487529 -0.63651l0.646911 -0.488262l0.778416 -0.760843l1.27349 -0.7659l0.366032 -0.272455l0.276907 -0.114369l1.44882 -0.839162l1.24602 -0.418246l0.683885 -0.334394l2.01096 -0.584019l0.0631642 -0.0267216l0.242844 -0.0621486l1.84427 -0.535814l0.54457 -0.0757723l1.64518 -0.421197l1.04966 -0.130544l1.72631 0.210369l0.968531 0.067989l2.42541 0.619868l0.269433 0.0424588l0.767851 0.222643l1.92699 0.645348l1.3009 0.63464l1.39394 0.552752l1.41746 0.818775l1.27739 0.903961l1.87987 1.74755l0.814969 0.977905l1.12585 1.67361l0.995506 2.08725l0.318334 0.564264l0.0855172 2.48461l0.00799445 0.166906l-0.708523 1.79534l-0.567283 0.856171l-0.39747 0.846103l-0.859929 1.05089l-0.302704 0.45668l-0.314705 0.297837l-0.926779 1.13216l-1.15066 0.833181l-0.35554 0.336355l-0.592101 0.349824l-1.00666 0.728635l-0.740542 0.303248l-1.02866 0.607515l-1.66619 0.576236l-0.293976 0.146631l-0.966375 0.289249l-1.06152 0.366976l-0.372973 0.0622227l-1.73196 0.518201l-0.962882 0.141588l-1.39861 0.186408l-1.29624 0.0908842l-1.71871 -0.40584l-0.976135 -0.143788l-2.54934 -0.673484l-0.145508 -0.0243231l-0.396427 -0.118846l-2.29842 -0.796705l-1.64611 -0.822937l-1.04873 -0.430616l-0.977425 -0.601257l-1.71742 -1.30753l-1.332 -1.34399"/>
</g>
<g fill-rule="evenodd" stroke="rgb(155,232,242)">
<path fill="rgb(155,232,242)" d="M1818.63 -4677.43l0.91464 0.742593l1.7802 1.16942l2.27273 1.06677l0.422117 0.232901l0.462737 0.182429l2.23211 0.75826l0.972145 0.198254l1.7227 0.51425l1.77869 0.279331l0.91615 0.216641l1.74504 -0.249749l0.949799 -0.250714l1.28352 -0.203393l1.41133 -0.417284l0.728072 -0.129231l1.96677 -0.660885l0.0467936 -0.00943942l0.118315 -0.0460412l1.88554 -0.633835l0.644193 -0.35097l1.18999 -0.495856l1.50486 -1.0563l0.0756459 -0.0401197l0.0786808 -0.0744296l1.44786 -1.07509l1.09266 -1.32909l0.128134 -0.121258l0.0752002 -0.126074l1.1139 -1.35546l0.632421 -1.29606l0.296676 -0.441298l0.448509 -1.08645l0.370383 -0.759343l0.093534 -0.364428l-0.423399 -2.61165l-0.00427628 -0.0398663h-15.1395l1.22458 2.25352l0.227633 0.397996l-1.41328 1.08693l-1.1047 0.641962l-0.552287 0.379212l-1.03537 0.543407l-0.696175 0.404405l-0.411013 0.176472l-1.11624 -0.580877l-1.5786 -0.909124l-2.24393 -1.74239l0.682697 -1.53614l0.600329 -1.11538h-14.1754l-0.178173 0.840813l-0.249502 1.8107l0.602361 1.188l0.606741 1.46352l0.880692 1.46948l0.865632 1.18203l1.82921 1.90892"/>
</g>
<g stroke-width="0.5px" stroke="rgb(155,232,242)" fill="none">
<path d="M1818.63 -4677.43l0.91464 0.742593l1.7802 1.16942l2.27273 1.06677l0.422117 0.232901l0.462737 0.182429l2.23211 0.75826l0.972145 0.198254l1.7227 0.51425l1.77869 0.279331l0.91615 0.216641l1.74504 -0.249749l0.949799 -0.250714l1.28352 -0.203393l1.41133 -0.417284l0.728072 -0.129231l1.96677 -0.660885l0.0467936 -0.00943942l0.118315 -0.0460412l1.88554 -0.633835l0.644193 -0.35097l1.18999 -0.495856l1.50486 -1.0563l0.0756459 -0.0401197l0.0786808 -0.0744296l1.44786 -1.07509l1.09266 -1.32909l0.128134 -0.121258l0.0752002 -0.126074l1.1139 -1.35546l0.632421 -1.29606l0.296676 -0.441298l0.448509 -1.08645l0.370383 -0.759343l0.093534 -0.364428l-0.423399 -2.61165l-0.00427628 -0.0398663l-13.5105 0l-1.62908 9.09495e-13l1.22458 2.25352l0.227633 0.397996l-1.41328 1.08693l-1.1047 0.641962l-0.552287 0.379212l-1.03537 0.543407l-0.696175 0.404405l-0.411013 0.176472l-1.11624 -0.580877l-1.5786 -0.909124l-2.24393 -1.74239l0.682697 -1.53614l0.600329 -1.11538l-14.1754 0l-0.178173 0.840813l-0.249502 1.8107l0.602361 1.188l0.606741 1.46352l0.880692 1.46948l0.865632 1.18203l1.82921 1.90892"/>
</g>
<g fill-rule="evenodd" stroke="rgb(155,232,242)">
<path fill="rgb(155,232,242)" d="M1999.19 -4580.54l1.42153 0.711731l1.27331 0.688287l0.761281 0.564552l1.64195 2.36459l0.192521 0.286921l0.0990887 0.174076l1.33513 2.47744l1.35971 1.8278l0.767391 0.823718l1.92745 1.62171v-38.3824l-1.32955 -0.360546l-1.3653 -0.328975l-0.385684 -0.0505071l-2.30916 -0.500454l-0.912678 -0.0180669l-1.78217 -0.0638337l-0.858283 0.117353l-1.83656 0.523108l-0.282225 0.0436885l-0.846082 0.277687l-1.21496 0.345924l-0.351577 0.168022l-1.62925 0.534519l-1.0656 0.600738l-0.731117 0.282951l-1.0468 0.719361l-0.58301 0.32855l-0.333919 0.301323l-1.23187 0.809582l-1.10984 1.21206l-0.188129 0.162353l-0.165006 0.223159l-1.09635 1.18728l-0.59269 1.07872l-0.425648 0.570827l-0.580155 1.25908l-0.293089 0.533232l-0.0854891 0.288377l-0.0870026 2.19342l-0.0115298 0.458095l0.477111 1.04905l0.867195 1.60246l1.82765 2.48848l0.140945 0.163034l2.5539 2.36917l0.268842 0.282343l2.426 2.26761l0.464316 0.383909l2.23053 1.66139l1.52886 0.990123l1.16598 0.686946z
M2001.45 -4591.84L1999.19 -4593.97L1998.69 -4594.49L1998.76 -4594.91L1999.19 -4596.93L1999.22 -4597.1L1999.23 -4597.14L2000.69 -4598.31L2001.88 -4599.02L2002.75 -4598.93L2004.58 -4598.78L2007.25 -4597.14L2007.27 -4597.1L2008.54 -4594.49L2008.16 -4593.61L2007.27 -4592.95L2006.77 -4592.33L2005.79 -4591.84L2005.1 -4591.32L2004.58 -4591.22L2002.36 -4591.37L2001.88 -4591.46L2001.45 -4591.84"/>
</g>
<g stroke-width="0.5px" stroke="rgb(155,232,242)" fill="none">
<path d="M1999.19 -4580.54l1.42153 0.711731l1.27331 0.688287l0.761281 0.564552l1.64195 2.36459l0.192521 0.286921l0.0990887 0.174076l1.33513 2.47744l1.35971 1.8278l0.767391 0.823718l1.92745 1.62171l0 -36.0914l4.54747e-13 -2.29097l-1.32955 -0.360546l-1.3653 -0.328975l-0.385684 -0.0505071l-2.30916 -0.500454l-0.912678 -0.0180669l-1.78217 -0.0638337l-0.858283 0.117353l-1.83656 0.523108l-0.282225 0.0436885l-0.846082 0.277687l-1.21496 0.345924l-0.351577 0.168022l-1.62925 0.534519l-1.0656 0.600738l-0.731117 0.282951l-1.0468 0.719361l-0.58301 0.32855l-0.333919 0.301323l-1.23187 0.809582l-1.10984 1.21206l-0.188129 0.162353l-0.165006 0.223159l-1.09635 1.18728l-0.59269 1.07872l-0.425648 0.570827l-0.580155 1.25908l-0.293089 0.533232l-0.0854891 0.288377l-0.0870026 2.19342l-0.0115298 0.458095l0.477111 1.04905l0.867195 1.60246l1.82765 2.48848l0.140945 0.163034l2.5539 2.36917l0.268842 0.282343l2.426 2.26761l0.464316 0.383909l2.23053 1.66139l1.52886 0.990123l1.16598 0.686946"/>
<path d="M2001.45 -4591.84l-2.26491 -2.13931l-0.495829 -0.512203l0.066541 -0.422386l0.429288 -2.0196l0.035459 -0.174638l0.00907811 -0.0348889l1.45833 -1.17281l1.19197 -0.709805l0.870989 0.0880846l1.82385 0.15724l2.67566 1.63729l0.0191875 0.0426676l1.26641 2.60885l-0.38047 0.871697l-0.885941 0.664807l-0.50747 0.6157l-0.978427 0.499311l-0.685979 0.514558l-0.522967 0.102154l-2.22244 -0.151906l-0.472402 -0.0923662l-0.42993 -0.37244"/>
</g>
<g fill-rule="evenodd" stroke="rgb(155,232,242)">
<path fill="rgb(155,232,242)" d="M1939.9 -4587.84l1.71742 1.30753l0.977425 0.601257l1.04873 0.430616l1.64611 0.822937l2.29842 0.796705l0.396427 0.118846l0.145508 0.0243231l2.54934 0.673484l0.976135 0.143788l1.71871 0.40584l1.29624 -0.0908842l1.39861 -0.186408l0.962882 -0.141588l1.73196 -0.518201l0.372973 -0.0622227l1.06152 -0.366976l0.966375 -0.289249l0.293976 -0.146631l1.66619 -0.576236l1.02866 -0.607515l0.740542 -0.303248l1.00666 -0.728635l0.592101 -0.349824l0.35554 -0.336355l1.15066 -0.833181l0.926779 -1.13216l0.314705 -0.297837l0.302704 -0.45668l0.859929 -1.05089l0.39747 -0.846103l0.567283 -0.856171l0.708523 -1.79534l-0.00799445 -0.166906l-0.0855172 -2.48461l-0.318334 -0.564264l-0.995506 -2.08725l-1.12585 -1.67361l-0.814969 -0.977905l-1.87987 -1.74755l-1.27739 -0.903961l-1.41746 -0.818775l-1.39394 -0.552752l-1.3009 -0.63464l-1.92699 -0.645348l-0.767851 -0.222643l-0.269433 -0.0424588l-2.42541 -0.619868l-0.968531 -0.067989l-1.72631 -0.210369l-1.04966 0.130544l-1.64518 0.421197l-0.54457 0.0757723l-1.84427 0.535814l-0.242844 0.0621486l-0.0631642 0.0267216l-2.01096 0.584019l-0.683885 0.334394l-1.24602 0.418246l-1.44882 0.839162l-0.276907 0.114369l-0.366032 0.272455l-1.27349 0.7659l-0.778416 0.760843l-0.646911 0.488262l-0.487529 0.63651l-0.777367 0.770446l-0.783036 1.26601l-0.268702 0.350678l-0.111717 0.264382l-0.875819 1.41548l-0.438021 1.23604l-0.0421095 0.943065l-0.0514022 1.70845l0.920758 1.79844l0.355048 0.853072l0.511964 0.840071l1.36284 1.81144l1.332 1.34399z
M1953.27 -4591.84L1950.68 -4593.43L1949.23 -4594.49L1949.37 -4595.78L1949.53 -4597.14L1950.16 -4597.65L1950.68 -4597.97L1951.75 -4598.74L1953.38 -4599.62L1953.63 -4599.54L1956.07 -4598.79L1958.36 -4597.14L1958.63 -4594.63L1958.64 -4594.49L1957.25 -4593.33L1956.07 -4592.61L1955.5 -4592.4L1953.58 -4591.84L1953.43 -4591.79L1953.38 -4591.77L1953.27 -4591.84"/>
</g>
<g stroke-width="0.5px" stroke="rgb(155,232,242)" fill="none">
<path d="M1939.9 -4587.84l1.71742 1.30753l0.977425 0.601257l1.04873 0.430616l1.64611 0.822937l2.29842 0.796705l0.396427 0.118846l0.145508 0.0243231l2.54934 0.673484l0.976135 0.143788l1.71871 0.40584l1.29624 -0.0908842l1.39861 -0.186408l0.962882 -0.141588l1.73196 -0.518201l0.372973 -0.0622227l1.06152 -0.366976l0.966375 -0.289249l0.293976 -0.146631l1.66619 -0.576236l1.02866 -0.607515l0.740542 -0.303248l1.00666 -0.728635l0.592101 -0.349824l0.35554 -0.336355l1.15066 -0.833181l0.926779 -1.13216l0.314705 -0.297837l0.302704 -0.45668l0.859929 -1.05089l0.39747 -0.846103l0.567283 -0.856171l0.708523 -1.79534l-0.00799445 -0.166906l-0.0855172 -2.48461l-0.318334 -0.564264l-0.995506 -2.08725l-1.12585 -1.67361l-0.814969 -0.977905l-1.87987 -1.74755l-1.27739 -0.903961l-1.41746 -0.818775l-1.39394 -0.552752l-1.3009 -0.63464l-1.92699 -0.645348l-0.767851 -0.222643l-0.269433 -0.0424588l-2.42541 -0.619868l-0.968531 -0.067989l-1.72631 -0.210369l-1.04966 0.130544l-1.64518 0.421197l-0.54457 0.0757723l-1.84427 0.535814l-0.242844 0.0621486l-0.0631642 0.0267216l-2.01096 0.584019l-0.683885 0.334394l-1.24602 0.418246l-1.44882 0.839162l-0.276907 0.114369l-0.366032 0.272455l-1.27349 0.7659l-0.778416 0.760843l-0.646911 0.488262l-0.487529 0.63651l-0.777367 0.770446l-0.783036 1.26601l-0.268702 0.350678l-0.111717 0.264382l-0.875819 1.41548l-0.438021 1.23604l-0.0421095 0.943065l-0.0514022 1.70845l0.920758 1.79844l0.355048 0.853072l0.511964 0.840071l1.36284 1.81144l1.332 1.34399"/>
<path d="M1953.27 -4591.84l-2.5843 -1.5906l-1.44862 -1.06091l0.133887 -1.29359l0.16171 -1.35792l0.62879 -0.515801l0.524229 -0.317676l1.06518 -0.769982l1.62966 -0.882701l0.258427 0.0889174l2.43642 0.744875l2.28985 1.65237l0.264241 2.51303l0.0162943 0.13849l-1.39468 1.1568l-1.17571 0.722371l-0.570664 0.210851l-1.9166 0.561488l-0.157801 0.0489813l-0.0497817 0.0118091l-0.110543 -0.0607904"/>
</g>
<g fill-rule="evenodd" stroke="rgb(155,232,242)">
<path fill="rgb(155,232,242)" d="M1988.8 -4687.29l2.30655 1.57414l0.919012 1.07737l0.851674 1.74222l0.357427 0.909298l0.56673 0.980811l1.17959 1.6707l1.51525 1.62588l1.2286 1.02563l1.46624 0.985049l1.95491 0.938426l0.739937 0.416016l1.37791 0.312025l1.31693 0.272998l0.297091 0.0193164l2.39775 0.248745l0.58706 0.0365611l2.10778 0.209822v-12.0027l-1.20165 -0.573148l-1.49319 -0.735058l-1.58707 -0.734128h-16.8885"/>
</g>
<g stroke-width="0.5px" stroke="rgb(155,232,242)" fill="none">
<path d="M1988.8 -4687.29l2.30655 1.57414l0.919012 1.07737l0.851674 1.74222l0.357427 0.909298l0.56673 0.980811l1.17959 1.6707l1.51525 1.62588l1.2286 1.02563l1.46624 0.985049l1.95491 0.938426l0.739937 0.416016l1.37791 0.312025l1.31693 0.272998l0.297091 0.0193164l2.39775 0.248745l0.58706 0.0365611l2.10778 0.209822l0 -12.0027l-1.20165 -0.573148l-1.49319 -0.735058l-1.58707 -0.734128l-14.582 0l-2.30655 9.09495e-13"/>
</g>
<g fill-rule="evenodd" stroke="rgb(23,226,252)">
<path fill="rgb(23,226,252)" d="M1832.11 -4681.41l0.411013 -0.176472l0.696175 -0.404405l1.03537 -0.543407l0.552287 -0.379212l1.1047 -0.641962l1.41328 -1.08693l-0.227633 -0.397996l-1.22458 -2.25352h-7.41635l-0.600329 1.11538l-0.682697 1.53614l2.24393 1.74239l1.5786 0.909124l1.11624 0.580877"/>
</g>
<g stroke-width="0.5px" stroke="rgb(23,226,252)" fill="none">
<path d="M1832.11 -4681.41l0.411013 -0.176472l0.696175 -0.404405l1.03537 -0.543407l0.552287 -0.379212l1.1047 -0.641962l1.41328 -1.08693l-0.227633 -0.397996l-1.22458 -2.25352l-1.06576 -9.09495e-13l-6.35059 0l-0.600329 1.11538l-0.682697 1.53614l2.24393 1.74239l1.5786 0.909124l1.11624 0.580877"/>
</g>
<g fill-rule="evenodd" stroke="rgb(23,226,252)">
<path fill="rgb(23,226,252)" d="M1953.38 -4591.77l0.0497817 -0.0118091l0.157801 -0.0489813l1.9166 -0.561488l0.570664 -0.210851l1.17571 -0.722371l1.39468 -1.1568l-0.0162943 -0.13849l-0.264241 -2.51303l-2.28985 -1.65237l-2.43642 -0.744875l-0.258427 -0.0889174l-1.62966 0.882701l-1.06518 0.769982l-0.524229 0.317676l-0.62879 0.515801l-0.16171 1.35792l-0.133887 1.29359l1.44862 1.06091l2.5843 1.5906l0.110543 0.0607904"/>
</g>
<g stroke-width="0.5px" stroke="rgb(23,226,252)" fill="none">
<path d="M1953.38 -4591.77l0.0497817 -0.0118091l0.157801 -0.0489813l1.9166 -0.561488l0.570664 -0.210851l1.17571 -0.722371l1.39468 -1.1568l-0.0162943 -0.13849l-0.264241 -2.51303l-2.28985 -1.65237l-2.43642 -0.744875l-0.258427 -0.0889174l-1.62966 0.882701l-1.06518 0.769982l-0.524229 0.317676l-0.62879 0.515801l-0.16171 1.35792l-0.133887 1.29359l1.44862 1.06091l2.5843 1.5906l0.110543 0.0607904"/>
</g>
<g fill-rule="evenodd" stroke="rgb(23,226,252)">
<path fill="rgb(23,226,252)" d="M2001.88 -4591.46l0.472402 0.0923662l2.22244 0.151906l0.522967 -0.102154l0.685979 -0.514558l0.978427 -0.499311l0.50747 -0.6157l0.885941 -0.664807l0.38047 -0.871697l-1.26641 -2.60885l-0.0191875 -0.0426676l-2.67566 -1.63729l-1.82385 -0.15724l-0.870989 -0.0880846l-1.19197 0.709805l-1.45833 1.17281l-0.00907811 0.0348889l-0.035459 0.174638l-0.429288 2.0196l-0.066541 0.422386l0.495829 0.512203l2.26491 2.13931l0.42993 0.37244"/>
</g>
<g stroke-width="0.5px" stroke="rgb(23,226,252)" fill="none">
<path d="M2001.88 -4591.46l0.472402 0.0923662l2.22244 0.151906l0.522967 -0.102154l0.685979 -0.514558l0.978427 -0.499311l0.50747 -0.6157l0.885941 -0.664807l0.38047 -0.871697l-1.26641 -2.60885l-0.0191875 -0.0426676l-2.67566 -1.63729l-1.82385 -0.15724l-0.870989 -0.0880846l-1.19197 0.709805l-1.45833 1.17281l-0.00907811 0.0348889l-0.035459 0.174638l-0.429288 2.0196l-0.066541 0.422386l0.495829 0.512203l2.26491 2.13931l0.42993 0.37244"/>
</g>
<g fill-rule="evenodd" stroke="rgb(23,226,252)">
<path fill="rgb(23,226,252)" d="M2005.69 -4687.29l1.58707 0.734128l1.49319 0.735058l1.20165 0.573148v-2.04233h-4.28191"/>
</g>
<g stroke-width="0.5px" stroke="rgb(23,226,252)" fill="none">
<path d="M2005.69 -4687.29l1.58707 0.734128l1.49319 0.735058l1.20165 0.573148l0 -2.04233l-4.28191 0"/>
</g>
<g fill-rule="evenodd" stroke="rgb(255,255,255)">
<path fill="rgb(255,255,255)" d="M1814.28 -4687.29l0.446337 -1.19623l0.937903 -1.45528l0.0847259 -0.190047l0.193152 -0.241286l0.875411 -1.35885l0.90187 -0.861336l0.404193 -0.505115l0.513369 -0.371548l0.91518 -0.874387l1.53714 -0.900465l0.139717 -0.101159l0.102812 -0.0409714l1.59838 -0.936706l1.09646 -0.367005l0.816773 -0.402034l1.87807 -0.541877l0.185882 -0.0788698l0.721352 -0.182893l1.38215 -0.398944l0.405463 -0.0544669l1.82235 -0.405058l0.872497 -0.092844l2.17596 0.440775l0.51888 0.0616354l2.00148 0.448902l0.693367 0.174122l0.283297 0.10462l2.41155 0.688261l1.71388 0.71932l0.980964 0.324225l1.23203 0.640968l1.46281 0.915666l1.98653 1.73585l0.708315 0.788497l1.34685 1.86302l1.348 2.56896l0.0362415 0.0825565h137.789l-0.38829 -0.220192l-0.555441 -0.326319l-2.1394 -1.178l-1.44362 -0.927007l-1.25123 -0.886207l-2.1816 -1.76531l-0.513239 -0.462941l-2.35998 -2.18857l-0.334862 -0.362331l-2.08622 -2.28918l-0.608623 -0.875945l-1.01732 -1.77557l-0.645529 -1.63612l-0.494804 -1.0154l0.213768 -1.91263l0.126141 -0.73888l0.280755 -1.51228l0.334618 -1.13923l0.199569 -0.986682l0.537078 -1.66483l0.0835383 -0.376044l0.382189 -1.06818l0.295548 -0.916496l0.136415 -0.290796l0.589035 -1.64693l0.52899 -1.00458l0.324179 -0.807481l0.820676 -1.36751l0.130331 -0.348284l0.0531468 -0.128236l0.688208 -1.79384l0.369513 -0.857671l0.37899 -1.05738l0.948001 -1.59414l0.037026 -0.0881873l0.0896284 -0.124875l0.812163 -1.63935l0.646459 -0.799105l0.457905 -0.765802l0.778316 -0.76292l0.505642 -0.625281l0.63981 -0.497512l0.776005 -0.760952l0.773386 -0.444316l0.820883 -0.638563l1.69649 -0.807685l0.112031 -0.0643877l0.0654399 -0.0201377l1.82565 -0.770691l0.869192 -0.205824l1.46596 -0.148086l1.22889 -0.0773951l1.26225 -0.123038l1.43259 -0.0871686l1.07114 -0.100873l1.62371 -0.0955605l0.891483 -0.0812037l1.80336 -0.102767l0.974932 0.184874l1.71991 0.226149l1.98737 0.770012l0.707472 0.205784l1.08913 0.490313l1.60572 0.8622v-126.387l-0.563151 0.349605l-1.44672 0.554097l-0.470188 0.211328l-0.214781 0.0509127l-1.74812 0.669266l-0.946728 0.195453l-1.33591 0.21012l-1.35893 0.124745l-1.3785 -0.166641l-1.31635 -0.103362l-1.70306 -0.215982l-0.991785 -0.0818968l-2.06638 -0.275587l-0.628461 -0.0547199l-2.47586 -0.34817l-0.218987 -0.0201648l-0.556595 -0.195302l-2.13825 -0.868542l-2.37375 -1.46704l-0.321093 -0.173835l-0.190098 -0.142095l-2.50475 -2.36929l-0.233896 -0.282226l-0.34957 -0.574085l-1.41532 -2.07743l-0.69606 -1.39055l-0.646628 -1.26097l0.0557591 -0.581369l0.295031 -2.07015l0.0796318 -0.21273l0.216206 -0.34141l0.646631 -1.46114l0.454395 -0.636234l0.542701 -1.03422l1.05112 -1.1983l0.175707 -0.246119l0.191829 -0.172882l1.0779 -1.22932l1.24941 -0.868944l0.293423 -0.264546l0.502067 -0.288705l1.1126 -0.774104l0.786754 -0.318523l1.03516 -0.540373l1.65969 -0.526932l0.418323 -0.0799854l2.27652 -0.289667l0.104686 -0.0189269l0.853569 -0.103003l1.53766 -0.195731l0.19893 -0.013911l2.21055 -0.26686l0.484289 -0.0322036l1.95028 -0.223883l0.74456 -0.0471942l2.20276 0.295615l0.49208 0.0405824l1.46969 0.443586l1.22515 0.424404l0.863125 0.424843l1.83172 0.744913v-20.1548h-113.343l-1.12233 1.38989l-1.41261 1.07792l-0.0938491 0.0913638l-0.146895 0.0923402l-1.38241 1.05446l-1.07169 0.487613l-0.688119 0.43239l-1.75024 0.677056l-0.175402 0.0797755l-0.0810791 0.019401l-1.8622 0.720078l-0.832642 0.17328l-1.25659 0.422593l-1.43825 0.264811l-0.768744 0.215192l-1.9261 0.301002l-0.456947 0.00578178l-2.2379 0.0174371l-0.433675 0.00546056l-2.26117 0.0175329l-0.410626 0.00514524l-2.28422 0.017626l-0.387797 0.00483572l-2.30705 0.0177166l-0.367613 0.00214336l-2.32723 0.00837773h-10.7794l-0.454017 -0.0933924l-2.24083 -0.309939l-0.995587 -0.222924l-1.69926 -0.257814l-1.675 -0.410679l-1.01984 -0.170972l-2.55123 -0.691163l-0.143616 -0.0268999l-0.335063 -0.114407l-2.35978 -0.928949l-2.51329 -1.54393l-0.181552 -0.097564l-0.109236 -0.0810694l-2.58561 -2.42416l-0.190076 -0.227356h-131.857v212.121h108.826z
M1951.41 -4819.87L1950.68 -4820.15L1950.02 -4820.52L1947.99 -4821.48L1946.4 -4822.52L1945.29 -4823.41L1943.59 -4825.17L1942.6 -4826.5L1941.55 -4827.82L1939.94 -4830.44L1939.91 -4830.47L1940.16 -4832.87L1940.19 -4833.12L1941.02 -4834.67L1941.93 -4835.77L1942.19 -4836.18L1942.6 -4836.58L1943.31 -4837.72L1944.03 -4838.43L1944.57 -4839.13L1945.29 -4839.68L1946 -4840.38L1947.12 -4841.08L1947.61 -4841.45L1947.99 -4841.62L1949.3 -4842.44L1950.68 -4842.95L1951.2 -4843.22L1952.8 -4843.73L1953.22 -4843.88L1953.38 -4843.91L1955.73 -4844.06L1956.07 -4844.07L1958.47 -4844.02L1958.77 -4844.02L1961.22 -4843.97L1961.46 -4843.96L1963.97 -4843.91L1964.16 -4843.9L1966.2 -4843.73L1966.85 -4843.67L1966.96 -4843.62L1969.55 -4842.62L1972.08 -4841.23L1972.24 -4841.16L1972.37 -4841.08L1974.94 -4838.98L1975.46 -4838.43L1976.67 -4836.72L1977.39 -4835.77L1977.63 -4835.37L1979.13 -4833.12L1979.29 -4831.49L1979.42 -4830.47L1978.83 -4829.29L1977.71 -4827.82L1977.68 -4827.77L1977.63 -4827.71L1976.71 -4826.07L1975.89 -4825.17L1975.51 -4824.6L1974.94 -4824.11L1974.17 -4823.27L1973.08 -4822.52L1972.63 -4822.13L1972.24 -4821.93L1971.01 -4821.08L1969.55 -4820.48L1969.15 -4820.25L1968.07 -4819.87L1967.21 -4819.51L1966.85 -4819.43L1964.8 -4819.23L1964.16 -4819.2L1962.19 -4819.15L1961.46 -4819.14L1959.55 -4819.09L1958.77 -4819.08L1956.91 -4819.04L1956.07 -4819.03L1954.09 -4819.16L1953.38 -4819.19L1951.41 -4819.87"/>
</g>
<g stroke-width="0.5px" stroke="rgb(255,255,255)" fill="none">
<path d="M1814.28 -4687.29l0.446337 -1.19623l0.937903 -1.45528l0.0847259 -0.190047l0.193152 -0.241286l0.875411 -1.35885l0.90187 -0.861336l0.404193 -0.505115l0.513369 -0.371548l0.91518 -0.874387l1.53714 -0.900465l0.139717 -0.101159l0.102812 -0.0409714l1.59838 -0.936706l1.09646 -0.367005l0.816773 -0.402034l1.87807 -0.541877l0.185882 -0.0788698l0.721352 -0.182893l1.38215 -0.398944l0.405463 -0.0544669l1.82235 -0.405058l0.872497 -0.092844l2.17596 0.440775l0.51888 0.0616354l2.00148 0.448902l0.693367 0.174122l0.283297 0.10462l2.41155 0.688261l1.71388 0.71932l0.980964 0.324225l1.23203 0.640968l1.46281 0.915666l1.98653 1.73585l0.708315 0.788497l1.34685 1.86302l1.348 2.56896l0.0362415 0.0825565l137.401 0l0.38829 9.09495e-13l-0.38829 -0.220192l-0.555441 -0.326319l-2.1394 -1.178l-1.44362 -0.927007l-1.25123 -0.886207l-2.1816 -1.76531l-0.513239 -0.462941l-2.35998 -2.18857l-0.334862 -0.362331l-2.08622 -2.28918l-0.608623 -0.875945l-1.01732 -1.77557l-0.645529 -1.63612l-0.494804 -1.0154l0.213768 -1.91263l0.126141 -0.73888l0.280755 -1.51228l0.334618 -1.13923l0.199569 -0.986682l0.537078 -1.66483l0.0835383 -0.376044l0.382189 -1.06818l0.295548 -0.916496l0.136415 -0.290796l0.589035 -1.64693l0.52899 -1.00458l0.324179 -0.807481l0.820676 -1.36751l0.130331 -0.348284l0.0531468 -0.128236l0.688208 -1.79384l0.369513 -0.857671l0.37899 -1.05738l0.948001 -1.59414l0.037026 -0.0881873l0.0896284 -0.124875l0.812163 -1.63935l0.646459 -0.799105l0.457905 -0.765802l0.778316 -0.76292l0.505642 -0.625281l0.63981 -0.497512l0.776005 -0.760952l0.773386 -0.444316l0.820883 -0.638563l1.69649 -0.807685l0.112031 -0.0643877l0.0654399 -0.0201377l1.82565 -0.770691l0.869192 -0.205824l1.46596 -0.148086l1.22889 -0.0773951l1.26225 -0.123038l1.43259 -0.0871686l1.07114 -0.100873l1.62371 -0.0955605l0.891483 -0.0812037l1.80336 -0.102767l0.974932 0.184874l1.71991 0.226149l1.98737 0.770012l0.707472 0.205784l1.08913 0.490313l1.60572 0.8622l0 -126.387l-0.563151 0.349605l-1.44672 0.554097l-0.470188 0.211328l-0.214781 0.0509127l-1.74812 0.669266l-0.946728 0.195453l-1.33591 0.21012l-1.35893 0.124745l-1.3785 -0.166641l-1.31635 -0.103362l-1.70306 -0.215982l-0.991785 -0.0818968l-2.06638 -0.275587l-0.628461 -0.0547199l-2.47586 -0.34817l-0.218987 -0.0201648l-0.556595 -0.195302l-2.13825 -0.868542l-2.37375 -1.46704l-0.321093 -0.173835l-0.190098 -0.142095l-2.50475 -2.36929l-0.233896 -0.282226l-0.34957 -0.574085l-1.41532 -2.07743l-0.69606 -1.39055l-0.646628 -1.26097l0.0557591 -0.581369l0.295031 -2.07015l0.0796318 -0.21273l0.216206 -0.34141l0.646631 -1.46114l0.454395 -0.636234l0.542701 -1.03422l1.05112 -1.1983l0.175707 -0.246119l0.191829 -0.172882l1.0779 -1.22932l1.24941 -0.868944l0.293423 -0.264546l0.502067 -0.288705l1.1126 -0.774104l0.786754 -0.318523l1.03516 -0.540373l1.65969 -0.526932l0.418323 -0.0799854l2.27652 -0.289667l0.104686 -0.0189269l0.853569 -0.103003l1.53766 -0.195731l0.19893 -0.013911l2.21055 -0.26686l0.484289 -0.0322036l1.95028 -0.223883l0.74456 -0.0471942l2.20276 0.295615l0.49208 0.0405824l1.46969 0.443586l1.22515 0.424404l0.863125 0.424843l1.83172 0.744913l2.27374e-13 -1.59416l0 -18.5606l-113.343 0l-1.12233 1.38989l-1.41261 1.07792l-0.0938491 0.0913638l-0.146895 0.0923402l-1.38241 1.05446l-1.07169 0.487613l-0.688119 0.43239l-1.75024 0.677056l-0.175402 0.0797755l-0.0810791 0.019401l-1.8622 0.720078l-0.832642 0.17328l-1.25659 0.422593l-1.43825 0.264811l-0.768744 0.215192l-1.9261 0.301002l-0.456947 0.00578178l-2.2379 0.0174371l-0.433675 0.00546056l-2.26117 0.0175329l-0.410626 0.00514524l-2.28422 0.017626l-0.387797 0.00483572l-2.30705 0.0177166l-0.367613 0.00214336l-2.32723 0.00837773l-10.7794 0l-0.454017 -0.0933924l-2.24083 -0.309939l-0.995587 -0.222924l-1.69926 -0.257814l-1.675 -0.410679l-1.01984 -0.170972l-2.55123 -0.691163l-0.143616 -0.0268999l-0.335063 -0.114407l-2.35978 -0.928949l-2.51329 -1.54393l-0.181552 -0.097564l-0.109236 -0.0810694l-2.58561 -2.42416l-0.190076 -0.227356l-131.857 0l0 212.121l108.826 0"/>
<path d="M1951.41 -4819.87l-0.725297 -0.287481l-0.665105 -0.36693l-2.02974 -0.955323l-1.59025 -1.04178l-1.10459 -0.890918l-1.70345 -1.7606l-0.991397 -1.33246l-1.05197 -1.31905l-1.6075 -2.61672l-0.0235106 -0.034798l0.242479 -2.40127l0.0337922 -0.250246l0.831084 -1.5503l0.908793 -1.10122l0.256595 -0.403648l0.410244 -0.404704l0.717591 -1.13711l0.711708 -0.706053l0.547583 -0.706419l0.717963 -0.549568l0.706107 -0.700774l1.11703 -0.694754l0.490199 -0.375374l0.381508 -0.167013l1.31317 -0.817071l1.38167 -0.509371l0.519054 -0.271978l1.60399 -0.510708l0.415905 -0.15339l0.155896 -0.0287437l2.3559 -0.151365l0.338948 -0.0122682l2.3961 0.0518225l0.298747 0.00377503l2.45439 0.0535793l0.240455 0.00306711l2.5138 0.0553939l0.181039 0.00233121l2.0488 0.175797l0.646045 0.0575247l0.111996 0.0526703l2.58285 0.995692l2.53643 1.38977l0.15841 0.0731409l0.126053 0.0827221l2.56879 2.10037l0.519891 0.551146l1.21123 1.70329l0.728187 0.948224l0.235532 0.40684l1.50013 2.24468l0.161434 1.63485l0.127985 1.01667l-0.585368 1.18482l-1.12326 1.46669l-0.0295031 0.0505893l-0.051416 0.0550288l-0.918656 1.64201l-0.818395 0.903885l-0.384809 0.563771l-0.572983 0.493656l-0.763472 0.842892l-1.08678 0.751197l-0.450382 0.387875l-0.394213 0.195692l-1.2347 0.853104l-1.46015 0.605183l-0.390606 0.225335l-1.08035 0.384326l-0.861245 0.356817l-0.362647 0.0784027l-2.05286 0.196446l-0.641987 0.0359783l-1.96848 0.0470433l-0.726365 0.0104541l-1.91185 0.0452591l-0.782989 0.0111638l-1.85626 0.0435325l-0.838579 0.0118457l-1.97936 -0.132963l-0.715482 -0.0300241l-1.96955 -0.673954"/>
</g>
<g fill-rule="evenodd" stroke="rgb(155,232,242)">
<path fill="rgb(155,232,242)" d="M1826.72 -4687.29h1.73394l0.520947 -0.432888l0.439961 -0.26877l1.20079 -0.768379l1.49406 -0.723006l1.14401 0.667144l1.55083 0.837746l1.06576 0.688151h15.1395l-0.0362415 -0.0825565l-1.348 -2.56896l-1.34685 -1.86302l-0.708315 -0.788497l-1.98653 -1.73585l-1.46281 -0.915666l-1.23203 -0.640968l-0.980964 -0.324225l-1.71388 -0.71932l-2.41155 -0.688261l-0.283297 -0.10462l-0.693367 -0.174122l-2.00148 -0.448902l-0.51888 -0.0616354l-2.17596 -0.440775l-0.872497 0.092844l-1.82235 0.405058l-0.405463 0.0544669l-1.38215 0.398944l-0.721352 0.182893l-0.185882 0.0788698l-1.87807 0.541877l-0.816773 0.402034l-1.09646 0.367005l-1.59838 0.936706l-0.102812 0.0409714l-0.139717 0.101159l-1.53714 0.900465l-0.91518 0.874387l-0.513369 0.371548l-0.404193 0.505115l-0.90187 0.861336l-0.875411 1.35885l-0.193152 0.241286l-0.0847259 0.190047l-0.937903 1.45528l-0.446337 1.19623h12.4415"/>
</g>
<g stroke-width="0.5px" stroke="rgb(155,232,242)" fill="none">
<path d="M1826.72 -4687.29l1.73394 0l0.520947 -0.432888l0.439961 -0.26877l1.20079 -0.768379l1.49406 -0.723006l1.14401 0.667144l1.55083 0.837746l1.06576 0.688151l1.62908 -9.09495e-13l13.5105 0l-0.0362415 -0.0825565l-1.348 -2.56896l-1.34685 -1.86302l-0.708315 -0.788497l-1.98653 -1.73585l-1.46281 -0.915666l-1.23203 -0.640968l-0.980964 -0.324225l-1.71388 -0.71932l-2.41155 -0.688261l-0.283297 -0.10462l-0.693367 -0.174122l-2.00148 -0.448902l-0.51888 -0.0616354l-2.17596 -0.440775l-0.872497 0.092844l-1.82235 0.405058l-0.405463 0.0544669l-1.38215 0.398944l-0.721352 0.182893l-0.185882 0.0788698l-1.87807 0.541877l-0.816773 0.402034l-1.09646 0.367005l-1.59838 0.936706l-0.102812 0.0409714l-0.139717 0.101159l-1.53714 0.900465l-0.91518 0.874387l-0.513369 0.371548l-0.404193 0.505115l-0.90187 0.861336l-0.875411 1.35885l-0.193152 0.241286l-0.0847259 0.190047l-0.937903 1.45528l-0.446337 1.19623l12.4415 0"/>
</g>
<g fill-rule="evenodd" stroke="rgb(155,232,242)">
<path fill="rgb(155,232,242)" d="M1840.19 -4896.68l0.181552 0.097564l2.51329 1.54393l2.35978 0.928949l0.335063 0.114407l0.143616 0.0268999l2.55123 0.691163l1.01984 0.170972l1.675 0.410679l1.69926 0.257814l0.995587 0.222924l2.24083 0.309939l0.454017 0.0933924h10.7794l2.32723 -0.00837773l0.367613 -0.00214336l2.30705 -0.0177166l0.387797 -0.00483572l2.28422 -0.017626l0.410626 -0.00514524l2.26117 -0.0175329l0.433675 -0.00546056l2.2379 -0.0174371l0.456947 -0.00578178l1.9261 -0.301002l0.768744 -0.215192l1.43825 -0.264811l1.25659 -0.422593l0.832642 -0.17328l1.8622 -0.720078l0.0810791 -0.019401l0.175402 -0.0797755l1.75024 -0.677056l0.688119 -0.43239l1.07169 -0.487613l1.38241 -1.05446l0.146895 -0.0923402l0.0938491 -0.0913638l1.41261 -1.07792l1.12233 -1.38989h-59.3167l0.190076 0.227356l2.58561 2.42416l0.109236 0.0810694"/>
</g>
<g stroke-width="0.5px" stroke="rgb(155,232,242)" fill="none">
<path d="M1840.19 -4896.68l0.181552 0.097564l2.51329 1.54393l2.35978 0.928949l0.335063 0.114407l0.143616 0.0268999l2.55123 0.691163l1.01984 0.170972l1.675 0.410679l1.69926 0.257814l0.995587 0.222924l2.24083 0.309939l0.454017 0.0933924l10.7794 0l2.32723 -0.00837773l0.367613 -0.00214336l2.30705 -0.0177166l0.387797 -0.00483572l2.28422 -0.017626l0.410626 -0.00514524l2.26117 -0.0175329l0.433675 -0.00546056l2.2379 -0.0174371l0.456947 -0.00578178l1.9261 -0.301002l0.768744 -0.215192l1.43825 -0.264811l1.25659 -0.422593l0.832642 -0.17328l1.8622 -0.720078l0.0810791 -0.019401l0.175402 -0.0797755l1.75024 -0.677056l0.688119 -0.43239l1.07169 -0.487613l1.38241 -1.05446l0.146895 -0.0923402l0.0938491 -0.0913638l1.41261 -1.07792l1.12233 -1.38989l-59.3167 0l0.190076 0.227356l2.58561 2.42416l0.109236 0.0810694"/>
</g>
<g fill-rule="evenodd" stroke="rgb(155,232,242)">
<path fill="rgb(155,232,242)" d="M1983.02 -4690.83l1.25123 0.886207l1.44362 0.927007l2.1394 1.178l0.555441 0.326319l0.38829 0.220192h16.8885l-1.10778 -0.714087l-1.83957 -1.93743l-0.855272 -0.755769l-1.44735 -1.89575l-1.24749 -1.2798l-1.68861 -1.37172l-1.00624 -0.671883l-1.36651 -0.672652l-1.32834 -0.752714l-1.32682 -0.554266l-1.36803 -0.496549l-2.45103 -1.91507l-0.243815 -0.187956l-0.0562386 -0.0519383l-2.13572 -2.15671l-0.491059 -0.494804l0.440039 -2.20691l0.0832556 -0.444604l0.560089 -1.57391l0.384177 -1.0776l0.315228 -0.88575l0.629568 -1.76577l0.0701991 -0.197233l0.200456 -0.562177l0.551109 -1.34986l0.218778 -0.542248l0.55018 -1.35267l0.522072 -1.29884l0.243062 -0.599841l0.609643 -1.5224l0.341444 -0.193323l0.499481 -0.335954l1.15574 -0.686954l0.698179 -0.479757l0.920384 -0.579218l1.24041 -0.905586l0.431005 -0.101383l0.103039 -0.0199824l2.089 -0.474738l0.605844 -0.113642l1.61312 -0.354582l1.08172 -0.196468l2.64235 1.20915l0.0524938 0.021999l0.0317125 0.0296508l0.0319992 0.0626874l1.11332 2.58883l1.51781 2.63597l0.0107832 0.0155418l0.0854643 0.0947l2.23237 2.55682l0.366226 0.322474v-18.0209l-1.60572 -0.8622l-1.08913 -0.490313l-0.707472 -0.205784l-1.98737 -0.770012l-1.71991 -0.226149l-0.974932 -0.184874l-1.80336 0.102767l-0.891483 0.0812037l-1.62371 0.0955605l-1.07114 0.100873l-1.43259 0.0871686l-1.26225 0.123038l-1.22889 0.0773951l-1.46596 0.148086l-0.869192 0.205824l-1.82565 0.770691l-0.0654399 0.0201377l-0.112031 0.0643877l-1.69649 0.807685l-0.820883 0.638563l-0.773386 0.444316l-0.776005 0.760952l-0.63981 0.497512l-0.505642 0.625281l-0.778316 0.76292l-0.457905 0.765802l-0.646459 0.799105l-0.812163 1.63935l-0.0896284 0.124875l-0.037026 0.0881873l-0.948001 1.59414l-0.37899 1.05738l-0.369513 0.857671l-0.688208 1.79384l-0.0531468 0.128236l-0.130331 0.348284l-0.820676 1.36751l-0.324179 0.807481l-0.52899 1.00458l-0.589035 1.64693l-0.136415 0.290796l-0.295548 0.916496l-0.382189 1.06818l-0.0835383 0.376044l-0.537078 1.66483l-0.199569 0.986682l-0.334618 1.13923l-0.280755 1.51228l-0.126141 0.73888l-0.213768 1.91263l0.494804 1.0154l0.645529 1.63612l1.01732 1.77557l0.608623 0.875945l2.08622 2.28918l0.334862 0.362331l2.35998 2.18857l0.513239 0.462941l2.1816 1.76531"/>
</g>
<g stroke-width="0.5px" stroke="rgb(155,232,242)" fill="none">
<path d="M1983.02 -4690.83l1.25123 0.886207l1.44362 0.927007l2.1394 1.178l0.555441 0.326319l0.38829 0.220192l2.30655 -9.09495e-13l14.582 0l-1.10778 -0.714087l-1.83957 -1.93743l-0.855272 -0.755769l-1.44735 -1.89575l-1.24749 -1.2798l-1.68861 -1.37172l-1.00624 -0.671883l-1.36651 -0.672652l-1.32834 -0.752714l-1.32682 -0.554266l-1.36803 -0.496549l-2.45103 -1.91507l-0.243815 -0.187956l-0.0562386 -0.0519383l-2.13572 -2.15671l-0.491059 -0.494804l0.440039 -2.20691l0.0832556 -0.444604l0.560089 -1.57391l0.384177 -1.0776l0.315228 -0.88575l0.629568 -1.76577l0.0701991 -0.197233l0.200456 -0.562177l0.551109 -1.34986l0.218778 -0.542248l0.55018 -1.35267l0.522072 -1.29884l0.243062 -0.599841l0.609643 -1.5224l0.341444 -0.193323l0.499481 -0.335954l1.15574 -0.686954l0.698179 -0.479757l0.920384 -0.579218l1.24041 -0.905586l0.431005 -0.101383l0.103039 -0.0199824l2.089 -0.474738l0.605844 -0.113642l1.61312 -0.354582l1.08172 -0.196468l2.64235 1.20915l0.0524938 0.021999l0.0317125 0.0296508l0.0319992 0.0626874l1.11332 2.58883l1.51781 2.63597l0.0107832 0.0155418l0.0854643 0.0947l2.23237 2.55682l0.366226 0.322474l2.27374e-13 -0.322474l0 -17.6984l-1.60572 -0.8622l-1.08913 -0.490313l-0.707472 -0.205784l-1.98737 -0.770012l-1.71991 -0.226149l-0.974932 -0.184874l-1.80336 0.102767l-0.891483 0.0812037l-1.62371 0.0955605l-1.07114 0.100873l-1.43259 0.0871686l-1.26225 0.123038l-1.22889 0.0773951l-1.46596 0.148086l-0.869192 0.205824l-1.82565 0.770691l-0.0654399 0.0201377l-0.112031 0.0643877l-1.69649 0.807685l-0.820883 0.638563l-0.773386 0.444316l-0.776005 0.760952l-0.63981 0.497512l-0.505642 0.625281l-0.778316 0.76292l-0.457905 0.765802l-0.646459 0.799105l-0.812163 1.63935l-0.0896284 0.124875l-0.037026 0.0881873l-0.948001 1.59414l-0.37899 1.05738l-0.369513 0.857671l-0.688208 1.79384l-0.0531468 0.128236l-0.130331 0.348284l-0.820676 1.36751l-0.324179 0.807481l-0.52899 1.00458l-0.589035 1.64693l-0.136415 0.290796l-0.295548 0.916496l-0.382189 1.06818l-0.0835383 0.376044l-0.537078 1.66483l-0.199569 0.986682l-0.334618 1.13923l-0.280755 1.51228l-0.126141 0.73888l-0.213768 1.91263l0.494804 1.0154l0.645529 1.63612l1.01732 1.77557l0.608623 0.875945l2.08622 2.28918l0.334862 0.362331l2.35998 2.18857l0.513239 0.462941l2.1816 1.76531"/>
</g>
<g fill-rule="evenodd" stroke="rgb(155,232,242)">
<path fill="rgb(155,232,242)" d="M1953.38 -4819.19l0.715482 0.0300241l1.97936 0.132963l0.838579 -0.0118457l1.85626 -0.0435325l0.782989 -0.0111638l1.91185 -0.0452591l0.726365 -0.0104541l1.96848 -0.0470433l0.641987 -0.0359783l2.05286 -0.196446l0.362647 -0.0784027l0.861245 -0.356817l1.08035 -0.384326l0.390606 -0.225335l1.46015 -0.605183l1.2347 -0.853104l0.394213 -0.195692l0.450382 -0.387875l1.08678 -0.751197l0.763472 -0.842892l0.572983 -0.493656l0.384809 -0.563771l0.818395 -0.903885l0.918656 -1.64201l0.051416 -0.0550288l0.0295031 -0.0505893l1.12326 -1.46669l0.585368 -1.18482l-0.127985 -1.01667l-0.161434 -1.63485l-1.50013 -2.24468l-0.235532 -0.40684l-0.728187 -0.948224l-1.21123 -1.70329l-0.519891 -0.551146l-2.56879 -2.10037l-0.126053 -0.0827221l-0.15841 -0.0731409l-2.53643 -1.38977l-2.58285 -0.995692l-0.111996 -0.0526703l-0.646045 -0.0575247l-2.0488 -0.175797l-0.181039 -0.00233121l-2.5138 -0.0553939l-0.240455 -0.00306711l-2.45439 -0.0535793l-0.298747 -0.00377503l-2.3961 -0.0518225l-0.338948 0.0122682l-2.3559 0.151365l-0.155896 0.0287437l-0.415905 0.15339l-1.60399 0.510708l-0.519054 0.271978l-1.38167 0.509371l-1.31317 0.817071l-0.381508 0.167013l-0.490199 0.375374l-1.11703 0.694754l-0.706107 0.700774l-0.717963 0.549568l-0.547583 0.706419l-0.711708 0.706053l-0.717591 1.13711l-0.410244 0.404704l-0.256595 0.403648l-0.908793 1.10122l-0.831084 1.5503l-0.0337922 0.250246l-0.242479 2.40127l0.0235106 0.034798l1.6075 2.61672l1.05197 1.31905l0.991397 1.33246l1.70345 1.7606l1.10459 0.890918l1.59025 1.04178l2.02974 0.955323l0.665105 0.36693l0.725297 0.287481l1.96955 0.673954"/>
</g>
<g stroke-width="0.5px" stroke="rgb(155,232,242)" fill="none">
<path d="M1953.38 -4819.19l0.715482 0.0300241l1.97936 0.132963l0.838579 -0.0118457l1.85626 -0.0435325l0.782989 -0.0111638l1.91185 -0.0452591l0.726365 -0.0104541l1.96848 -0.0470433l0.641987 -0.0359783l2.05286 -0.196446l0.362647 -0.0784027l0.861245 -0.356817l1.08035 -0.384326l0.390606 -0.225335l1.46015 -0.605183l1.2347 -0.853104l0.394213 -0.195692l0.450382 -0.387875l1.08678 -0.751197l0.763472 -0.842892l0.572983 -0.493656l0.384809 -0.563771l0.818395 -0.903885l0.918656 -1.64201l0.051416 -0.0550288l0.0295031 -0.0505893l1.12326 -1.46669l0.585368 -1.18482l-0.127985 -1.01667l-0.161434 -1.63485l-1.50013 -2.24468l-0.235532 -0.40684l-0.728187 -0.948224l-1.21123 -1.70329l-0.519891 -0.551146l-2.56879 -2.10037l-0.126053 -0.0827221l-0.15841 -0.0731409l-2.53643 -1.38977l-2.58285 -0.995692l-0.111996 -0.0526703l-0.646045 -0.0575247l-2.0488 -0.175797l-0.181039 -0.00233121l-2.5138 -0.0553939l-0.240455 -0.00306711l-2.45439 -0.0535793l-0.298747 -0.00377503l-2.3961 -0.0518225l-0.338948 0.0122682l-2.3559 0.151365l-0.155896 0.0287437l-0.415905 0.15339l-1.60399 0.510708l-0.519054 0.271978l-1.38167 0.509371l-1.31317 0.817071l-0.381508 0.167013l-0.490199 0.375374l-1.11703 0.694754l-0.706107 0.700774l-0.717963 0.549568l-0.547583 0.706419l-0.711708 0.706053l-0.717591 1.13711l-0.410244 0.404704l-0.256595 0.403648l-0.908793 1.10122l-0.831084 1.5503l-0.0337922 0.250246l-0.242479 2.40127l0.0235106 0.034798l1.6075 2.61672l1.05197 1.31905l0.991397 1.33246l1.70345 1.7606l1.10459 0.890918l1.59025 1.04178l2.02974 0.955323l0.665105 0.36693l0.725297 0.287481l1.96955 0.673954"/>
</g>
<g fill-rule="evenodd" stroke="rgb(155,232,242)">
<path fill="rgb(155,232,242)" d="M1991.1 -4856.79l0.218987 0.0201648l2.47586 0.34817l0.628461 0.0547199l2.06638 0.275587l0.991785 0.0818968l1.70306 0.215982l1.31635 0.103362l1.3785 0.166641l1.35893 -0.124745l1.33591 -0.21012l0.946728 -0.195453l1.74812 -0.669266l0.214781 -0.0509127l0.470188 -0.211328l1.44672 -0.554097l0.563151 -0.349605v-21.3658l-1.83172 -0.744913l-0.863125 -0.424843l-1.22515 -0.424404l-1.46969 -0.443586l-0.49208 -0.0405824l-2.20276 -0.295615l-0.74456 0.0471942l-1.95028 0.223883l-0.484289 0.0322036l-2.21055 0.26686l-0.19893 0.013911l-1.53766 0.195731l-0.853569 0.103003l-0.104686 0.0189269l-2.27652 0.289667l-0.418323 0.0799854l-1.65969 0.526932l-1.03516 0.540373l-0.786754 0.318523l-1.1126 0.774104l-0.502067 0.288705l-0.293423 0.264546l-1.24941 0.868944l-1.0779 1.22932l-0.191829 0.172882l-0.175707 0.246119l-1.05112 1.1983l-0.542701 1.03422l-0.454395 0.636234l-0.646631 1.46114l-0.216206 0.34141l-0.0796318 0.21273l-0.295031 2.07015l-0.0557591 0.581369l0.646628 1.26097l0.69606 1.39055l1.41532 2.07743l0.34957 0.574085l0.233896 0.282226l2.50475 2.36929l0.190098 0.142095l0.321093 0.173835l2.37375 1.46704l2.13825 0.868542l0.556595 0.195302z
M1998.42 -4867.59L1998.76 -4868.02L1999.19 -4868.52L1999.98 -4869.47L2000.69 -4870.24L2001.6 -4870.52L2001.88 -4870.6L2002.86 -4870.24L2004.58 -4867.79L2004.64 -4867.59L2004.61 -4867.56L2004.58 -4867.54L2002.7 -4866.79L2001.88 -4866.53L1999.54 -4867.25L1999.19 -4867.35L1998.42 -4867.59"/>
</g>
<g stroke-width="0.5px" stroke="rgb(155,232,242)" fill="none">
<path d="M1991.1 -4856.79l0.218987 0.0201648l2.47586 0.34817l0.628461 0.0547199l2.06638 0.275587l0.991785 0.0818968l1.70306 0.215982l1.31635 0.103362l1.3785 0.166641l1.35893 -0.124745l1.33591 -0.21012l0.946728 -0.195453l1.74812 -0.669266l0.214781 -0.0509127l0.470188 -0.211328l1.44672 -0.554097l0.563151 -0.349605l0 -20.3084l-2.27374e-13 -1.05735l-1.83172 -0.744913l-0.863125 -0.424843l-1.22515 -0.424404l-1.46969 -0.443586l-0.49208 -0.0405824l-2.20276 -0.295615l-0.74456 0.0471942l-1.95028 0.223883l-0.484289 0.0322036l-2.21055 0.26686l-0.19893 0.013911l-1.53766 0.195731l-0.853569 0.103003l-0.104686 0.0189269l-2.27652 0.289667l-0.418323 0.0799854l-1.65969 0.526932l-1.03516 0.540373l-0.786754 0.318523l-1.1126 0.774104l-0.502067 0.288705l-0.293423 0.264546l-1.24941 0.868944l-1.0779 1.22932l-0.191829 0.172882l-0.175707 0.246119l-1.05112 1.1983l-0.542701 1.03422l-0.454395 0.636234l-0.646631 1.46114l-0.216206 0.34141l-0.0796318 0.21273l-0.295031 2.07015l-0.0557591 0.581369l0.646628 1.26097l0.69606 1.39055l1.41532 2.07743l0.34957 0.574085l0.233896 0.282226l2.50475 2.36929l0.190098 0.142095l0.321093 0.173835l2.37375 1.46704l2.13825 0.868542l0.556595 0.195302"/>
<path d="M1998.42 -4867.59l0.33751 -0.42624l0.433205 -0.499315l0.789975 -0.948685l0.707465 -0.777274l0.912155 -0.280662l0.285248 -0.070529l0.976323 0.351191l1.71852 2.45662l0.0617269 0.1949l-0.0311308 0.0301042l-0.0305961 0.0218833l-1.88207 0.747713l-0.812769 0.258476l-2.34804 -0.716954l-0.346799 -0.0943401l-0.770715 -0.246883"/>
</g>
<g fill-rule="evenodd" stroke="rgb(23,226,252)">
<path fill="rgb(23,226,252)" d="M1829.41 -4687.29h6.45545l-1.06576 -0.688151l-1.55083 -0.837746l-1.14401 -0.667144l-1.49406 0.723006l-1.20079 0.768379l-0.439961 0.26877l-0.520947 0.432888h0.960908"/>
</g>
<g stroke-width="0.5px" stroke="rgb(23,226,252)" fill="none">
<path d="M1829.41 -4687.29l5.38969 0l1.06576 9.09495e-13l-1.06576 -0.688151l-1.55083 -0.837746l-1.14401 -0.667144l-1.49406 0.723006l-1.20079 0.768379l-0.439961 0.26877l-0.520947 0.432888l0.960908 0"/>
</g>
<g fill-rule="evenodd" stroke="rgb(23,226,252)">
<path fill="rgb(23,226,252)" d="M1988.41 -4700.5l0.243815 0.187956l2.45103 1.91507l1.36803 0.496549l1.32682 0.554266l1.32834 0.752714l1.36651 0.672652l1.00624 0.671883l1.68861 1.37172l1.24749 1.2798l1.44735 1.89575l0.855272 0.755769l1.83957 1.93743l1.10778 0.714087h4.28191v-26.1927l-0.366226 -0.322474l-2.23237 -2.55682l-0.0854643 -0.0947l-0.0107832 -0.0155418l-1.51781 -2.63597l-1.11332 -2.58883l-0.0319992 -0.0626874l-0.0317125 -0.0296508l-0.0524938 -0.021999l-2.64235 -1.20915l-1.08172 0.196468l-1.61312 0.354582l-0.605844 0.113642l-2.089 0.474738l-0.103039 0.0199824l-0.431005 0.101383l-1.24041 0.905586l-0.920384 0.579218l-0.698179 0.479757l-1.15574 0.686954l-0.499481 0.335954l-0.341444 0.193323l-0.609643 1.5224l-0.243062 0.599841l-0.522072 1.29884l-0.55018 1.35267l-0.218778 0.542248l-0.551109 1.34986l-0.200456 0.562177l-0.0701991 0.197233l-0.629568 1.76577l-0.315228 0.88575l-0.384177 1.0776l-0.560089 1.57391l-0.0832556 0.444604l-0.440039 2.20691l0.491059 0.494804l2.13572 2.15671l0.0562386 0.0519383"/>
</g>
<g stroke-width="0.5px" stroke="rgb(23,226,252)" fill="none">
<path d="M1988.41 -4700.5l0.243815 0.187956l2.45103 1.91507l1.36803 0.496549l1.32682 0.554266l1.32834 0.752714l1.36651 0.672652l1.00624 0.671883l1.68861 1.37172l1.24749 1.2798l1.44735 1.89575l0.855272 0.755769l1.83957 1.93743l1.10778 0.714087l4.28191 0l0 -23.8636l-2.27374e-13 -2.32904l-0.366226 -0.322474l-2.23237 -2.55682l-0.0854643 -0.0947l-0.0107832 -0.0155418l-1.51781 -2.63597l-1.11332 -2.58883l-0.0319992 -0.0626874l-0.0317125 -0.0296508l-0.0524938 -0.021999l-2.64235 -1.20915l-1.08172 0.196468l-1.61312 0.354582l-0.605844 0.113642l-2.089 0.474738l-0.103039 0.0199824l-0.431005 0.101383l-1.24041 0.905586l-0.920384 0.579218l-0.698179 0.479757l-1.15574 0.686954l-0.499481 0.335954l-0.341444 0.193323l-0.609643 1.5224l-0.243062 0.599841l-0.522072 1.29884l-0.55018 1.35267l-0.218778 0.542248l-0.551109 1.34986l-0.200456 0.562177l-0.0701991 0.197233l-0.629568 1.76577l-0.315228 0.88575l-0.384177 1.0776l-0.560089 1.57391l-0.0832556 0.444604l-0.440039 2.20691l0.491059 0.494804l2.13572 2.15671l0.0562386 0.0519383"/>
</g>
<g fill-rule="evenodd" stroke="rgb(23,226,252)">
<path fill="rgb(23,226,252)" d="M1999.19 -4867.35l0.346799 0.0943401l2.34804 0.716954l0.812769 -0.258476l1.88207 -0.747713l0.0305961 -0.0218833l0.0311308 -0.0301042l-0.0617269 -0.1949l-1.71852 -2.45662l-0.976323 -0.351191l-0.285248 0.070529l-0.912155 0.280662l-0.707465 0.777274l-0.789975 0.948685l-0.433205 0.499315l-0.33751 0.42624l0.770715 0.246883"/>
</g>
<g stroke-width="0.5px" stroke="rgb(23,226,252)" fill="none">
<path d="M1999.19 -4867.35l0.346799 0.0943401l2.34804 0.716954l0.812769 -0.258476l1.88207 -0.747713l0.0305961 -0.0218833l0.0311308 -0.0301042l-0.0617269 -0.1949l-1.71852 -2.45662l-0.976323 -0.351191l-0.285248 0.070529l-0.912155 0.280662l-0.707465 0.777274l-0.789975 0.948685l-0.433205 0.499315l-0.33751 0.42624l0.770715 0.246883"/>
</g>
</g>
</g>
<g inkscape:groupmode="layer" inkscape:label="ProbNotExcThr_OMSZ.mv, line 97:8(FG)" id="ProbNotExcThr_OMSZ.mv, line 97:8(FG)"><title>ProbNotExcThr_OMSZ.mv, line 97:8(FG)</title>
<g id="Page0">
<g id="drawing" transform="translate(-1338.24,4446.89)">
<g stroke-width="2px" stroke="rgb(0,0,0)" fill="none">
<path d="M1561.64 -4647.31l2.59817 -1.5051l1.28622 -1.99477l0.46304 -0.564662l1.10615 0.263515l0.591663 -0.0752889l12.1677 -4.25517l3.54998 -2.10974l1.49202 -1.54504l1.67209 -3.76985l1.2605 -2.14974l-0.0771734 -1.47127l-1.44057 -1.77349l-1.92933 -1.54746l-1.56919 -0.943744l-3.83294 -1.39698l-1.87789 -0.339849l-0.823183 0.453128l-0.334418 2.07645l-0.92608 2.07582l-1.20905 1.84884l-1.18333 1.39573l-2.72679 2.14963l-8.66914 4.93781l0 0.866577l1.3634 0.715785l1.28622 1.43135l0.565938 1.69463l-0.797458 1.46834l-1.28622 -0.188231l-2.95831 -2.59812l-0.565938 -0.338957l-1.44057 1.76993l-10.9843 4.44163l-1.13188 0.188141l-0.951805 0.564393l-1.10615 1.42959l-1.69781 2.70788l-1.02898 0.601605l-4.57895 0.676743l-2.49527 1.3157l-4.47606 3.38207l-1.46629 -1.01445l-1.59492 -0.526068l-3.29273 -0.263049l-1.56919 0.450935l-1.64637 1.20235l-1.33767 1.5402l-0.540214 1.69007l-1.69781 0.525714l-3.6786 -1.31436l-3.52425 0.0751131l-1.31195 4.61788l0.92608 1.72621l1.46629 0.187606l3.03549 -1.05066l3.7815 0.0750524l6.81698 1.31328l3.7815 -0.412719l1.38912 -0.675413l3.60142 -2.66477l1.31195 -1.53928l1.44057 -1.16408l24.6955 -10.6736l2.10941 -1.99375"/>
</g>
<g stroke-width="2px" stroke="rgb(51,51,51)" fill="none">
<path d="M1971.78 -4762.47l3.34184 -0.483677l3.1883 -1.38069l2.55606 -2.24128l2.15865 -2.85055l1.06578 -0.843967l1.7793 -0.820531l1.88769 -0.195059l0.523856 -0.349775l0.740624 -1.4632l-0.171608 -0.95209l-0.442568 -0.84118l-0.0361281 -1.11388l0.939328 -1.76038l1.39996 -0.983049l3.50442 -1.30647l1.42706 -1.32019l2.19478 -4.09019l1.43609 -1.68531"/>
<path d="M1962.29 -4766.4l6.47594 3.42705l3.01669 0.497113"/>
<path d="M1962.29 -4766.4l-2.6825 0.628422l-1.42706 5.13273l-1.00255 0.960274l-1.1561 0.476729l-1.25545 0.110784"/>
<path d="M1950.72 -4759.7l4.0373 0.611015"/>
<path d="M1950.72 -4759.7l-1.11094 0.107435l-1.5535 0.564006l-1.61673 0.902984l-0.99352 1.02704l-1.91478 2.90574l-0.668368 0.677604l-1.48125 1.08l-0.641272 0.804858l-0.325152 0.965703l-0.298056 2.38014l-0.27096 1.11938l-2.16768 3.10247l-0.261928 0.857451l-0.0632241 0.957806l-0.131841 0.845313l-0.0217034 0.139144l-0.460632 0.977618l-0.69137 0.522282l-0.491821 0.371512l-4.28117 1.08779l-5.42823 4.09523l-2.58315 2.83577l-1.66189 3.16543l0.2258 4.02569l0.76772 4.4739l0.117416 4.30752l-1.75221 3.57807l-3.89279 1.15339l-1.57157 0.966561l-1.58963 1.79611l-3.37797 4.93934l-0.532888 1.50474l-1.00255 4.61202l-0.460632 1.17081l-1.01158 1.90879l-0.36128 1.42625l-0.0270961 1.49243l0.207736 1.16314l0.027096 1.18619l-0.532888 1.58459l-0.731592 1.03294l-1.93285 1.84961l-0.830944 1.22837l-0.388376 1.16508l-0.433536 2.26653l-0.58708 1.13133l-1.77027 1.74804l-4.30826 2.87816l-1.95091 1.85292l-3.4141 4.10844l0.126794 0.418473l0.20739 0.684422l0.749656 0.364281l0.839976 0.165576l0.605144 0.496703l0.785784 1.49651l0.0541919 0.132419l-0.334184 0.125796l-1.66189 6.32653l-0.740624 0.932604l-3.99214 3.28625l-0.388376 0.145431l-0.108384 0.343735l-0.13548 1.50694l0.081288 1.55947l0.298056 1.36424l0.027096 1.38379l-0.731592 1.63112l-0.9032 0.789007l-3.1883 0.861531l-1.82446 1.71614l-1.11997 2.07859l-1.86962 5.14759l-0.388376 0.606508l-0.298056 0.682258l-0.198704 0.744803l-0.0812879 0.767788l0.189672 0.35915l0.2258 0.299827l0.261928 0.243805l2.35735 1.61746l-0.298056 2.51603l-1.58963 2.37687l-1.75221 0.993959l-2.38445 0.421237l-0.939328 1.49387l-0.17075 0.481287l-0.587938 1.65695l-1.81543 2.40061l-1.88769 1.00603"/>
<path d="M1864.69 -4616.28l3.21539 0.249851"/>
<path d="M1864.69 -4616.28l-1.86962 0.479969l-1.33674 1.61718l-0.49676 2.40207l-0.343216 4.87057l-1.08384 2.32733l-1.50834 1.91314l-1.22835 2.0143l-0.216768 2.61377l2.55606 4.8871l0.550952 2.78453l-2.02317 1.54902l-3.70312 0.16045l-1.70705 0.60902l-1.47222 1.72854l-0.885136 2.74906l-0.36128 5.63215l-0.749656 2.44506l-1.00255 1.92145l-0.839976 0.659966"/>
<path d="M1844.42 -4572.93l2.55606 0.019602"/>
<path d="M1844.42 -4572.93l-0.559984 0.294025l-4.17278 5.08792l-1.57157 0.600637"/>
<path d="M1824.28 -4569.86l-0.713528 -0.346159l-1.57157 -1.34561l-0.81288 -0.418107l-1.75221 -0.0783977"/>
<path d="M1819.43 -4572.05l-1.8335 0.516103l-0.986487 0.534198l-0.774752 0.419511l-3.42313 2.85381l-0.379344 0.705109l0.04516 1.18808l0.81288 2.80619l-0.00903201 1.01125l-0.704496 0.704529"/>
<path d="M1831.85 -4569.1l-3.26055 -1.41724l-1.56254 -0.333127"/>
<path d="M1827.02 -4570.85l-0.596112 0.189427l-1.28254 0.718469l-0.867072 0.0783741"/>
<path d="M1838.11 -4566.95l-1.70705 -1.4821l-0.605144 -0.731374l-0.686432 -0.346124"/>
<path d="M1835.12 -4569.51l-0.749656 0l-0.794816 0.346124l-1.72511 0.0653044"/>
<path d="M1810.53 -4561.73l0.81288 0.287027l0.830944 0.130463"/>
<path d="M1810.53 -4561.73l-0.659336 0.241364l-0.433536 0.939284l-0.0841111 1.52938l-0.0152408 0.277084l-0.469664 1.24534l-1.33674 1.48629l-1.70705 0.873371l-4.93147 1.04269"/>
<path d="M1800.89 -4554.1l-0.650304 -0.0195489l-1.05674 -0.404024l-0.867072 -0.593045l-2.54702 -2.34661l-3.45926 -1.45399l-3.56764 -0.815151"/>
<path d="M1769.02 -4551.4l3.53151 -4.50248l14.0628 -0.391091l2.13155 -3.43603"/>
<path d="M1934.19 -4847.18l0.081288 -9.48955l0.966424 -2.1462l0.307088 -2.07191l-1.02062 -5.34632l0.18064 -2.67476l1.30964 -2.15014l5.70822 -4.63369l0.54192 -0.963337l0.912232 -2.10821l0.659336 -0.929601l1.07481 -0.738305l2.33026 -0.745224l1.05674 -0.690603l1.39996 -1.8602l1.06578 -2.46967l0.559984 -2.81284l-0.108384 -2.84142l0.27096 -1.77394l0.668368 -0.870018l0.821912 -0.650875l0.758688 -1.09635l0.605144 -1.52149l0.198704 -0.89798l-0.0313958 -0.744635"/>
<path d="M1398.24 -4895.91l2.82563 2.0626l4.63342 2.01369"/>
<path d="M1458.63 -4890.4l-1.39093 -0.246488l-1.14706 -0.807998l-0.63224 -1.56834l-0.325152 -1.90442l-0.686432 -1.59657l-1.67092 -0.678488l-1.61673 -0.191908l-5.2205 -1.52175l-0.762317 -0.490985"/>
<path d="M1441.35 -4899.41l-0.0905757 0.0385042l-0.9032 0.041136"/>
<path d="M1439.81 -4899.41l0.542059 0.0796403"/>
<path d="M1437.4 -4899.41l-1.08281 0.724069l-4.43471 7.61872l-0.957392 0.896956l-1.37286 0.403933"/>
<path d="M1413.77 -4892.32l12.2203 1.81467"/>
<path d="M1405.7 -4891.84l8.07461 -0.486243"/>
<path d="M1427.91 -4890.87l1.1561 0.944853l0.487728 0.157462"/>
<path d="M1427.91 -4890.87l-1.81543 0.273884l-0.099352 0.0890099"/>
<path d="M1468.05 -4887.38l-1.6077 -0.602269l-3.1612 -2.10152l-1.33674 -0.458727"/>
<path d="M1458.63 -4890.4l3.32378 -0.136937"/>
<path d="M1480.83 -4873.48l-3.01669 -3.51807l-1.21029 -8.75884l-2.06833 -2.91533l-1.43609 -0.109521"/>
<path d="M1468.05 -4887.38l1.67995 -0.205313l3.3599 -1.19779"/>
<path d="M1498.59 -4794.82l-5.48242 4.60851l0.921264 1.07239l-0.036128 0.809241l-0.424504 0.815886l-0.243864 1.11915l-0.171608 0.21909l-0.81288 0.556119l-0.234832 0.370721l0.09032 0.566152l0.433536 0.26284l0.460632 0.148264l0.18064 0.259455l-0.36128 2.32117l-0.505792 1.70752l-0.867072 1.31655l-1.43609 1.13789l-3.02572 0.676581l-1.09287 0.575545l0.027096 1.42014l0.550952 0.585469l1.8335 0.851195l0.686432 0.518066l0.839976 2.43169l0.569016 0.823818l-1.30964 1.46245l0.117416 2.23845l0.58708 2.6341l0.162576 4.24465l0.433536 1.30913l0.740624 0.990069l0.99352 0.624172l-1.79737 0.83885l-6.36756 0.85552l-6.92754 1.7409"/>
<path d="M1467.93 -4751.85l-4.92244 -0.778053l-0.939328 -0.57689l-0.975456 -1.01639l-0.668368 -1.342l-0.325152 -1.36911l-0.469664 -1.16799l-1.1019 -0.775415l-6.9998 -2.73648l-3.66699 -0.463465"/>
<path d="M1447.86 -4762.08l-3.20636 1.45746l-0.523856 1.25571l0.153544 1.71196l-0.478696 1.11758l-0.740624 0.718104l-3.48635 1.8486l-1.03868 0.939204l-0.578048 0.358876"/>
<path d="M1472.53 -4756.72l1.27351 3.40202l3.31474 0.610439"/>
<path d="M1472.53 -4756.72l-1.1561 0.983206l-1.71608 2.74081l-0.966424 0.955837l-0.76772 0.184444"/>
<path d="M1436.61 -4753.8l0.505792 0.64067l0.433536 0.405838l0.40644 0.0838477"/>
<path d="M1436.61 -4753.8l-0.641272 0.650732l-1.3277 2.15971l-0.76772 0.972317l1.5806 0.915192l4.89534 1.98752"/>
<path d="M1448.53 -4745.3l-5.75338 -2.35898"/>
<path d="M1442.77 -4747.66l-2.42058 0.542907"/>
<path d="M1440.35 -4715.2l9.39328 -4.30406l3.28305 -2.57298l1.21488 -0.952371l-0.352248 -5.20792l0.99352 -1.0795l2.54702 -1.07633l0.930296 -1.65159l0.0993519 -1.99314l-0.6774 -1.62237l-1.21029 -1.2346l-1.48125 -0.836575l0.487728 -2.51034l-0.740624 -2.61844l-1.52641 -2.05662l-1.90575 -0.877771"/>
<path d="M1451.41 -4745.8l-2.88121 0.495854"/>
<path d="M1440.35 -4715.2l-1.04771 -1.70795l-1.16513 -0.814097"/>
<path d="M1438.14 -4717.72l-1.09287 0.300293l-0.885136 1.6347l0.216768 4.9484l-0.189672 0.379984l-0.433536 0.226647l-0.379344 0.346622l-0.0541919 0.763173l0.243864 0.493185l0.397408 0.213258l0.388376 0.149943l0.234832 0.256561l2.65541 5.58531l0.352248 2.11703l-0.578048 1.72376l-1.23738 1.13784l-2.71863 1.47359l0 0.0133041l0.289024 2.24469l-1.34577 2.81895l0.307088 2.12342l0.523856 0.451847"/>
<path d="M1437.31 -4682.67l-1.17416 -0.776818l0.0270959 -0.710501l0.713528 -2.19173l-0.0270961 -1.12935l-0.58708 -0.830522l-0.731592 -0.0697685"/>
<path d="M1435.53 -4688.38l-0.695464 0.0598015"/>
<path d="M1434.56 -4663.39l0.424504 -0.105927l0.379344 -0.350896l0 -0.0132417l1.45415 -0.271461l2.27606 -0.0264846l1.65286 -0.400591l-0.388376 -1.38735l-1.25545 -1.1591l-1.24642 -0.417325l-2.50186 -0.308042l1.09287 -0.987152l3.91086 -1.59366l0.984488 -0.632927l0.352248 -0.702584l-0.307088 -0.666196l-1.02965 -0.523722l-1.76124 -0.590064l-0.650304 -1.69423l0.569016 -1.87376l1.84253 -1.14772l1.99607 -2.64448l0.415472 -1.50353l-1.06578 -1.5603l-1.43609 -0.139449"/>
<path d="M1440.26 -4684.09l-2.95346 1.42091"/>
<path d="M1423.45 -4665.46l3.26055 0.658898"/>
<path d="M1423.45 -4665.46l-1.19222 0.162247l-0.830944 1.41701l-0.379344 1.94295l-0.704496 0.585757l-0.867072 0.191932l-0.885136 0.761057l-0.2258 0.780822l0.072256 0.711265l-0.0451601 0.777344l-0.58708 0.932697l-0.605144 0.469608l-1.82446 0.780404l-2.22187 1.63327l-1.01158 1.05117l-3.17023 4.34181l-1.11997 1.08007l-1.39996 0.657206"/>
<path d="M1434.56 -4663.39l-0.4516 -0.125789l-0.469664 -0.350897l-1.50834 -1.13888l-1.85156 -0.228462"/>
<path d="M1426.72 -4664.8l3.55861 -0.43374"/>
<path d="M1729.49 -4554.04l-1.52641 -0.312787l-5.3391 -3.4255l-1.90456 -1.22235l-1.81543 -0.593428l-1.87866 -0.0978228"/>
<path d="M1717.02 -4559.7l-5.07598 0.997727"/>
<path d="M1711.95 -4558.7l-1.86059 -0.0586859"/>
<path d="M1710.09 -4558.76l-1.61673 0.286904l-2.15865 0.977992l-2.0322 1.36244l-1.26448 1.43386l0.153544 1.0361l0.650304 1.15322l0.2258 1.04229l-2.30316 1.25054l-0.614176 0.846595l-0.442568 0.944157l-0.623208 0.872417l-1.47222 1.20428l-0.749656 0.312427l-0.966424 0.1497l-1.09287 0.514161l-0.713528 1.09328l-0.650304 1.26226l-0.894168 0.98883l-1.46318 0.507371l-3.23346 0.0195134l-1.58963 0.357739l-0.756029 0.569669l-0.996179 0.750552l-0.650304 1.55403l-0.40644 1.53418l-0.99352 1.28039l-2.42961 0.467902"/>
<path d="M1750.86 -4555.8l-3.65796 -2.073l-5.59081 -0.521607"/>
<path d="M1741.61 -4558.39l-3.51345 0.775877l-1.33679 0.554846l-7.2707 3.01698"/>
<path d="M1759.86 -4554.98l-0.668368 -0.364969l-0.894168 -1.24495l-0.469664 -0.378091l-1.42706 -0.345515"/>
<path d="M1756.4 -4557.31l-0.85804 0.104308l-2.20381 1.1147l-2.4838 0.293312"/>
<path d="M1769.02 -4551.4l-4.75083 -4.0723l-1.57157 -0.645272"/>
<path d="M1759.86 -4554.98l0.641272 -0.078206l2.19478 -1.06239"/>
<path d="M1681 -4534.98l-7.65913 -0.799351l-1.94188 -1.13745l0 -0.0195007l-1.29158 -2.47703l-1.96898 -0.741331"/>
<path d="M1668.14 -4540.16l-2.01414 0.858376l-1.37286 2.37949l-0.099352 3.73013l-1.54447 0.428772"/>
<path d="M1663.11 -4532.76l-2.21284 -0.318328"/>
<path d="M1660.9 -4533.08l-2.07736 1.48108l-0.27096 0.454653l-0.0903199 0.461118l0.0993519 0.467582l0.668368 1.07142l0.198704 0.532404l-0.108384 0.402522l-0.49676 0.246696"/>
<path d="M1658.82 -4527.96l-1.67092 -0.766083l-5.36501 -0.409045"/>
<path d="M1443.27 -4601.19l0.505792 0.403476l3.77538 2.36134l1.16513 1.17709"/>
<path d="M1464.23 -4586l-1.06578 -2.24904l-2.66444 -1.65369l-1.64382 -2.14875l-1.40899 -2.41815l-1.58963 -1.9666l-1.88769 -1.30482l-2.32122 -0.455761l-0.785784 -0.504979l-0.686432 -0.118052"/>
<path d="M1450.17 -4598.82l-0.54192 0.432849l-0.379344 1.13118l-0.532888 0"/>
<path d="M1465.47 -4587.8l0.623208 0.409242l2.35735 0.530342l0.388376 0.170225l0.388376 0.29461l0.370312 0.386247l0.379344 0.490961l0.578048 0.517108"/>
<path d="M1464.23 -4586l0.596112 0l0.650304 -1.80376"/>
<path d="M1514.22 -4534.27l-0.921264 -0.220927l-0.872422 -0.770845l-0.157225 -0.138929l-1.28254 -0.454931l0 -0.857951l0.596112 -0.149502l1.08384 -0.500531l0.650304 -0.130014l-0.785784 -1.09872l-1.42706 -0.195056l-1.36383 -0.513675l-0.605144 -2.10061l-0.207736 -1.26848l-1.09287 -4.03464l-0.478696 -1.18481l-3.49538 -4.57838l-0.984488 -0.579839l-7.09012 -0.247586l-1.30964 -0.638553l-4.21794 -3.18713l-1.02062 -1.10182l-0.433536 -1.36285l-0.72256 -0.945676l-4.65148 -3.79704l-0.830944 -1.12255l-2.14962 -4.0479l-3.26958 -3.8477l-0.63224 -0.548912l-0.596112 -0.745022l-0.866938 -2.51718l-0.65947 -1.9154l0.289024 -1.98185l-0.839976 -2.06094l-0.528742 -0.71202l-0.780898 -1.05172l-1.11997 -1.11606l-0.460632 -0.00654644"/>
<path d="M1470.56 -4585l0.234832 -0.422193l0.189672 -0.579329"/>
<path d="M1515.81 -4532.22l-0.279992 -0.370272l0.13548 -1.11743l-0.505792 -2.15091"/>
<path d="M1515.16 -4535.86l-0.939328 1.58563"/>
<path d="M1521.13 -4530.7l-0.569016 -2.04604l-0.921264 -0.396288"/>
<path d="M1515.81 -4532.22l1.74318 -0.129918l2.08639 -0.799049"/>
<path d="M1560.61 -4509.13l-0.00903201 -0.517969l-1.72511 -2.97907l-2.53799 -1.85284l-10.6487 -3.2858l-1.97801 -0.129649l-0.713528 -0.473239l-0.162065 -0.839783l-0.126959 -0.657938l-0.0993519 -1.43967l-0.4516 -1.86813l-0.099352 -1.0186l-0.641272 -1.19396l-4.13666 -4.38177l-3.21539 -1.45471l-3.70312 -0.772937l-7.4514 -0.350773"/>
<path d="M1522.92 -4532.35l-0.740624 0.467693l-0.243864 0.415701l-0.334184 0.389697l-0.469664 0.370192"/>
<path d="M1651.78 -4529.14l-1.29158 0.0973938l-0.867072 1.00632l-0.975456 0.545302l-1.75221 0.519295l-1.49028 1.03198l-0.514551 0.0181241l-0.406713 0.0143258"/>
<path d="M1644.49 -4525.91l-1.129 -1.02549"/>
<path d="M1640.79 -4523.06l0.912232 -0.512517l0.388376 -0.875906l0.388376 -1.14858l0.876104 -1.33051"/>
<path d="M1640.79 -4523.06l-1.06578 -0.142722l-3.45022 -1.81672l-4.32633 -1.49915"/>
<path d="M1631.95 -4526.52l-1.63479 0.35048l-1.97801 1.96625l-0.325152 0.635832l-0.261928 1.51149l-0.234832 0.771836l-0.126448 0.0324282l-1.29158 1.47208l-1.91478 3.73394l-1.04771 1.28308l-3.77538 3.23905l-2.27606 0.854859"/>
<path d="M1580.05 -4509.13l-9.18554 -2.55785"/>
<path d="M1570.87 -4511.69l-7.47849 0l-0.81288 0.453358l-0.415472 0.984332l-0.49676 0.900025l-1.04771 0.220132"/>
<path d="M1617.08 -4510.67l-1.95994 -0.926102"/>
<path d="M1615.12 -4511.6l-1.42706 0.964956l-3.03475 3.76788l-1.66189 1.30728l-0.641272 0.174717l-0.596112 0.0582379"/>
<path d="M1600.78 -4506.07l-1.49931 -0.569519l-1.50834 -1.63763l-1.98704 -0.0258943l-2.6825 -2.02006l-1.62576 -0.518058"/>
<path d="M1591.48 -4510.84l-7.18947 0l-0.76772 0.246082l-1.50834 1.10079l-0.94836 0.362574l-1.01158 0"/>
<path d="M1607.76 -4505.32l-0.596112 -0.0582379l-0.578048 -0.161774l-0.027096 -0.0129421l-1.45415 -1.87686l-1.39996 -0.0258913"/>
<path d="M1600.78 -4506.07l1.50834 -0.588935l1.41802 -0.802585"/>
<path d="M1429.52 -4606.94l1.01158 0.814166l1.11094 0.151004"/>
<path d="M1429.52 -4606.94l-0.54192 0.95204"/>
<path d="M1428.31 -4606.94l0.620929 0.896587l0.0384068 0.0554535"/>
<path d="M1428.31 -4606.94l-0.338442 0.400488l-0.898942 1.06363l-1.68898 0.567837l-1.33674 0.830336l-2.74573 1.0829l-0.263595 0.297843l-2.2744 2.56937l-0.0627098 1.07212l-0.0456742 0.780765l0.334184 1.73438l1.03868 3.49366l0.0632239 1.02548l-0.162576 2.04067l0.234832 1.05777l0.532888 0.64506l1.49028 0.988757l0.40644 0.602352l0.10571 1.10077l0.0297702 0.309969l-0.40644 0.386185"/>
<path d="M1437.48 -4603.31l-0.758688 -0.0853167l-0.731592 -0.531613l-1.47222 -1.56882l-0.776752 -0.498948l-0.99352 -0.0787846"/>
<path d="M1432.75 -4606.07l-1.11094 0.0919152"/>
<path d="M1443.27 -4601.19l-2.11349 -1.70601l-0.85804 -0.492197l-0.921264 -0.157511"/>
<path d="M1439.38 -4603.55l-1.89672 0.242827"/>
<path d="M1416.47 -4584.12l-1.47222 -0.340327l-1.24642 -0.736342l-2.09542 -2.00652l-0.849008 -0.415779"/>
<path d="M1410.81 -4587.62l-1.07481 0.20953l-0.731592 0.782406l-0.668368 0.962337l-0.830944 0.703665l-1.02062 0.186541"/>
<path d="M1403.3 -4585.45l2.68192 0.563207l0.497339 0.104437"/>
<path d="M1398.24 -4574.63l1.67857 -0.852099l1.72511 -1.21588l0.959034 -1.04935l0.215126 -0.235406l0.63224 -1.73627l0.00903201 -1.64511l-0.198704 -1.81564l0.0451599 -2.26449"/>
<path d="M1422.33 -4584.89l-1.99607 -0.0327267"/>
<path d="M1416.47 -4584.12l0.740624 -0.0327231l3.11604 -0.769036"/>
<path d="M1428.25 -4628.22l-0.81288 -0.964999l-0.749656 -1.46917l-0.99352 -1.28166l-1.20126 -3.66838l-0.198704 -0.474759l0.116464 -0.473124l0.235784 -0.957944l0.778593 -1.34063l0.332343 -0.572327l0.605144 -1.43836l0.49676 -1.55747l0.198704 -1.14193l-0.388376 -0.643655l-1.28254 -0.0726213l-0.76772 -0.409334l-0.392003 -0.487912l-1.32408 -1.64829l-0.894168 -0.515164"/>
<path d="M1410.07 -4646.3l3.85477 -0.33473l8.08554 -0.702164"/>
<path d="M1406.46 -4647.19l3.16443 0.775156l0.448374 0.109826"/>
<path d="M1429.46 -4628.43l0.0270959 2.14366l0.681466 0.292894l0.072822 0.0312981l0.456 0.195981l1.62576 0.0987624l1.30964 0.878924l0.478696 2.40577l-0.689917 0.6696l-0.520371 0.505004l-1.66189 0.799406l-0.803848 1.25649l0.33283 0.846759l0.362634 0.922467l1.58963 1.28224l3.11604 1.86047l3.22442 5.04637l2.94443 2.52837l1.26448 5.47386"/>
<path d="M1429.46 -4628.43l-1.21029 0.210773"/>
<path d="M1406.46 -4647.19l-3.5917 2.13587l-1.8275 1.0865l-0.313084 0.0776986l-2.48545 0.616775"/>
<path d="M1398.24 -4627.77l0.287641 0.184304l0.984488 1.97221l0.189256 2.93272l0.000415714 0.00644086"/>
<path d="M1399.7 -4622.67l-0.0117345 -0.0147988l-1.45007 -1.82902"/>
<path d="M1655.32 -4480.02l-0.849008 -0.825331l-1.74318 -2.83136l-0.740624 -0.606409l0.298056 -1.07102l0.108384 -2.34262l0.36128 -2.34986l1.05674 -1.05899l0.957392 -0.710385l2.40251 -3.33978l0.487728 -1.07915l-0.505792 -1.79033l-1.27351 -1.12485l-1.49028 -0.859917l-1.20126 -0.957025l-0.731592 -1.61042l-0.36128 -3.79793l-0.40644 -1.8965l-2.53799 -3.14039l-0.623208 -1.07518l-1.33674 -1.37984l-0.325152 -0.771017l0.153544 -0.537818l0.31612 -0.531379l0.18064 -0.732333l0.252896 -3.42289l2.78186 -0.265863l1.1019 -0.239934l0.63224 -0.823619l-0.261928 -0.972904l-0.921264 -1.02494l-1.79737 -1.42738l0.794816 -0.927955l0.686432 -0.661973l1.49931 -0.980095l-0.49676 -1.94762"/>
<path d="M1668.22 -4475.17l1.47753 -1.45165l-0.975456 -1.79822l-1.11997 -0.638187l-1.26448 -0.27721l-1.47222 -0.68985l-0.876104 -0.760848l-0.388376 -0.554569l-0.27096 -0.644902l-0.54192 -0.993266l-0.794816 -0.599897"/>
<path d="M1661.99 -4483.58l-0.776752 0.238675l-0.749656 0.535376l-1.52641 0.806213l-0.876104 1.05761l-1.129 0.889817l-1.61673 0.0257903"/>
<path d="M1480.83 -4873.48l0.81288 6.17776l-0.462262 1.65854l-0.188042 0.674555l-1.43609 1.52085l-1.44512 1.16938l-0.650304 1.24416l-0.460632 1.75507l-2.2851 3.30442l-0.885136 1.77417l-0.36128 1.88263l-0.776752 7.02879l-0.2258 0.829631l-0.216768 0.390979l-0.153544 0.598324l-0.054192 1.4446l0.27096 0.791846l0.6774 0.411179l1.76124 0.186891l0.49676 0.29222l0.921264 0.761071l0.894168 1.00217l0.397408 1.04278l-0.198704 0.584156l-0.343216 0.760686l-0.162576 0.665529l0.379344 0.271626l0.234832 0.278405l0.298056 0.658619l0.279992 0.753598l0.108384 0.597387l0.289024 0.773808l0.668368 0.430986l0.794816 0.366486l0.966424 0.882199l0.54192 0.186604l0.325152 0.454614l0.081288 0.56992l-0.117416 1.50259l0.036128 0.627394l1.36383 4.71206l0.415472 2.37173l0.00903201 2.84158l0.623208 2.04154l2.20381 2.42331l1.20126 0.737651l1.39996 0.216543l0.921264 0.592073l1.30996 2.39129l0.415151 0.757665l1.13803 1.22063l-0.894168 1.10547l-0.4516 1.32498l-0.49676 2.43295l0.343216 0.21622l1.04771 0.874943l-0.469664 2.14465l2.0051 1.10077l2.82702 1.00944l2.04123 1.83956"/>
<path d="M1493.66 -4899.41l-0.655253 0.833752l-3.00766 2.61131l-2.14962 3.67192l-4.41665 12.7709l-1.00255 1.84194l-1.3819 1.69113l-0.216768 2.51028"/>
<path d="M1817.74 -4868.86l1.3548 0.716554l2.59218 2.37432l1.26448 0.330836l2.74573 0.293305l4.75986 2.91871l3.11604 0.279529"/>
<path d="M1817.74 -4868.86l-1.41802 0.0238863l-18.4885 4.28793l-5.4192 0.368285l-2.51993 1.01609l-0.099352 0.995482l-0.027096 1.09759l0.171608 2.28663l0.054192 0.463364l0.00903201 0.466739l-0.036128 0.470112l-0.0722559 0.463267l-1.17416 1.7608l-0.198421 0.210699l-2.65569 2.81938l-1.30964 1.73232l-1.01158 2.04485l-3.39603 10.4425l-1.82446 3.79293l-2.18574 3.3531l-2.53799 2.5646l-1.99607 1.04456"/>
<path d="M1882.18 -4859.1l-1.39093 -0.640615l-0.58708 -0.926956l-0.794816 -2.55661l-0.578048 -1.13204l-0.749656 -0.685454l-1.5806 -0.624131l-2.9354 -1.76016l-1.27351 -0.388935"/>
<path d="M1872.29 -4867.81l-4.53406 1.44304l-2.98056 0.0648101l-1.46318 0.300165l-1.70705 1.01296l-0.731592 1.23103l-0.49676 1.40467l-1.02062 1.47935l-1.29158 0.72933"/>
<path d="M1858.07 -4860.15l-0.99352 -0.436225l-1.08384 -0.916847l-1.5806 -0.695388"/>
<path d="M1854.41 -4862.2l-2.89927 0.661302l-6.76497 3.24421"/>
<path d="M1844.74 -4858.29l-2.21284 -0.51447l-1.76124 -1.74472l-2.43864 -1.10773l-2.57412 -0.463595"/>
<path d="M1833.57 -4861.95l2.18574 -0.170443"/>
<path d="M1901.52 -4837.84l-2.7367 -0.937516l-2.31219 -1.71572l-2.06833 -2.41975l-4.89534 -7.54352l-0.713528 -1.40898l-1.13803 -5.44129l-0.758688 -1.49901l-1.49028 -0.337323"/>
<path d="M1882.18 -4859.1l3.22442 -0.0442959"/>
<path d="M1929.38 -4843.37l1.62576 -0.475928l1.52641 -1.21377l1.65286 -2.12548"/>
<path d="M1924.15 -4843.89l5.22953 0.516723"/>
<path d="M1924.15 -4843.89l-1.5806 0.101988l-1.6077 0.557507l-4.56116 0.237946l-1.27351 0.503058l-2.66444 1.52934l-3.76634 0.564067l-4.52503 2.32033l-2.65541 0.23097"/>
<path d="M1771.6 -4827.16l-1.05674 -0.451039l-0.984488 -1.08872l-1.74318 -0.881961"/>
<path d="M1767.82 -4829.58l-0.984488 0.434211l-2.63734 2.44191l-1.46318 0.651026"/>
<path d="M1760.3 -4826.55l0.894168 0.332295l1.53544 0.162751"/>
<path d="M1760.3 -4826.55l-0.749656 0.149196l-1.09287 1.30193l-0.343216 0.922048l-0.478696 2.35878l-0.641272 1.1723l-0.72256 0.572525l-1.65286 0.640222l-3.47627 2.1381l-0.290077 0.178383l-3.32378 1.04283l-2.01414 1.24916l-3.95602 3.70548l-2.0593 0.757764"/>
<path d="M1720.44 -4819.87l-0.876104 -0.457325l-1.89672 -2.35487l-0.99352 -0.847277l-0.876104 -0.257593l-0.930296 -0.0305052"/>
<path d="M1714.87 -4823.82l-8.03848 2.14519l-1.50834 0.877535l-0.957392 1.90714l-0.821912 5.07178l-1.03868 2.07095l-0.0270959 0.0609006l-0.018064 0.0609001l0.018064 0.0811994l0.0270959 0.0879647l0.13548 0.717208l0.04516 0.710366l-0.04516 0.689999l-0.13548 0.6764l-4.67858 3.33366"/>
<path d="M1729.06 -4813.55l-0.830944 -0.108298l-0.821912 -1.24217l0.216768 -1.10698l0.49676 -1.13086l-0.04516 -1.28684l-1.5535 -1.89007l-2.05026 -0.338779"/>
<path d="M1720.44 -4819.87l4.02827 -0.785941"/>
<path d="M1739.5 -4810.36l-1.81543 -0.696869l-3.32378 -3.01835l-2.14962 -0.6871"/>
<path d="M1729.06 -4813.55l3.15217 -1.2083"/>
<path d="M1686.03 -4805.58l11.7958 0.250136"/>
<path d="M1679.86 -4802.02l0.957392 -0.195956l5.2205 -3.35916"/>
<path d="M1669.02 -4803.35l10.8384 1.32788"/>
<path d="M1663.79 -4802.58l5.22953 -0.767026"/>
<path d="M1660.1 -4802.76l1.96826 0.0938447l1.7168 0.081854"/>
<path d="M1660.1 -4802.76l-1.28254 0.601411l-4.21416 0.950077l-8.31322 1.87381l-1.52641 1.24943l-2.33929 4.87393l-0.830944 0.722014l-1.69802 0.290134l-0.794816 0.465537l-1.13803 1.40654l0.117416 0.48227l0.605144 0.522701l0.289024 1.50717l-0.876104 5.38531l-0.216768 2.74492l0.569016 2.44086l2.55606 2.51064l3.3599 2.45926l-0.134293 0.0476398l-2.1508 0.762945l-1.97801 0.524642l-1.51738 1.12986l-2.89024 3.31787l-2.13155 1.32064l-2.54702 0.268802"/>
<path d="M1535.67 -4771.88l-1.06578 -1.09993l-2.95346 -4.44528l-0.81288 -0.538612l-2.19478 -0.464588l-0.9032 -0.37708l-0.85804 -0.79463l-8.96877 -12.0521l-2.75476 -2.28748l-5.69919 -0.863913l-0.904919 -0.253771l-3.62011 -1.0153l-3.15217 -0.681888"/>
<path d="M1498.59 -4794.82l3.1883 -1.93746"/>
<path d="M1557.79 -4761.54l-7.31592 -1.99848l-1.98828 -1.07775l-3.71995 -2.01686l-0.912232 -1.02177l-0.686432 -1.33794l-1.61673 -1.54669l-1.81543 -1.30488l-1.30061 -0.652533"/>
<path d="M1538.43 -4772.49l-0.984488 0.148003l-0.876104 0.430535l-0.9032 0.0336345"/>
<path d="M1631.02 -4764.9l-2.61025 -0.510733l-3.17926 -1.40808l-3.91989 -0.285684"/>
<path d="M1621.31 -4767.11l-17.8924 2.09025l-6.53917 2.66733l-3.24249 0.308992"/>
<path d="M1582.86 -4763.16l10.7752 1.11848"/>
<path d="M1557.79 -4761.54l5.05283 -0.326894l20.02 -1.29535"/>
<path d="M1945.02 -4840.93l0.0180639 -2.09697l1.30061 -3.97823l-3.12507 -1.55794l-2.98056 -0.377633"/>
<path d="M1940.23 -4848.94l-2.86314 1.13624l-0.867072 0.948984l-0.0859003 0.0119803l-0.00454227 0.000633543l-0.153421 0.0213975"/>
<path d="M1936.26 -4846.82l-2.06833 -0.360528"/>
<path d="M1954.99 -4825.18l-0.63224 -0.1729l-0.569016 -0.576366l-4.28117 -6.64195l-0.939328 -2.66813l-0.0812879 -1.81331l0.198704 -1.51486l0 -1.29096l-0.650304 -1.1077l-0.605144 -0.108742"/>
<path d="M1947.43 -4841.08l-2.41154 0.146121"/>
<path d="M1960.52 -4825.1l-1.3819 -0.291556l-1.71608 -0.705211l-0.370312 -0.0542502"/>
<path d="M1957.06 -4826.15l-0.352248 0.0542502l-0.352248 0.169529l-0.686432 0.549244l-0.6774 0.193242"/>
<path d="M1975.72 -4806.77l-0.2258 -0.0270471l-0.469664 -0.534202l-1.49028 -3.10124l-1.23738 -4.15188l-1.14706 -2.70501l-6.49401 -8.57926l-0.352248 -0.176308l-0.36128 -0.0745934"/>
<path d="M1963.94 -4826.12l-0.370312 0.0474687l-1.68898 0.847597l-1.3548 0.122045"/>
<path d="M1999.27 -4787.15l-3.21539 -2.61644l-0.731592 -1.58519l1.49028 -1.85549l0.162576 -2.045l0.578048 -1.20502l0.31612 -1.35379l-0.596112 -2.47197l-0.912232 -1.79714l-1.16513 -1.4901l-2.58315 -2.42338l-3.1341 -1.77499l-0.307088 -0.618822l-1.42706 -0.919884"/>
<path d="M1975.72 -4806.77l1.14706 -0.645779l6.2953 0l1.6077 -0.53087l1.48125 -0.957024l1.49931 -0.412611"/>
<path d="M1769.02 -4551.4l5.49146 6.86864l1.04771 1.88687l1.8335 5.76155l1.33674 2.02776l1.49028 1.11762l3.43216 1.53318l1.64382 1.11719l4.59729 4.27226l1.58963 0.759383l3.33281 0.369926l1.63479 0.661923l1.34577 1.34961l2.89927 5.21431l0.614176 0.583449l1.51738 1.03064l0.614176 0.784221l0.298056 1.04333l0.189672 2.55259l0.105285 0.401254l0.210835 0.803451l0.849008 1.43113l2.0051 2.58953l0.830944 1.69562l1.04771 0.964121l1.16513 0.258802"/>
<path d="M1815.3 -4475.17l0.934466 -0.755692l1.26448 -1.30176l0.2258 -1.7468l-1.11997 -2.88865l-2.56509 -4.44491l-0.31612 -2.03954l0.6774 -3.125l0.966424 -2.28652l0.352248 -1.07893l0.234832 -1.77058l-0.0722561 -6.50459l0.216768 -1.28741l0.343216 -1.18411l0.0180639 -1.14548l-0.72256 -1.22334l-1.07481 -0.556725"/>
<path d="M1814.67 -4508.51l-0.966424 0.401364l-0.76772 1.07451l-0.514824 1.44967l-1.1019 0.905894l-1.17416 0.355855"/>
<path d="M2009.97 -4792.01l-1.03224 -0.314334l-1.37286 -0.85021l-1.34577 -0.944804l-1.5535 -0.722189"/>
<path d="M2004.66 -4794.84l-1.3277 0.107996l-0.731592 1.5455l0.740624 2.64475l-0.731592 1.76709l-1.57157 1.07217l-1.77027 0.552875"/>
</g>
</g>
</g>
</g>
<g inkscape:groupmode="layer" inkscape:label="Coastline" id="Coastline"><title>Coastline</title>
<g id="Page0">
<g id="drawing" transform="translate(-1338.24,4446.89)">
<g stroke-width="1px" stroke="rgb(0,0,0)" fill="none">
<path d="M1398.24 -4475.17l0 -424.242l611.729 0l0 424.242l-611.729 0"/>
</g>
</g>
</g>
</g>
<g id="Clone of page">
<g>
<g id="TextVisitor0" transform="translate(60,-455.219)">
<g text-anchor="middle" font-size="0.42cm" font-family="Arial" fill="rgb(0,0,0)">
<text x="305.865" y="-25.3199" dominant-baseline="no-change">08 June 2018, 00 UTC (t+72, t+84)</text>
<text x="305.865" y="-47.9461" dominant-baseline="no-change">RawENS - ProbExc>=30mm/12h (in %)</text>
</g>
</g>
</g>
</g>
<g id="Clone for legend">
<g>
<g id="legend" transform="translate(698.665,-28.2828)">
<g fill-rule="evenodd" stroke="rgb(255,255,255)">
<path fill="rgb(255,255,255)" d="M0 -0v-424.242h60v424.242h-60"/>
</g>
<g transform="translate(3,-12.1212)">
<g text-anchor="start" font-size="0.36cm" font-family="Arial" fill="rgb(0,0,0)">
<text x="27" y="-9.09091" dominant-baseline="middle">0</text>
</g>
<g fill-rule="evenodd" stroke="rgb(255,255,255)">
<path fill="rgb(255,255,255)" d="M2.7 -9.09091v-18.1818h21.6v18.1818h-21.6"/>
</g>
<g stroke-width="0.5px" stroke="rgb(0,0,0)" fill="none">
<path d="M2.7 -9.09091l0 -18.1818l21.6 0l0 18.1818l-21.6 0"/>
</g>
<g stroke-width="1px" stroke="rgb(0,0,0)" fill="none">
<path d="M2.7 -8.18182l0 -20"/>
<path d="M24.3 -8.18182l0 -20"/>
<path d="M2.7 -9.09091l21.6 0"/>
</g>
<g text-anchor="start" font-size="0.36cm" font-family="Arial" fill="rgb(0,0,0)">
<text x="27" y="-27.2727" dominant-baseline="middle">0.5</text>
</g>
<g fill-rule="evenodd" stroke="rgb(155,232,242)">
<path fill="rgb(155,232,242)" d="M2.7 -27.2727v-18.1818h21.6v18.1818h-21.6"/>
</g>
<g stroke-width="0.5px" stroke="rgb(0,0,0)" fill="none">
<path d="M2.7 -27.2727l0 -18.1818l21.6 0l0 18.1818l-21.6 0"/>
</g>
<g stroke-width="1px" stroke="rgb(0,0,0)" fill="none">
<path d="M2.7 -26.3636l0 -20"/>
<path d="M24.3 -26.3636l0 -20"/>
</g>
<g text-anchor="start" font-size="0.36cm" font-family="Arial" fill="rgb(0,0,0)">
<text x="27" y="-45.4545" dominant-baseline="middle">1.5</text>
</g>
<g fill-rule="evenodd" stroke="rgb(23,226,252)">
<path fill="rgb(23,226,252)" d="M2.7 -45.4545v-18.1818h21.6v18.1818h-21.6"/>
</g>
<g stroke-width="0.5px" stroke="rgb(0,0,0)" fill="none">
<path d="M2.7 -45.4545l0 -18.1818l21.6 0l0 18.1818l-21.6 0"/>
</g>
<g stroke-width="1px" stroke="rgb(0,0,0)" fill="none">
<path d="M2.7 -44.5455l0 -20"/>
<path d="M24.3 -44.5455l0 -20"/>
</g>
<g text-anchor="start" font-size="0.36cm" font-family="Arial" fill="rgb(0,0,0)">
<text x="27" y="-63.6364" dominant-baseline="middle">2.5</text>
</g>
<g fill-rule="evenodd" stroke="rgb(3,178,206)">
<path fill="rgb(3,178,206)" d="M2.7 -63.6364v-18.1818h21.6v18.1818h-21.6"/>
</g>
<g stroke-width="0.5px" stroke="rgb(0,0,0)" fill="none">
<path d="M2.7 -63.6364l0 -18.1818l21.6 0l0 18.1818l-21.6 0"/>
</g>
<g stroke-width="1px" stroke="rgb(0,0,0)" fill="none">
<path d="M2.7 -62.7273l0 -20"/>
<path d="M24.3 -62.7273l0 -20"/>
</g>
<g text-anchor="start" font-size="0.36cm" font-family="Arial" fill="rgb(0,0,0)">
<text x="27" y="-81.8182" dominant-baseline="middle">3.5</text>
</g>
<g fill-rule="evenodd" stroke="rgb(7,140,158)">
<path fill="rgb(7,140,158)" d="M2.7 -81.8182v-18.1818h21.6v18.1818h-21.6"/>
</g>
<g stroke-width="0.5px" stroke="rgb(0,0,0)" fill="none">
<path d="M2.7 -81.8182l0 -18.1818l21.6 0l0 18.1818l-21.6 0"/>
</g>
<g stroke-width="1px" stroke="rgb(0,0,0)" fill="none">
<path d="M2.7 -80.9091l0 -20"/>
<path d="M24.3 -80.9091l0 -20"/>
</g>
<g text-anchor="start" font-size="0.36cm" font-family="Arial" fill="rgb(0,0,0)">
<text x="27" y="-100" dominant-baseline="middle">4.5</text>
</g>
<g fill-rule="evenodd" stroke="rgb(6,168,61)">
<path fill="rgb(6,168,61)" d="M2.7 -100v-18.1818h21.6v18.1818h-21.6"/>
</g>
<g stroke-width="0.5px" stroke="rgb(0,0,0)" fill="none">
<path d="M2.7 -100l0 -18.1818l21.6 0l0 18.1818l-21.6 0"/>
</g>
<g stroke-width="1px" stroke="rgb(0,0,0)" fill="none">
<path d="M2.7 -99.0909l0 -20"/>
<path d="M24.3 -99.0909l0 -20"/>
</g>
<g text-anchor="start" font-size="0.36cm" font-family="Arial" fill="rgb(0,0,0)">
<text x="27" y="-118.182" dominant-baseline="middle">6.5</text>
</g>
<g fill-rule="evenodd" stroke="rgb(3,206,71)">
<path fill="rgb(3,206,71)" d="M2.7 -118.182v-18.1818h21.6v18.1818h-21.6"/>
</g>
<g stroke-width="0.5px" stroke="rgb(0,0,0)" fill="none">
<path d="M2.7 -118.182l0 -18.1818l21.6 0l0 18.1818l-21.6 0"/>
</g>
<g stroke-width="1px" stroke="rgb(0,0,0)" fill="none">
<path d="M2.7 -117.273l0 -20"/>
<path d="M24.3 -117.273l0 -20"/>
</g>
<g text-anchor="start" font-size="0.36cm" font-family="Arial" fill="rgb(0,0,0)">
<text x="27" y="-136.364" dominant-baseline="middle">8.5</text>
</g>
<g fill-rule="evenodd" stroke="rgb(33,252,107)">
<path fill="rgb(33,252,107)" d="M2.7 -136.364v-18.1818h21.6v18.1818h-21.6"/>
</g>
<g stroke-width="0.5px" stroke="rgb(0,0,0)" fill="none">
<path d="M2.7 -136.364l0 -18.1818l21.6 0l0 18.1818l-21.6 0"/>
</g>
<g stroke-width="1px" stroke="rgb(0,0,0)" fill="none">
<path d="M2.7 -135.455l0 -20"/>
<path d="M24.3 -135.455l0 -20"/>
</g>
<g text-anchor="start" font-size="0.36cm" font-family="Arial" fill="rgb(0,0,0)">
<text x="27" y="-154.545" dominant-baseline="middle">10.5</text>
</g>
<g fill-rule="evenodd" stroke="rgb(204,252,33)">
<path fill="rgb(204,252,33)" d="M2.7 -154.545v-18.1818h21.6v18.1818h-21.6"/>
</g>
<g stroke-width="0.5px" stroke="rgb(0,0,0)" fill="none">
<path d="M2.7 -154.545l0 -18.1818l21.6 0l0 18.1818l-21.6 0"/>
</g>
<g stroke-width="1px" stroke="rgb(0,0,0)" fill="none">
<path d="M2.7 -153.636l0 -20"/>
<path d="M24.3 -153.636l0 -20"/>
</g>
<g text-anchor="start" font-size="0.36cm" font-family="Arial" fill="rgb(0,0,0)">
<text x="27" y="-172.727" dominant-baseline="middle">13.5</text>
</g>
<g fill-rule="evenodd" stroke="rgb(165,211,3)">
<path fill="rgb(165,211,3)" d="M2.7 -172.727v-18.1818h21.6v18.1818h-21.6"/>
</g>
<g stroke-width="0.5px" stroke="rgb(0,0,0)" fill="none">
<path d="M2.7 -172.727l0 -18.1818l21.6 0l0 18.1818l-21.6 0"/>
</g>
<g stroke-width="1px" stroke="rgb(0,0,0)" fill="none">
<path d="M2.7 -171.818l0 -20"/>
<path d="M24.3 -171.818l0 -20"/>
</g>
<g text-anchor="start" font-size="0.36cm" font-family="Arial" fill="rgb(0,0,0)">
<text x="27" y="-190.909" dominant-baseline="middle">16.5</text>
</g>
<g fill-rule="evenodd" stroke="rgb(130,163,6)">
<path fill="rgb(130,163,6)" d="M2.7 -190.909v-18.1818h21.6v18.1818h-21.6"/>
</g>
<g stroke-width="0.5px" stroke="rgb(0,0,0)" fill="none">
<path d="M2.7 -190.909l0 -18.1818l21.6 0l0 18.1818l-21.6 0"/>
</g>
<g stroke-width="1px" stroke="rgb(0,0,0)" fill="none">
<path d="M2.7 -190l0 -20"/>
<path d="M24.3 -190l0 -20"/>
</g>
<g text-anchor="start" font-size="0.36cm" font-family="Arial" fill="rgb(0,0,0)">
<text x="27" y="-209.091" dominant-baseline="middle">20.5</text>
</g>
<g fill-rule="evenodd" stroke="rgb(198,89,4)">
<path fill="rgb(198,89,4)" d="M2.7 -209.091v-18.1818h21.6v18.1818h-21.6"/>
</g>
<g stroke-width="0.5px" stroke="rgb(0,0,0)" fill="none">
<path d="M2.7 -209.091l0 -18.1818l21.6 0l0 18.1818l-21.6 0"/>
</g>
<g stroke-width="1px" stroke="rgb(0,0,0)" fill="none">
<path d="M2.7 -208.182l0 -20"/>
<path d="M24.3 -208.182l0 -20"/>
</g>
<g text-anchor="start" font-size="0.36cm" font-family="Arial" fill="rgb(0,0,0)">
<text x="27" y="-227.273" dominant-baseline="middle">25.5</text>
</g>
<g fill-rule="evenodd" stroke="rgb(234,102,1)">
<path fill="rgb(234,102,1)" d="M2.7 -227.273v-18.1818h21.6v18.1818h-21.6"/>
</g>
<g stroke-width="0.5px" stroke="rgb(0,0,0)" fill="none">
<path d="M2.7 -227.273l0 -18.1818l21.6 0l0 18.1818l-21.6 0"/>
</g>
<g stroke-width="1px" stroke="rgb(0,0,0)" fill="none">
<path d="M2.7 -226.364l0 -20"/>
<path d="M24.3 -226.364l0 -20"/>
</g>
<g text-anchor="start" font-size="0.36cm" font-family="Arial" fill="rgb(0,0,0)">
<text x="27" y="-245.455" dominant-baseline="middle">30.5</text>
</g>
<g fill-rule="evenodd" stroke="rgb(252,127,43)">
<path fill="rgb(252,127,43)" d="M2.7 -245.455v-18.1818h21.6v18.1818h-21.6"/>
</g>
<g stroke-width="0.5px" stroke="rgb(0,0,0)" fill="none">
<path d="M2.7 -245.455l0 -18.1818l21.6 0l0 18.1818l-21.6 0"/>
</g>
<g stroke-width="1px" stroke="rgb(0,0,0)" fill="none">
<path d="M2.7 -244.545l0 -20"/>
<path d="M24.3 -244.545l0 -20"/>
</g>
<g text-anchor="start" font-size="0.36cm" font-family="Arial" fill="rgb(0,0,0)">
<text x="27" y="-263.636" dominant-baseline="middle">35.5</text>
</g>
<g fill-rule="evenodd" stroke="rgb(247,165,104)">
<path fill="rgb(247,165,104)" d="M2.7 -263.636v-18.1818h21.6v18.1818h-21.6"/>
</g>
<g stroke-width="0.5px" stroke="rgb(0,0,0)" fill="none">
<path d="M2.7 -263.636l0 -18.1818l21.6 0l0 18.1818l-21.6 0"/>
</g>
<g stroke-width="1px" stroke="rgb(0,0,0)" fill="none">
<path d="M2.7 -262.727l0 -20"/>
<path d="M24.3 -262.727l0 -20"/>
</g>
<g text-anchor="start" font-size="0.36cm" font-family="Arial" fill="rgb(0,0,0)">
<text x="27" y="-281.818" dominant-baseline="middle">40.5</text>
</g>
<g fill-rule="evenodd" stroke="rgb(244,119,137)">
<path fill="rgb(244,119,137)" d="M2.7 -281.818v-18.1818h21.6v18.1818h-21.6"/>
</g>
<g stroke-width="0.5px" stroke="rgb(0,0,0)" fill="none">
<path d="M2.7 -281.818l0 -18.1818l21.6 0l0 18.1818l-21.6 0"/>
</g>
<g stroke-width="1px" stroke="rgb(0,0,0)" fill="none">
<path d="M2.7 -280.909l0 -20"/>
<path d="M24.3 -280.909l0 -20"/>
</g>
<g text-anchor="start" font-size="0.36cm" font-family="Arial" fill="rgb(0,0,0)">
<text x="27" y="-300" dominant-baseline="middle">50.5</text>
</g>
<g fill-rule="evenodd" stroke="rgb(249,0,25)">
<path fill="rgb(249,0,25)" d="M2.7 -300v-18.1818h21.6v18.1818h-21.6"/>
</g>
<g stroke-width="0.5px" stroke="rgb(0,0,0)" fill="none">
<path d="M2.7 -300l0 -18.1818l21.6 0l0 18.1818l-21.6 0"/>
</g>
<g stroke-width="1px" stroke="rgb(0,0,0)" fill="none">
<path d="M2.7 -299.091l0 -20"/>
<path d="M24.3 -299.091l0 -20"/>
</g>
<g text-anchor="start" font-size="0.36cm" font-family="Arial" fill="rgb(0,0,0)">
<text x="27" y="-318.182" dominant-baseline="middle">60.5</text>
</g>
<g fill-rule="evenodd" stroke="rgb(224,114,244)">
<path fill="rgb(224,114,244)" d="M2.7 -318.182v-18.1818h21.6v18.1818h-21.6"/>
</g>
<g stroke-width="0.5px" stroke="rgb(0,0,0)" fill="none">
<path d="M2.7 -318.182l0 -18.1818l21.6 0l0 18.1818l-21.6 0"/>
</g>
<g stroke-width="1px" stroke="rgb(0,0,0)" fill="none">
<path d="M2.7 -317.273l0 -20"/>
<path d="M24.3 -317.273l0 -20"/>
</g>
<g text-anchor="start" font-size="0.36cm" font-family="Arial" fill="rgb(0,0,0)">
<text x="27" y="-336.364" dominant-baseline="middle">70.5</text>
</g>
<g fill-rule="evenodd" stroke="rgb(221,66,249)">
<path fill="rgb(221,66,249)" d="M2.7 -336.364v-18.1818h21.6v18.1818h-21.6"/>
</g>
<g stroke-width="0.5px" stroke="rgb(0,0,0)" fill="none">
<path d="M2.7 -336.364l0 -18.1818l21.6 0l0 18.1818l-21.6 0"/>
</g>
<g stroke-width="1px" stroke="rgb(0,0,0)" fill="none">
<path d="M2.7 -335.455l0 -20"/>
<path d="M24.3 -335.455l0 -20"/>
</g>
<g text-anchor="start" font-size="0.36cm" font-family="Arial" fill="rgb(0,0,0)">
<text x="27" y="-354.545" dominant-baseline="middle">80.5</text>
</g>
<g fill-rule="evenodd" stroke="rgb(178,4,201)">
<path fill="rgb(178,4,201)" d="M2.7 -354.545v-18.1818h21.6v18.1818h-21.6"/>
</g>
<g stroke-width="0.5px" stroke="rgb(0,0,0)" fill="none">
<path d="M2.7 -354.545l0 -18.1818l21.6 0l0 18.1818l-21.6 0"/>
</g>
<g stroke-width="1px" stroke="rgb(0,0,0)" fill="none">
<path d="M2.7 -353.636l0 -20"/>
<path d="M24.3 -353.636l0 -20"/>
</g>
<g text-anchor="start" font-size="0.36cm" font-family="Arial" fill="rgb(0,0,0)">
<text x="27" y="-372.727" dominant-baseline="middle">90.5</text>
<text x="27" y="-390.909" dominant-baseline="middle">100</text>
</g>
<g fill-rule="evenodd" stroke="rgb(132,8,150)">
<path fill="rgb(132,8,150)" d="M2.7 -372.727v-18.1818h21.6v18.1818h-21.6"/>
</g>
<g stroke-width="0.5px" stroke="rgb(0,0,0)" fill="none">
<path d="M2.7 -372.727l0 -18.1818l21.6 0l0 18.1818l-21.6 0"/>
</g>
<g stroke-width="1px" stroke="rgb(0,0,0)" fill="none">
<path d="M2.7 -371.818l0 -20"/>
<path d="M24.3 -371.818l0 -20"/>
<path d="M2.7 -390.909l21.6 0"/>
</g>
</g>
</g>
</g>
</g>
<g id="Page0">
</g>
</g><!--ePage-->
</svg>
