<?xml version="1.0" ?>
<svg version="1.1" encoding="iso-8859-1" baseProfile="full"
xmlns:dc="http://purl.org/dc/elements/1.1/"
xmlns:cc="http://creativecommons.org/ns#"
xmlns:rdf="http://www.w3.org/1999/02/22-rdf-syntax-ns#"
xmlns="http://www.w3.org/2000/svg"
xmlns:xlink="http://www.w3.org/1999/xlink"
xmlns:ev="http://www.w3.org/2001/xml-events"
xmlns:sodipodi="http://sodipodi.sourceforge.net/DTD/sodipodi-0.dtd"
xmlns:inkscape="http://www.inkscape.org/namespaces/inkscape"
inkscape:version="0.46"
inkscape:output_extension="org.inkscape.output.svg.inkscape"
viewBox="0 0 801 566" xml:space="preserve">
<title>MAGICS++ PLOT</title>
<metadata id="MAGICSmetadata">
<rdf:RDF><cc:Work rdf:about="">
	<dc:format>image/svg+xml</dc:format>
	<dc:title>MAGICS++ PLOT</dc:title>
	<dc:author>mofp on omicron</dc:author>
	<dc:date>Sat Mar 20 15:55:06 2021</dc:date>
	<dc:language>en-GB</dc:language>
	<dc:creator><cc:Agent><dc:title>Metview 5.10.1</dc:title></cc:Agent></dc:creator>
	<dc:publisher><cc:Agent>
	 <dc:title>Magics 4.5.1 (64 bit)</dc:title>
	</cc:Agent></dc:publisher>
	<dc:coverage>Plot of meteorological data</dc:coverage>
</cc:Work></rdf:RDF>
</metadata>
<g id="page" transform="translate(0,565.657)" vector-effect="non-scaling-stroke">
<g id="Page0">
</g>
<g inkscape:groupmode="layer" inkscape:label="Coastline" id="Coastline"><title>Coastline</title>
<g id="Page0">
<g id="drawing" transform="translate(-1338.24,4446.89)">
</g>
</g>
</g>
<g inkscape:groupmode="layer" inkscape:label="Obs_OMSZ.mv, line 82:7" id="Obs_OMSZ.mv, line 82:7"><title>Obs_OMSZ.mv, line 82:7</title>
<g id="Page0">
<g id="drawing" transform="translate(-1338.24,4446.89)">
<g stroke-width="0.5px" stroke="rgb(196,239,237)" fill="none">
</g>
<g stroke="rgb(196,239,237)" fill="rgb(196,239,237)">
<circle cx="1414" cy="-4733" r="5.25"/>
<circle cx="1441" cy="-4791" r="5.25"/>
<circle cx="1865" cy="-4554" r="5.25"/>
<circle cx="1400" cy="-4515" r="5.25"/>
<circle cx="1402" cy="-4503" r="5.25"/>
<circle cx="1593" cy="-4537" r="5.25"/>
<circle cx="1558" cy="-4673" r="5.25"/>
<circle cx="1600" cy="-4748" r="5.25"/>
<circle cx="1930" cy="-4708" r="5.25"/>
<circle cx="1625" cy="-4895" r="5.25"/>
<circle cx="1727" cy="-4550" r="5.25"/>
<circle cx="1647" cy="-4611" r="5.25"/>
<circle cx="1756" cy="-4569" r="5.25"/>
<circle cx="1545" cy="-4757" r="5.25"/>
<circle cx="1414" cy="-4846" r="5.25"/>
<circle cx="1500" cy="-4623" r="5.25"/>
<circle cx="1483" cy="-4594" r="5.25"/>
<circle cx="1991" cy="-4634" r="5.25"/>
<circle cx="1447" cy="-4820" r="5.25"/>
<circle cx="1430" cy="-4820" r="5.25"/>
<circle cx="1429" cy="-4826" r="5.25"/>
<circle cx="1454" cy="-4882" r="5.25"/>
<circle cx="1408" cy="-4836" r="5.25"/>
<circle cx="1963" cy="-4604" r="5.25"/>
<circle cx="1577" cy="-4654" r="5.25"/>
<circle cx="1676" cy="-4720" r="5.25"/>
<circle cx="1627" cy="-4687" r="5.25"/>
<circle cx="2001" cy="-4521" r="5.25"/>
<circle cx="1418" cy="-4771" r="5.25"/>
<circle cx="1673" cy="-4879" r="5.25"/>
<circle cx="1937" cy="-4618" r="5.25"/>
<circle cx="1882" cy="-4603" r="5.25"/>
<circle cx="1451" cy="-4868" r="5.25"/>
<circle cx="1426" cy="-4654" r="5.25"/>
<circle cx="1767" cy="-4680" r="5.25"/>
<circle cx="2000" cy="-4757" r="5.25"/>
<circle cx="1468" cy="-4648" r="5.25"/>
<circle cx="1435" cy="-4828" r="5.25"/>
<circle cx="1503" cy="-4816" r="5.25"/>
<circle cx="1544" cy="-4857" r="5.25"/>
<circle cx="1470" cy="-4787" r="5.25"/>
<circle cx="1986" cy="-4559" r="5.25"/>
<circle cx="1558" cy="-4875" r="5.25"/>
<circle cx="1453" cy="-4699" r="5.25"/>
<circle cx="1887" cy="-4726" r="5.25"/>
<circle cx="1434" cy="-4809" r="5.25"/>
<circle cx="1800" cy="-4546" r="5.25"/>
<circle cx="1625" cy="-4761" r="5.25"/>
<circle cx="1445" cy="-4774" r="5.25"/>
<circle cx="1418" cy="-4708" r="5.25"/>
<circle cx="1427" cy="-4691" r="5.25"/>
<circle cx="1951" cy="-4573" r="5.25"/>
<circle cx="1892" cy="-4570" r="5.25"/>
<circle cx="1590" cy="-4777" r="5.25"/>
<circle cx="1673" cy="-4508" r="5.25"/>
<circle cx="1584" cy="-4830" r="5.25"/>
<circle cx="1612" cy="-4830" r="5.25"/>
<circle cx="1400" cy="-4730" r="5.25"/>
<circle cx="1916" cy="-4498" r="5.25"/>
<circle cx="1833" cy="-4896" r="5.25"/>
<circle cx="1808" cy="-4510" r="5.25"/>
<circle cx="1857" cy="-4508" r="5.25"/>
<circle cx="1705" cy="-4809" r="5.25"/>
<circle cx="1649" cy="-4816" r="5.25"/>
<circle cx="1850" cy="-4623" r="5.25"/>
<circle cx="1430" cy="-4867" r="5.25"/>
<circle cx="1422" cy="-4799" r="5.25"/>
<circle cx="1418" cy="-4821" r="5.25"/>
<circle cx="1788" cy="-4518" r="5.25"/>
<circle cx="1974" cy="-4663" r="5.25"/>
<circle cx="1470" cy="-4838" r="5.25"/>
<circle cx="1621" cy="-4475" r="5.25"/>
<circle cx="1913" cy="-4669" r="5.25"/>
<circle cx="1662" cy="-4560" r="5.25"/>
<circle cx="1510" cy="-4778" r="5.25"/>
<circle cx="1488" cy="-4764" r="5.25"/>
<circle cx="1455" cy="-4725" r="5.25"/>
<circle cx="1503" cy="-4522" r="5.25"/>
<circle cx="1725" cy="-4654" r="5.25"/>
<circle cx="1450" cy="-4752" r="5.25"/>
<circle cx="1649" cy="-4678" r="5.25"/>
<circle cx="1720" cy="-4767" r="5.25"/>
<circle cx="1520" cy="-4730" r="5.25"/>
<circle cx="1530" cy="-4772" r="5.25"/>
<circle cx="1755" cy="-4608" r="5.25"/>
<circle cx="1684" cy="-4803" r="5.25"/>
<circle cx="1550" cy="-4649" r="5.25"/>
<circle cx="1518" cy="-4640" r="5.25"/>
<circle cx="1584" cy="-4667" r="5.25"/>
<circle cx="1549" cy="-4638" r="5.25"/>
<circle cx="1641" cy="-4554" r="5.25"/>
<circle cx="1848" cy="-4634" r="5.25"/>
<circle cx="1801" cy="-4592" r="5.25"/>
<circle cx="1857" cy="-4643" r="5.25"/>
<circle cx="1882" cy="-4691" r="5.25"/>
<circle cx="1667" cy="-4744" r="5.25"/>
<circle cx="1730" cy="-4684" r="5.25"/>
<circle cx="1802" cy="-4638" r="5.25"/>
<circle cx="1683" cy="-4691" r="5.25"/>
<circle cx="1863" cy="-4678" r="5.25"/>
<circle cx="1778" cy="-4610" r="5.25"/>
<circle cx="1829" cy="-4667" r="5.25"/>
<circle cx="1523" cy="-4679" r="5.25"/>
<circle cx="1849" cy="-4583" r="5.25"/>
<circle cx="1651" cy="-4591" r="5.25"/>
<circle cx="1590" cy="-4511" r="5.25"/>
<circle cx="1827" cy="-4684" r="5.25"/>
<circle cx="1855" cy="-4605" r="5.25"/>
<circle cx="1655" cy="-4711" r="5.25"/>
<circle cx="1964" cy="-4790" r="5.25"/>
<circle cx="1595" cy="-4700" r="5.25"/>
<circle cx="1507" cy="-4618" r="5.25"/>
<circle cx="1467" cy="-4710" r="5.25"/>
<circle cx="1680" cy="-4712" r="5.25"/>
<circle cx="1821" cy="-4656" r="5.25"/>
<circle cx="1517" cy="-4755" r="5.25"/>
<circle cx="1535" cy="-4760" r="5.25"/>
<circle cx="1861" cy="-4621" r="5.25"/>
<circle cx="1870" cy="-4720" r="5.25"/>
<circle cx="1505" cy="-4757" r="5.25"/>
<circle cx="1726" cy="-4784" r="5.25"/>
<circle cx="1498" cy="-4784" r="5.25"/>
<circle cx="1821" cy="-4868" r="5.25"/>
<circle cx="1725" cy="-4610" r="5.25"/>
<circle cx="1503" cy="-4680" r="5.25"/>
<circle cx="1651" cy="-4530" r="5.25"/>
<circle cx="1581" cy="-4516" r="5.25"/>
<circle cx="1789" cy="-4674" r="5.25"/>
<circle cx="1792" cy="-4728" r="5.25"/>
<circle cx="1736" cy="-4629" r="5.25"/>
<circle cx="1706" cy="-4575" r="5.25"/>
<circle cx="1530" cy="-4743" r="5.25"/>
<circle cx="1771" cy="-4645" r="5.25"/>
<circle cx="1670" cy="-4667" r="5.25"/>
<circle cx="1771" cy="-4558" r="5.25"/>
<circle cx="1748" cy="-4648" r="5.25"/>
<circle cx="1530" cy="-4751" r="5.25"/>
<circle cx="1462" cy="-4591" r="5.25"/>
<circle cx="1788" cy="-4563" r="5.25"/>
<circle cx="1950" cy="-4787" r="5.25"/>
<circle cx="1844" cy="-4645" r="5.25"/>
<circle cx="1880" cy="-4648" r="5.25"/>
<circle cx="1826" cy="-4588" r="5.25"/>
<circle cx="1714" cy="-4820" r="5.25"/>
<circle cx="1641" cy="-4533" r="5.25"/>
<circle cx="1691" cy="-4793" r="5.25"/>
<circle cx="1474" cy="-4582" r="5.25"/>
<circle cx="1517" cy="-4567" r="5.25"/>
<circle cx="1732" cy="-4669" r="5.25"/>
<circle cx="1655" cy="-4764" r="5.25"/>
<circle cx="1497" cy="-4643" r="5.25"/>
<circle cx="1488" cy="-4714" r="5.25"/>
<circle cx="1954" cy="-4806" r="5.25"/>
<circle cx="1491" cy="-4746" r="5.25"/>
<circle cx="1673" cy="-4610" r="5.25"/>
<circle cx="1788" cy="-4629" r="5.25"/>
<circle cx="1615" cy="-4697" r="5.25"/>
<circle cx="1806" cy="-4657" r="5.25"/>
<circle cx="1837" cy="-4705" r="5.25"/>
<circle cx="1501" cy="-4740" r="5.25"/>
<circle cx="1763" cy="-4590" r="5.25"/>
<circle cx="1872" cy="-4626" r="5.25"/>
<circle cx="1477" cy="-4695" r="5.25"/>
<circle cx="1870" cy="-4661" r="5.25"/>
<circle cx="1620" cy="-4632" r="5.25"/>
<circle cx="1660" cy="-4638" r="5.25"/>
<circle cx="1685" cy="-4636" r="5.25"/>
<circle cx="1671" cy="-4755" r="5.25"/>
<circle cx="1974" cy="-4782" r="5.25"/>
<circle cx="1851" cy="-4662" r="5.25"/>
<circle cx="1635" cy="-4586" r="5.25"/>
<circle cx="1573" cy="-4542" r="5.25"/>
<circle cx="1787" cy="-4583" r="5.25"/>
<circle cx="1668" cy="-4685" r="5.25"/>
<circle cx="1970" cy="-4807" r="5.25"/>
<circle cx="1606" cy="-4740" r="5.25"/>
<circle cx="1748" cy="-4638" r="5.25"/>
<circle cx="1784" cy="-4716" r="5.25"/>
<circle cx="1742" cy="-4679" r="5.25"/>
<circle cx="1843" cy="-4676" r="5.25"/>
<circle cx="1713" cy="-4741" r="5.25"/>
<circle cx="1734" cy="-4580" r="5.25"/>
<circle cx="1677" cy="-4683" r="5.25"/>
<circle cx="1504" cy="-4721" r="5.25"/>
<circle cx="1695" cy="-4706" r="5.25"/>
<circle cx="1614" cy="-4522" r="5.25"/>
<circle cx="1488" cy="-4764" r="5.25"/>
<circle cx="1407" cy="-4738" r="5.25"/>
<circle cx="1407" cy="-4786" r="5.25"/>
<circle cx="1421" cy="-4717" r="5.25"/>
<circle cx="1472" cy="-4795" r="5.25"/>
<circle cx="1421" cy="-4808" r="5.25"/>
<circle cx="1445" cy="-4775" r="5.25"/>
<circle cx="1405" cy="-4668" r="5.25"/>
<circle cx="1460" cy="-4838" r="5.25"/>
<circle cx="1447" cy="-4820" r="5.25"/>
<circle cx="1426" cy="-4672" r="5.25"/>
<circle cx="1422" cy="-4799" r="5.25"/>
<circle cx="1401" cy="-4770" r="5.25"/>
<circle cx="1477" cy="-4875" r="5.25"/>
<circle cx="1427" cy="-4691" r="5.25"/>
<circle cx="1432" cy="-4890" r="5.25"/>
<circle cx="1408" cy="-4836" r="5.25"/>
<circle cx="1430" cy="-4867" r="5.25"/>
<circle cx="1454" cy="-4724" r="5.25"/>
<circle cx="1432" cy="-4760" r="5.25"/>
<circle cx="1451" cy="-4869" r="5.25"/>
<circle cx="1470" cy="-4787" r="5.25"/>
<circle cx="1398" cy="-4755" r="5.25"/>
<circle cx="1453" cy="-4882" r="5.25"/>
<circle cx="1403" cy="-4873" r="5.25"/>
<circle cx="1442" cy="-4791" r="5.25"/>
<circle cx="1415" cy="-4846" r="5.25"/>
<circle cx="1429" cy="-4826" r="5.25"/>
<circle cx="1430" cy="-4820" r="5.25"/>
<circle cx="1421" cy="-4823" r="5.25"/>
<circle cx="1418" cy="-4821" r="5.25"/>
<circle cx="1433" cy="-4834" r="5.25"/>
<circle cx="1434" cy="-4810" r="5.25"/>
<circle cx="1406" cy="-4693" r="5.25"/>
<circle cx="1442" cy="-4843" r="5.25"/>
<circle cx="1418" cy="-4772" r="5.25"/>
<circle cx="1470" cy="-4838" r="5.25"/>
</g>
<g stroke-width="0.5px" stroke="rgb(191,239,1)" fill="none">
</g>
<g stroke="rgb(191,239,1)" fill="rgb(191,239,1)">
<circle cx="1990" cy="-4722" r="5.25"/>
<circle cx="1781" cy="-4781" r="5.25"/>
<circle cx="1898" cy="-4882" r="5.25"/>
<circle cx="1854" cy="-4882" r="5.25"/>
<circle cx="1976" cy="-4625" r="5.25"/>
<circle cx="1749" cy="-4777" r="5.25"/>
<circle cx="1802" cy="-4748" r="5.25"/>
<circle cx="1724" cy="-4837" r="5.25"/>
<circle cx="1912" cy="-4790" r="5.25"/>
<circle cx="1794" cy="-4857" r="5.25"/>
<circle cx="1867" cy="-4746" r="5.25"/>
<circle cx="1770" cy="-4703" r="5.25"/>
<circle cx="1778" cy="-4699" r="5.25"/>
<circle cx="1775" cy="-4751" r="5.25"/>
<circle cx="1830" cy="-4806" r="5.25"/>
<circle cx="1739" cy="-4764" r="5.25"/>
<circle cx="1868" cy="-4776" r="5.25"/>
<circle cx="1824" cy="-4787" r="5.25"/>
<circle cx="1779" cy="-4736" r="5.25"/>
<circle cx="1841" cy="-4742" r="5.25"/>
<circle cx="1738" cy="-4730" r="5.25"/>
<circle cx="1904" cy="-4834" r="5.25"/>
<circle cx="1944" cy="-4835" r="5.25"/>
<circle cx="1796" cy="-4774" r="5.25"/>
<circle cx="1900" cy="-4801" r="5.25"/>
<circle cx="1908" cy="-4779" r="5.25"/>
<circle cx="1904" cy="-4700" r="5.25"/>
<circle cx="1918" cy="-4829" r="5.25"/>
<circle cx="1777" cy="-4831" r="5.25"/>
<circle cx="1760" cy="-4750" r="5.25"/>
<circle cx="1831" cy="-4756" r="5.25"/>
<circle cx="1896" cy="-4819" r="5.25"/>
<circle cx="1835" cy="-4766" r="5.25"/>
<circle cx="1861" cy="-4797" r="5.25"/>
<circle cx="1849" cy="-4798" r="5.25"/>
<circle cx="1810" cy="-4742" r="5.25"/>
<circle cx="1952" cy="-4815" r="5.25"/>
<circle cx="1871" cy="-4808" r="5.25"/>
<circle cx="1932" cy="-4839" r="5.25"/>
<circle cx="1758" cy="-4697" r="5.25"/>
<circle cx="1398" cy="-4805" r="5.25"/>
</g>
<g stroke-width="0.5px" stroke="rgb(255,186,0)" fill="none">
</g>
<g stroke="rgb(255,186,0)" fill="rgb(255,186,0)">
<circle cx="1811" cy="-4805" r="5.25"/>
<circle cx="1751" cy="-4718" r="5.25"/>
<circle cx="1845" cy="-4836" r="5.25"/>
<circle cx="1766" cy="-4775" r="5.25"/>
</g>
<g stroke-width="0.5px" stroke="rgb(252,28,28)" fill="none">
</g>
<g stroke="rgb(252,28,28)" fill="rgb(252,28,28)">
<circle cx="1885" cy="-4836" r="5.25"/>
</g>
</g>
</g>
</g>
<g inkscape:groupmode="layer" inkscape:label="Obs_OMSZ.mv, line 35:2(FG)" id="Obs_OMSZ.mv, line 35:2(FG)"><title>Obs_OMSZ.mv, line 35:2(FG)</title>
<g id="Page0">
<g id="drawing" transform="translate(-1338.24,4446.89)">
<g stroke-width="2.5px" stroke="rgb(0,0,0)" fill="none">
<path d="M1561.64 -4647.31l2.59817 -1.5051l1.28622 -1.99477l0.46304 -0.564662l1.10615 0.263515l0.591663 -0.0752889l12.1677 -4.25517l3.54998 -2.10974l1.49202 -1.54504l1.67209 -3.76985l1.2605 -2.14974l-0.0771734 -1.47127l-1.44057 -1.77349l-1.92933 -1.54746l-1.56919 -0.943744l-3.83294 -1.39698l-1.87789 -0.339849l-0.823183 0.453128l-0.334418 2.07645l-0.92608 2.07582l-1.20905 1.84884l-1.18333 1.39573l-2.72679 2.14963l-8.66914 4.93781l0 0.866577l1.3634 0.715785l1.28622 1.43135l0.565938 1.69463l-0.797458 1.46834l-1.28622 -0.188231l-2.95831 -2.59812l-0.565938 -0.338957l-1.44057 1.76993l-10.9843 4.44163l-1.13188 0.188141l-0.951805 0.564393l-1.10615 1.42959l-1.69781 2.70788l-1.02898 0.601605l-4.57895 0.676743l-2.49527 1.3157l-4.47606 3.38207l-1.46629 -1.01445l-1.59492 -0.526068l-3.29273 -0.263049l-1.56919 0.450935l-1.64637 1.20235l-1.33767 1.5402l-0.540214 1.69007l-1.69781 0.525714l-3.6786 -1.31436l-3.52425 0.0751131l-1.31195 4.61788l0.92608 1.72621l1.46629 0.187606l3.03549 -1.05066l3.7815 0.0750524l6.81698 1.31328l3.7815 -0.412719l1.38912 -0.675413l3.60142 -2.66477l1.31195 -1.53928l1.44057 -1.16408l24.6955 -10.6736l2.10941 -1.99375"/>
</g>
<g stroke-width="2.5px" stroke="rgb(51,51,51)" fill="none">
<path d="M1971.78 -4762.47l3.34184 -0.483677l3.1883 -1.38069l2.55606 -2.24128l2.15865 -2.85055l1.06578 -0.843967l1.7793 -0.820531l1.88769 -0.195059l0.523856 -0.349775l0.740624 -1.4632l-0.171608 -0.95209l-0.442568 -0.84118l-0.0361281 -1.11388l0.939328 -1.76038l1.39996 -0.983049l3.50442 -1.30647l1.42706 -1.32019l2.19478 -4.09019l1.43609 -1.68531"/>
<path d="M1962.29 -4766.4l6.47594 3.42705l3.01669 0.497113"/>
<path d="M1962.29 -4766.4l-2.6825 0.628422l-1.42706 5.13273l-1.00255 0.960274l-1.1561 0.476729l-1.25545 0.110784"/>
<path d="M1950.72 -4759.7l4.0373 0.611015"/>
<path d="M1950.72 -4759.7l-1.11094 0.107435l-1.5535 0.564006l-1.61673 0.902984l-0.99352 1.02704l-1.91478 2.90574l-0.668368 0.677604l-1.48125 1.08l-0.641272 0.804858l-0.325152 0.965703l-0.298056 2.38014l-0.27096 1.11938l-2.16768 3.10247l-0.261928 0.857451l-0.0632241 0.957806l-0.131841 0.845313l-0.0217034 0.139144l-0.460632 0.977618l-0.69137 0.522282l-0.491821 0.371512l-4.28117 1.08779l-5.42823 4.09523l-2.58315 2.83577l-1.66189 3.16543l0.2258 4.02569l0.76772 4.4739l0.117416 4.30752l-1.75221 3.57807l-3.89279 1.15339l-1.57157 0.966561l-1.58963 1.79611l-3.37797 4.93934l-0.532888 1.50474l-1.00255 4.61202l-0.460632 1.17081l-1.01158 1.90879l-0.36128 1.42625l-0.0270961 1.49243l0.207736 1.16314l0.027096 1.18619l-0.532888 1.58459l-0.731592 1.03294l-1.93285 1.84961l-0.830944 1.22837l-0.388376 1.16508l-0.433536 2.26653l-0.58708 1.13133l-1.77027 1.74804l-4.30826 2.87816l-1.95091 1.85292l-3.4141 4.10844l0.126794 0.418473l0.20739 0.684422l0.749656 0.364281l0.839976 0.165576l0.605144 0.496703l0.785784 1.49651l0.0541919 0.132419l-0.334184 0.125796l-1.66189 6.32653l-0.740624 0.932604l-3.99214 3.28625l-0.388376 0.145431l-0.108384 0.343735l-0.13548 1.50694l0.081288 1.55947l0.298056 1.36424l0.027096 1.38379l-0.731592 1.63112l-0.9032 0.789007l-3.1883 0.861531l-1.82446 1.71614l-1.11997 2.07859l-1.86962 5.14759l-0.388376 0.606508l-0.298056 0.682258l-0.198704 0.744803l-0.0812879 0.767788l0.189672 0.35915l0.2258 0.299827l0.261928 0.243805l2.35735 1.61746l-0.298056 2.51603l-1.58963 2.37687l-1.75221 0.993959l-2.38445 0.421237l-0.939328 1.49387l-0.17075 0.481287l-0.587938 1.65695l-1.81543 2.40061l-1.88769 1.00603"/>
<path d="M1864.69 -4616.28l3.21539 0.249851"/>
<path d="M1864.69 -4616.28l-1.86962 0.479969l-1.33674 1.61718l-0.49676 2.40207l-0.343216 4.87057l-1.08384 2.32733l-1.50834 1.91314l-1.22835 2.0143l-0.216768 2.61377l2.55606 4.8871l0.550952 2.78453l-2.02317 1.54902l-3.70312 0.16045l-1.70705 0.60902l-1.47222 1.72854l-0.885136 2.74906l-0.36128 5.63215l-0.749656 2.44506l-1.00255 1.92145l-0.839976 0.659966"/>
<path d="M1844.42 -4572.93l2.55606 0.019602"/>
<path d="M1844.42 -4572.93l-0.559984 0.294025l-4.17278 5.08792l-1.57157 0.600637"/>
<path d="M1824.28 -4569.86l-0.713528 -0.346159l-1.57157 -1.34561l-0.81288 -0.418107l-1.75221 -0.0783977"/>
<path d="M1819.43 -4572.05l-1.8335 0.516103l-0.986487 0.534198l-0.774752 0.419511l-3.42313 2.85381l-0.379344 0.705109l0.04516 1.18808l0.81288 2.80619l-0.00903201 1.01125l-0.704496 0.704529"/>
<path d="M1831.85 -4569.1l-3.26055 -1.41724l-1.56254 -0.333127"/>
<path d="M1827.02 -4570.85l-0.596112 0.189427l-1.28254 0.718469l-0.867072 0.0783741"/>
<path d="M1838.11 -4566.95l-1.70705 -1.4821l-0.605144 -0.731374l-0.686432 -0.346124"/>
<path d="M1835.12 -4569.51l-0.749656 0l-0.794816 0.346124l-1.72511 0.0653044"/>
<path d="M1810.53 -4561.73l0.81288 0.287027l0.830944 0.130463"/>
<path d="M1810.53 -4561.73l-0.659336 0.241364l-0.433536 0.939284l-0.0841111 1.52938l-0.0152408 0.277084l-0.469664 1.24534l-1.33674 1.48629l-1.70705 0.873371l-4.93147 1.04269"/>
<path d="M1800.89 -4554.1l-0.650304 -0.0195489l-1.05674 -0.404024l-0.867072 -0.593045l-2.54702 -2.34661l-3.45926 -1.45399l-3.56764 -0.815151"/>
<path d="M1769.02 -4551.4l3.53151 -4.50248l14.0628 -0.391091l2.13155 -3.43603"/>
<path d="M1934.19 -4847.18l0.081288 -9.48955l0.966424 -2.1462l0.307088 -2.07191l-1.02062 -5.34632l0.18064 -2.67476l1.30964 -2.15014l5.70822 -4.63369l0.54192 -0.963337l0.912232 -2.10821l0.659336 -0.929601l1.07481 -0.738305l2.33026 -0.745224l1.05674 -0.690603l1.39996 -1.8602l1.06578 -2.46967l0.559984 -2.81284l-0.108384 -2.84142l0.27096 -1.77394l0.668368 -0.870018l0.821912 -0.650875l0.758688 -1.09635l0.605144 -1.52149l0.198704 -0.89798l-0.0313958 -0.744635"/>
<path d="M1398.24 -4895.91l2.82563 2.0626l4.63342 2.01369"/>
<path d="M1458.63 -4890.4l-1.39093 -0.246488l-1.14706 -0.807998l-0.63224 -1.56834l-0.325152 -1.90442l-0.686432 -1.59657l-1.67092 -0.678488l-1.61673 -0.191908l-5.2205 -1.52175l-0.762317 -0.490985"/>
<path d="M1441.35 -4899.41l-0.0905757 0.0385042l-0.9032 0.041136"/>
<path d="M1439.81 -4899.41l0.542059 0.0796403"/>
<path d="M1437.4 -4899.41l-1.08281 0.724069l-4.43471 7.61872l-0.957392 0.896956l-1.37286 0.403933"/>
<path d="M1413.77 -4892.32l12.2203 1.81467"/>
<path d="M1405.7 -4891.84l8.07461 -0.486243"/>
<path d="M1427.91 -4890.87l1.1561 0.944853l0.487728 0.157462"/>
<path d="M1427.91 -4890.87l-1.81543 0.273884l-0.099352 0.0890099"/>
<path d="M1468.05 -4887.38l-1.6077 -0.602269l-3.1612 -2.10152l-1.33674 -0.458727"/>
<path d="M1458.63 -4890.4l3.32378 -0.136937"/>
<path d="M1480.83 -4873.48l-3.01669 -3.51807l-1.21029 -8.75884l-2.06833 -2.91533l-1.43609 -0.109521"/>
<path d="M1468.05 -4887.38l1.67995 -0.205313l3.3599 -1.19779"/>
<path d="M1498.59 -4794.82l-5.48242 4.60851l0.921264 1.07239l-0.036128 0.809241l-0.424504 0.815886l-0.243864 1.11915l-0.171608 0.21909l-0.81288 0.556119l-0.234832 0.370721l0.09032 0.566152l0.433536 0.26284l0.460632 0.148264l0.18064 0.259455l-0.36128 2.32117l-0.505792 1.70752l-0.867072 1.31655l-1.43609 1.13789l-3.02572 0.676581l-1.09287 0.575545l0.027096 1.42014l0.550952 0.585469l1.8335 0.851195l0.686432 0.518066l0.839976 2.43169l0.569016 0.823818l-1.30964 1.46245l0.117416 2.23845l0.58708 2.6341l0.162576 4.24465l0.433536 1.30913l0.740624 0.990069l0.99352 0.624172l-1.79737 0.83885l-6.36756 0.85552l-6.92754 1.7409"/>
<path d="M1467.93 -4751.85l-4.92244 -0.778053l-0.939328 -0.57689l-0.975456 -1.01639l-0.668368 -1.342l-0.325152 -1.36911l-0.469664 -1.16799l-1.1019 -0.775415l-6.9998 -2.73648l-3.66699 -0.463465"/>
<path d="M1447.86 -4762.08l-3.20636 1.45746l-0.523856 1.25571l0.153544 1.71196l-0.478696 1.11758l-0.740624 0.718104l-3.48635 1.8486l-1.03868 0.939204l-0.578048 0.358876"/>
<path d="M1472.53 -4756.72l1.27351 3.40202l3.31474 0.610439"/>
<path d="M1472.53 -4756.72l-1.1561 0.983206l-1.71608 2.74081l-0.966424 0.955837l-0.76772 0.184444"/>
<path d="M1436.61 -4753.8l0.505792 0.64067l0.433536 0.405838l0.40644 0.0838477"/>
<path d="M1436.61 -4753.8l-0.641272 0.650732l-1.3277 2.15971l-0.76772 0.972317l1.5806 0.915192l4.89534 1.98752"/>
<path d="M1448.53 -4745.3l-5.75338 -2.35898"/>
<path d="M1442.77 -4747.66l-2.42058 0.542907"/>
<path d="M1440.35 -4715.2l9.39328 -4.30406l3.28305 -2.57298l1.21488 -0.952371l-0.352248 -5.20792l0.99352 -1.0795l2.54702 -1.07633l0.930296 -1.65159l0.0993519 -1.99314l-0.6774 -1.62237l-1.21029 -1.2346l-1.48125 -0.836575l0.487728 -2.51034l-0.740624 -2.61844l-1.52641 -2.05662l-1.90575 -0.877771"/>
<path d="M1451.41 -4745.8l-2.88121 0.495854"/>
<path d="M1440.35 -4715.2l-1.04771 -1.70795l-1.16513 -0.814097"/>
<path d="M1438.14 -4717.72l-1.09287 0.300293l-0.885136 1.6347l0.216768 4.9484l-0.189672 0.379984l-0.433536 0.226647l-0.379344 0.346622l-0.0541919 0.763173l0.243864 0.493185l0.397408 0.213258l0.388376 0.149943l0.234832 0.256561l2.65541 5.58531l0.352248 2.11703l-0.578048 1.72376l-1.23738 1.13784l-2.71863 1.47359l0 0.0133041l0.289024 2.24469l-1.34577 2.81895l0.307088 2.12342l0.523856 0.451847"/>
<path d="M1437.31 -4682.67l-1.17416 -0.776818l0.0270959 -0.710501l0.713528 -2.19173l-0.0270961 -1.12935l-0.58708 -0.830522l-0.731592 -0.0697685"/>
<path d="M1435.53 -4688.38l-0.695464 0.0598015"/>
<path d="M1434.56 -4663.39l0.424504 -0.105927l0.379344 -0.350896l0 -0.0132417l1.45415 -0.271461l2.27606 -0.0264846l1.65286 -0.400591l-0.388376 -1.38735l-1.25545 -1.1591l-1.24642 -0.417325l-2.50186 -0.308042l1.09287 -0.987152l3.91086 -1.59366l0.984488 -0.632927l0.352248 -0.702584l-0.307088 -0.666196l-1.02965 -0.523722l-1.76124 -0.590064l-0.650304 -1.69423l0.569016 -1.87376l1.84253 -1.14772l1.99607 -2.64448l0.415472 -1.50353l-1.06578 -1.5603l-1.43609 -0.139449"/>
<path d="M1440.26 -4684.09l-2.95346 1.42091"/>
<path d="M1423.45 -4665.46l3.26055 0.658898"/>
<path d="M1423.45 -4665.46l-1.19222 0.162247l-0.830944 1.41701l-0.379344 1.94295l-0.704496 0.585757l-0.867072 0.191932l-0.885136 0.761057l-0.2258 0.780822l0.072256 0.711265l-0.0451601 0.777344l-0.58708 0.932697l-0.605144 0.469608l-1.82446 0.780404l-2.22187 1.63327l-1.01158 1.05117l-3.17023 4.34181l-1.11997 1.08007l-1.39996 0.657206"/>
<path d="M1434.56 -4663.39l-0.4516 -0.125789l-0.469664 -0.350897l-1.50834 -1.13888l-1.85156 -0.228462"/>
<path d="M1426.72 -4664.8l3.55861 -0.43374"/>
<path d="M1729.49 -4554.04l-1.52641 -0.312787l-5.3391 -3.4255l-1.90456 -1.22235l-1.81543 -0.593428l-1.87866 -0.0978228"/>
<path d="M1717.02 -4559.7l-5.07598 0.997727"/>
<path d="M1711.95 -4558.7l-1.86059 -0.0586859"/>
<path d="M1710.09 -4558.76l-1.61673 0.286904l-2.15865 0.977992l-2.0322 1.36244l-1.26448 1.43386l0.153544 1.0361l0.650304 1.15322l0.2258 1.04229l-2.30316 1.25054l-0.614176 0.846595l-0.442568 0.944157l-0.623208 0.872417l-1.47222 1.20428l-0.749656 0.312427l-0.966424 0.1497l-1.09287 0.514161l-0.713528 1.09328l-0.650304 1.26226l-0.894168 0.98883l-1.46318 0.507371l-3.23346 0.0195134l-1.58963 0.357739l-0.756029 0.569669l-0.996179 0.750552l-0.650304 1.55403l-0.40644 1.53418l-0.99352 1.28039l-2.42961 0.467902"/>
<path d="M1750.86 -4555.8l-3.65796 -2.073l-5.59081 -0.521607"/>
<path d="M1741.61 -4558.39l-3.51345 0.775877l-1.33679 0.554846l-7.2707 3.01698"/>
<path d="M1759.86 -4554.98l-0.668368 -0.364969l-0.894168 -1.24495l-0.469664 -0.378091l-1.42706 -0.345515"/>
<path d="M1756.4 -4557.31l-0.85804 0.104308l-2.20381 1.1147l-2.4838 0.293312"/>
<path d="M1769.02 -4551.4l-4.75083 -4.0723l-1.57157 -0.645272"/>
<path d="M1759.86 -4554.98l0.641272 -0.078206l2.19478 -1.06239"/>
<path d="M1681 -4534.98l-7.65913 -0.799351l-1.94188 -1.13745l0 -0.0195007l-1.29158 -2.47703l-1.96898 -0.741331"/>
<path d="M1668.14 -4540.16l-2.01414 0.858376l-1.37286 2.37949l-0.099352 3.73013l-1.54447 0.428772"/>
<path d="M1663.11 -4532.76l-2.21284 -0.318328"/>
<path d="M1660.9 -4533.08l-2.07736 1.48108l-0.27096 0.454653l-0.0903199 0.461118l0.0993519 0.467582l0.668368 1.07142l0.198704 0.532404l-0.108384 0.402522l-0.49676 0.246696"/>
<path d="M1658.82 -4527.96l-1.67092 -0.766083l-5.36501 -0.409045"/>
<path d="M1443.27 -4601.19l0.505792 0.403476l3.77538 2.36134l1.16513 1.17709"/>
<path d="M1464.23 -4586l-1.06578 -2.24904l-2.66444 -1.65369l-1.64382 -2.14875l-1.40899 -2.41815l-1.58963 -1.9666l-1.88769 -1.30482l-2.32122 -0.455761l-0.785784 -0.504979l-0.686432 -0.118052"/>
<path d="M1450.17 -4598.82l-0.54192 0.432849l-0.379344 1.13118l-0.532888 0"/>
<path d="M1465.47 -4587.8l0.623208 0.409242l2.35735 0.530342l0.388376 0.170225l0.388376 0.29461l0.370312 0.386247l0.379344 0.490961l0.578048 0.517108"/>
<path d="M1464.23 -4586l0.596112 0l0.650304 -1.80376"/>
<path d="M1514.22 -4534.27l-0.921264 -0.220927l-0.872422 -0.770845l-0.157225 -0.138929l-1.28254 -0.454931l0 -0.857951l0.596112 -0.149502l1.08384 -0.500531l0.650304 -0.130014l-0.785784 -1.09872l-1.42706 -0.195056l-1.36383 -0.513675l-0.605144 -2.10061l-0.207736 -1.26848l-1.09287 -4.03464l-0.478696 -1.18481l-3.49538 -4.57838l-0.984488 -0.579839l-7.09012 -0.247586l-1.30964 -0.638553l-4.21794 -3.18713l-1.02062 -1.10182l-0.433536 -1.36285l-0.72256 -0.945676l-4.65148 -3.79704l-0.830944 -1.12255l-2.14962 -4.0479l-3.26958 -3.8477l-0.63224 -0.548912l-0.596112 -0.745022l-0.866938 -2.51718l-0.65947 -1.9154l0.289024 -1.98185l-0.839976 -2.06094l-0.528742 -0.71202l-0.780898 -1.05172l-1.11997 -1.11606l-0.460632 -0.00654644"/>
<path d="M1470.56 -4585l0.234832 -0.422193l0.189672 -0.579329"/>
<path d="M1515.81 -4532.22l-0.279992 -0.370272l0.13548 -1.11743l-0.505792 -2.15091"/>
<path d="M1515.16 -4535.86l-0.939328 1.58563"/>
<path d="M1521.13 -4530.7l-0.569016 -2.04604l-0.921264 -0.396288"/>
<path d="M1515.81 -4532.22l1.74318 -0.129918l2.08639 -0.799049"/>
<path d="M1560.61 -4509.13l-0.00903201 -0.517969l-1.72511 -2.97907l-2.53799 -1.85284l-10.6487 -3.2858l-1.97801 -0.129649l-0.713528 -0.473239l-0.162065 -0.839783l-0.126959 -0.657938l-0.0993519 -1.43967l-0.4516 -1.86813l-0.099352 -1.0186l-0.641272 -1.19396l-4.13666 -4.38177l-3.21539 -1.45471l-3.70312 -0.772937l-7.4514 -0.350773"/>
<path d="M1522.92 -4532.35l-0.740624 0.467693l-0.243864 0.415701l-0.334184 0.389697l-0.469664 0.370192"/>
<path d="M1651.78 -4529.14l-1.29158 0.0973938l-0.867072 1.00632l-0.975456 0.545302l-1.75221 0.519295l-1.49028 1.03198l-0.514551 0.0181241l-0.406713 0.0143258"/>
<path d="M1644.49 -4525.91l-1.129 -1.02549"/>
<path d="M1640.79 -4523.06l0.912232 -0.512517l0.388376 -0.875906l0.388376 -1.14858l0.876104 -1.33051"/>
<path d="M1640.79 -4523.06l-1.06578 -0.142722l-3.45022 -1.81672l-4.32633 -1.49915"/>
<path d="M1631.95 -4526.52l-1.63479 0.35048l-1.97801 1.96625l-0.325152 0.635832l-0.261928 1.51149l-0.234832 0.771836l-0.126448 0.0324282l-1.29158 1.47208l-1.91478 3.73394l-1.04771 1.28308l-3.77538 3.23905l-2.27606 0.854859"/>
<path d="M1580.05 -4509.13l-9.18554 -2.55785"/>
<path d="M1570.87 -4511.69l-7.47849 0l-0.81288 0.453358l-0.415472 0.984332l-0.49676 0.900025l-1.04771 0.220132"/>
<path d="M1617.08 -4510.67l-1.95994 -0.926102"/>
<path d="M1615.12 -4511.6l-1.42706 0.964956l-3.03475 3.76788l-1.66189 1.30728l-0.641272 0.174717l-0.596112 0.0582379"/>
<path d="M1600.78 -4506.07l-1.49931 -0.569519l-1.50834 -1.63763l-1.98704 -0.0258943l-2.6825 -2.02006l-1.62576 -0.518058"/>
<path d="M1591.48 -4510.84l-7.18947 0l-0.76772 0.246082l-1.50834 1.10079l-0.94836 0.362574l-1.01158 0"/>
<path d="M1607.76 -4505.32l-0.596112 -0.0582379l-0.578048 -0.161774l-0.027096 -0.0129421l-1.45415 -1.87686l-1.39996 -0.0258913"/>
<path d="M1600.78 -4506.07l1.50834 -0.588935l1.41802 -0.802585"/>
<path d="M1429.52 -4606.94l1.01158 0.814166l1.11094 0.151004"/>
<path d="M1429.52 -4606.94l-0.54192 0.95204"/>
<path d="M1428.31 -4606.94l0.620929 0.896587l0.0384068 0.0554535"/>
<path d="M1428.31 -4606.94l-0.338442 0.400488l-0.898942 1.06363l-1.68898 0.567837l-1.33674 0.830336l-2.74573 1.0829l-0.263595 0.297843l-2.2744 2.56937l-0.0627098 1.07212l-0.0456742 0.780765l0.334184 1.73438l1.03868 3.49366l0.0632239 1.02548l-0.162576 2.04067l0.234832 1.05777l0.532888 0.64506l1.49028 0.988757l0.40644 0.602352l0.10571 1.10077l0.0297702 0.309969l-0.40644 0.386185"/>
<path d="M1437.48 -4603.31l-0.758688 -0.0853167l-0.731592 -0.531613l-1.47222 -1.56882l-0.776752 -0.498948l-0.99352 -0.0787846"/>
<path d="M1432.75 -4606.07l-1.11094 0.0919152"/>
<path d="M1443.27 -4601.19l-2.11349 -1.70601l-0.85804 -0.492197l-0.921264 -0.157511"/>
<path d="M1439.38 -4603.55l-1.89672 0.242827"/>
<path d="M1416.47 -4584.12l-1.47222 -0.340327l-1.24642 -0.736342l-2.09542 -2.00652l-0.849008 -0.415779"/>
<path d="M1410.81 -4587.62l-1.07481 0.20953l-0.731592 0.782406l-0.668368 0.962337l-0.830944 0.703665l-1.02062 0.186541"/>
<path d="M1403.3 -4585.45l2.68192 0.563207l0.497339 0.104437"/>
<path d="M1398.24 -4574.63l1.67857 -0.852099l1.72511 -1.21588l0.959034 -1.04935l0.215126 -0.235406l0.63224 -1.73627l0.00903201 -1.64511l-0.198704 -1.81564l0.0451599 -2.26449"/>
<path d="M1422.33 -4584.89l-1.99607 -0.0327267"/>
<path d="M1416.47 -4584.12l0.740624 -0.0327231l3.11604 -0.769036"/>
<path d="M1428.25 -4628.22l-0.81288 -0.964999l-0.749656 -1.46917l-0.99352 -1.28166l-1.20126 -3.66838l-0.198704 -0.474759l0.116464 -0.473124l0.235784 -0.957944l0.778593 -1.34063l0.332343 -0.572327l0.605144 -1.43836l0.49676 -1.55747l0.198704 -1.14193l-0.388376 -0.643655l-1.28254 -0.0726213l-0.76772 -0.409334l-0.392003 -0.487912l-1.32408 -1.64829l-0.894168 -0.515164"/>
<path d="M1410.07 -4646.3l3.85477 -0.33473l8.08554 -0.702164"/>
<path d="M1406.46 -4647.19l3.16443 0.775156l0.448374 0.109826"/>
<path d="M1429.46 -4628.43l0.0270959 2.14366l0.681466 0.292894l0.072822 0.0312981l0.456 0.195981l1.62576 0.0987624l1.30964 0.878924l0.478696 2.40577l-0.689917 0.6696l-0.520371 0.505004l-1.66189 0.799406l-0.803848 1.25649l0.33283 0.846759l0.362634 0.922467l1.58963 1.28224l3.11604 1.86047l3.22442 5.04637l2.94443 2.52837l1.26448 5.47386"/>
<path d="M1429.46 -4628.43l-1.21029 0.210773"/>
<path d="M1406.46 -4647.19l-3.5917 2.13587l-1.8275 1.0865l-0.313084 0.0776986l-2.48545 0.616775"/>
<path d="M1398.24 -4627.77l0.287641 0.184304l0.984488 1.97221l0.189256 2.93272l0.000415714 0.00644086"/>
<path d="M1399.7 -4622.67l-0.0117345 -0.0147988l-1.45007 -1.82902"/>
<path d="M1655.32 -4480.02l-0.849008 -0.825331l-1.74318 -2.83136l-0.740624 -0.606409l0.298056 -1.07102l0.108384 -2.34262l0.36128 -2.34986l1.05674 -1.05899l0.957392 -0.710385l2.40251 -3.33978l0.487728 -1.07915l-0.505792 -1.79033l-1.27351 -1.12485l-1.49028 -0.859917l-1.20126 -0.957025l-0.731592 -1.61042l-0.36128 -3.79793l-0.40644 -1.8965l-2.53799 -3.14039l-0.623208 -1.07518l-1.33674 -1.37984l-0.325152 -0.771017l0.153544 -0.537818l0.31612 -0.531379l0.18064 -0.732333l0.252896 -3.42289l2.78186 -0.265863l1.1019 -0.239934l0.63224 -0.823619l-0.261928 -0.972904l-0.921264 -1.02494l-1.79737 -1.42738l0.794816 -0.927955l0.686432 -0.661973l1.49931 -0.980095l-0.49676 -1.94762"/>
<path d="M1668.22 -4475.17l1.47753 -1.45165l-0.975456 -1.79822l-1.11997 -0.638187l-1.26448 -0.27721l-1.47222 -0.68985l-0.876104 -0.760848l-0.388376 -0.554569l-0.27096 -0.644902l-0.54192 -0.993266l-0.794816 -0.599897"/>
<path d="M1661.99 -4483.58l-0.776752 0.238675l-0.749656 0.535376l-1.52641 0.806213l-0.876104 1.05761l-1.129 0.889817l-1.61673 0.0257903"/>
<path d="M1480.83 -4873.48l0.81288 6.17776l-0.462262 1.65854l-0.188042 0.674555l-1.43609 1.52085l-1.44512 1.16938l-0.650304 1.24416l-0.460632 1.75507l-2.2851 3.30442l-0.885136 1.77417l-0.36128 1.88263l-0.776752 7.02879l-0.2258 0.829631l-0.216768 0.390979l-0.153544 0.598324l-0.054192 1.4446l0.27096 0.791846l0.6774 0.411179l1.76124 0.186891l0.49676 0.29222l0.921264 0.761071l0.894168 1.00217l0.397408 1.04278l-0.198704 0.584156l-0.343216 0.760686l-0.162576 0.665529l0.379344 0.271626l0.234832 0.278405l0.298056 0.658619l0.279992 0.753598l0.108384 0.597387l0.289024 0.773808l0.668368 0.430986l0.794816 0.366486l0.966424 0.882199l0.54192 0.186604l0.325152 0.454614l0.081288 0.56992l-0.117416 1.50259l0.036128 0.627394l1.36383 4.71206l0.415472 2.37173l0.00903201 2.84158l0.623208 2.04154l2.20381 2.42331l1.20126 0.737651l1.39996 0.216543l0.921264 0.592073l1.30996 2.39129l0.415151 0.757665l1.13803 1.22063l-0.894168 1.10547l-0.4516 1.32498l-0.49676 2.43295l0.343216 0.21622l1.04771 0.874943l-0.469664 2.14465l2.0051 1.10077l2.82702 1.00944l2.04123 1.83956"/>
<path d="M1493.66 -4899.41l-0.655253 0.833752l-3.00766 2.61131l-2.14962 3.67192l-4.41665 12.7709l-1.00255 1.84194l-1.3819 1.69113l-0.216768 2.51028"/>
<path d="M1817.74 -4868.86l1.3548 0.716554l2.59218 2.37432l1.26448 0.330836l2.74573 0.293305l4.75986 2.91871l3.11604 0.279529"/>
<path d="M1817.74 -4868.86l-1.41802 0.0238863l-18.4885 4.28793l-5.4192 0.368285l-2.51993 1.01609l-0.099352 0.995482l-0.027096 1.09759l0.171608 2.28663l0.054192 0.463364l0.00903201 0.466739l-0.036128 0.470112l-0.0722559 0.463267l-1.17416 1.7608l-0.198421 0.210699l-2.65569 2.81938l-1.30964 1.73232l-1.01158 2.04485l-3.39603 10.4425l-1.82446 3.79293l-2.18574 3.3531l-2.53799 2.5646l-1.99607 1.04456"/>
<path d="M1882.18 -4859.1l-1.39093 -0.640615l-0.58708 -0.926956l-0.794816 -2.55661l-0.578048 -1.13204l-0.749656 -0.685454l-1.5806 -0.624131l-2.9354 -1.76016l-1.27351 -0.388935"/>
<path d="M1872.29 -4867.81l-4.53406 1.44304l-2.98056 0.0648101l-1.46318 0.300165l-1.70705 1.01296l-0.731592 1.23103l-0.49676 1.40467l-1.02062 1.47935l-1.29158 0.72933"/>
<path d="M1858.07 -4860.15l-0.99352 -0.436225l-1.08384 -0.916847l-1.5806 -0.695388"/>
<path d="M1854.41 -4862.2l-2.89927 0.661302l-6.76497 3.24421"/>
<path d="M1844.74 -4858.29l-2.21284 -0.51447l-1.76124 -1.74472l-2.43864 -1.10773l-2.57412 -0.463595"/>
<path d="M1833.57 -4861.95l2.18574 -0.170443"/>
<path d="M1901.52 -4837.84l-2.7367 -0.937516l-2.31219 -1.71572l-2.06833 -2.41975l-4.89534 -7.54352l-0.713528 -1.40898l-1.13803 -5.44129l-0.758688 -1.49901l-1.49028 -0.337323"/>
<path d="M1882.18 -4859.1l3.22442 -0.0442959"/>
<path d="M1929.38 -4843.37l1.62576 -0.475928l1.52641 -1.21377l1.65286 -2.12548"/>
<path d="M1924.15 -4843.89l5.22953 0.516723"/>
<path d="M1924.15 -4843.89l-1.5806 0.101988l-1.6077 0.557507l-4.56116 0.237946l-1.27351 0.503058l-2.66444 1.52934l-3.76634 0.564067l-4.52503 2.32033l-2.65541 0.23097"/>
<path d="M1771.6 -4827.16l-1.05674 -0.451039l-0.984488 -1.08872l-1.74318 -0.881961"/>
<path d="M1767.82 -4829.58l-0.984488 0.434211l-2.63734 2.44191l-1.46318 0.651026"/>
<path d="M1760.3 -4826.55l0.894168 0.332295l1.53544 0.162751"/>
<path d="M1760.3 -4826.55l-0.749656 0.149196l-1.09287 1.30193l-0.343216 0.922048l-0.478696 2.35878l-0.641272 1.1723l-0.72256 0.572525l-1.65286 0.640222l-3.47627 2.1381l-0.290077 0.178383l-3.32378 1.04283l-2.01414 1.24916l-3.95602 3.70548l-2.0593 0.757764"/>
<path d="M1720.44 -4819.87l-0.876104 -0.457325l-1.89672 -2.35487l-0.99352 -0.847277l-0.876104 -0.257593l-0.930296 -0.0305052"/>
<path d="M1714.87 -4823.82l-8.03848 2.14519l-1.50834 0.877535l-0.957392 1.90714l-0.821912 5.07178l-1.03868 2.07095l-0.0270959 0.0609006l-0.018064 0.0609001l0.018064 0.0811994l0.0270959 0.0879647l0.13548 0.717208l0.04516 0.710366l-0.04516 0.689999l-0.13548 0.6764l-4.67858 3.33366"/>
<path d="M1729.06 -4813.55l-0.830944 -0.108298l-0.821912 -1.24217l0.216768 -1.10698l0.49676 -1.13086l-0.04516 -1.28684l-1.5535 -1.89007l-2.05026 -0.338779"/>
<path d="M1720.44 -4819.87l4.02827 -0.785941"/>
<path d="M1739.5 -4810.36l-1.81543 -0.696869l-3.32378 -3.01835l-2.14962 -0.6871"/>
<path d="M1729.06 -4813.55l3.15217 -1.2083"/>
<path d="M1686.03 -4805.58l11.7958 0.250136"/>
<path d="M1679.86 -4802.02l0.957392 -0.195956l5.2205 -3.35916"/>
<path d="M1669.02 -4803.35l10.8384 1.32788"/>
<path d="M1663.79 -4802.58l5.22953 -0.767026"/>
<path d="M1660.1 -4802.76l1.96826 0.0938447l1.7168 0.081854"/>
<path d="M1660.1 -4802.76l-1.28254 0.601411l-4.21416 0.950077l-8.31322 1.87381l-1.52641 1.24943l-2.33929 4.87393l-0.830944 0.722014l-1.69802 0.290134l-0.794816 0.465537l-1.13803 1.40654l0.117416 0.48227l0.605144 0.522701l0.289024 1.50717l-0.876104 5.38531l-0.216768 2.74492l0.569016 2.44086l2.55606 2.51064l3.3599 2.45926l-0.134293 0.0476398l-2.1508 0.762945l-1.97801 0.524642l-1.51738 1.12986l-2.89024 3.31787l-2.13155 1.32064l-2.54702 0.268802"/>
<path d="M1535.67 -4771.88l-1.06578 -1.09993l-2.95346 -4.44528l-0.81288 -0.538612l-2.19478 -0.464588l-0.9032 -0.37708l-0.85804 -0.79463l-8.96877 -12.0521l-2.75476 -2.28748l-5.69919 -0.863913l-0.904919 -0.253771l-3.62011 -1.0153l-3.15217 -0.681888"/>
<path d="M1498.59 -4794.82l3.1883 -1.93746"/>
<path d="M1557.79 -4761.54l-7.31592 -1.99848l-1.98828 -1.07775l-3.71995 -2.01686l-0.912232 -1.02177l-0.686432 -1.33794l-1.61673 -1.54669l-1.81543 -1.30488l-1.30061 -0.652533"/>
<path d="M1538.43 -4772.49l-0.984488 0.148003l-0.876104 0.430535l-0.9032 0.0336345"/>
<path d="M1631.02 -4764.9l-2.61025 -0.510733l-3.17926 -1.40808l-3.91989 -0.285684"/>
<path d="M1621.31 -4767.11l-17.8924 2.09025l-6.53917 2.66733l-3.24249 0.308992"/>
<path d="M1582.86 -4763.16l10.7752 1.11848"/>
<path d="M1557.79 -4761.54l5.05283 -0.326894l20.02 -1.29535"/>
<path d="M1945.02 -4840.93l0.0180639 -2.09697l1.30061 -3.97823l-3.12507 -1.55794l-2.98056 -0.377633"/>
<path d="M1940.23 -4848.94l-2.86314 1.13624l-0.867072 0.948984l-0.0859003 0.0119803l-0.00454227 0.000633543l-0.153421 0.0213975"/>
<path d="M1936.26 -4846.82l-2.06833 -0.360528"/>
<path d="M1954.99 -4825.18l-0.63224 -0.1729l-0.569016 -0.576366l-4.28117 -6.64195l-0.939328 -2.66813l-0.0812879 -1.81331l0.198704 -1.51486l0 -1.29096l-0.650304 -1.1077l-0.605144 -0.108742"/>
<path d="M1947.43 -4841.08l-2.41154 0.146121"/>
<path d="M1960.52 -4825.1l-1.3819 -0.291556l-1.71608 -0.705211l-0.370312 -0.0542502"/>
<path d="M1957.06 -4826.15l-0.352248 0.0542502l-0.352248 0.169529l-0.686432 0.549244l-0.6774 0.193242"/>
<path d="M1975.72 -4806.77l-0.2258 -0.0270471l-0.469664 -0.534202l-1.49028 -3.10124l-1.23738 -4.15188l-1.14706 -2.70501l-6.49401 -8.57926l-0.352248 -0.176308l-0.36128 -0.0745934"/>
<path d="M1963.94 -4826.12l-0.370312 0.0474687l-1.68898 0.847597l-1.3548 0.122045"/>
<path d="M1999.27 -4787.15l-3.21539 -2.61644l-0.731592 -1.58519l1.49028 -1.85549l0.162576 -2.045l0.578048 -1.20502l0.31612 -1.35379l-0.596112 -2.47197l-0.912232 -1.79714l-1.16513 -1.4901l-2.58315 -2.42338l-3.1341 -1.77499l-0.307088 -0.618822l-1.42706 -0.919884"/>
<path d="M1975.72 -4806.77l1.14706 -0.645779l6.2953 0l1.6077 -0.53087l1.48125 -0.957024l1.49931 -0.412611"/>
<path d="M1769.02 -4551.4l5.49146 6.86864l1.04771 1.88687l1.8335 5.76155l1.33674 2.02776l1.49028 1.11762l3.43216 1.53318l1.64382 1.11719l4.59729 4.27226l1.58963 0.759383l3.33281 0.369926l1.63479 0.661923l1.34577 1.34961l2.89927 5.21431l0.614176 0.583449l1.51738 1.03064l0.614176 0.784221l0.298056 1.04333l0.189672 2.55259l0.105285 0.401254l0.210835 0.803451l0.849008 1.43113l2.0051 2.58953l0.830944 1.69562l1.04771 0.964121l1.16513 0.258802"/>
<path d="M1815.3 -4475.17l0.934466 -0.755692l1.26448 -1.30176l0.2258 -1.7468l-1.11997 -2.88865l-2.56509 -4.44491l-0.31612 -2.03954l0.6774 -3.125l0.966424 -2.28652l0.352248 -1.07893l0.234832 -1.77058l-0.0722561 -6.50459l0.216768 -1.28741l0.343216 -1.18411l0.0180639 -1.14548l-0.72256 -1.22334l-1.07481 -0.556725"/>
<path d="M1814.67 -4508.51l-0.966424 0.401364l-0.76772 1.07451l-0.514824 1.44967l-1.1019 0.905894l-1.17416 0.355855"/>
<path d="M2009.97 -4792.01l-1.03224 -0.314334l-1.37286 -0.85021l-1.34577 -0.944804l-1.5535 -0.722189"/>
<path d="M2004.66 -4794.84l-1.3277 0.107996l-0.731592 1.5455l0.740624 2.64475l-0.731592 1.76709l-1.57157 1.07217l-1.77027 0.552875"/>
</g>
</g>
</g>
</g>
<g inkscape:groupmode="layer" inkscape:label="Coastline" id="Coastline"><title>Coastline</title>
<g id="Page0">
<g id="drawing" transform="translate(-1338.24,4446.89)">
<g stroke-width="1px" stroke="rgb(0,0,0)" fill="none">
<path d="M1398.24 -4475.17l0 -424.242l611.729 0l0 424.242l-611.729 0"/>
</g>
</g>
</g>
</g>
<g id="Clone of page">
<g>
<g id="TextVisitor0" transform="translate(60,-483.502)">
<g text-anchor="middle" font-size="0.6cm" font-family="Arial" fill="rgb(0,0,0)">
<text x="305.865" y="-35.0168" dominant-baseline="no-change">End Period: 20180611 at 12 UTC</text>
<text x="305.865" y="-67.3401" dominant-baseline="no-change">12-h Rainfall Observations (in mm)</text>
</g>
</g>
</g>
</g>
<g id="Clone for legend">
<g>
<g id="legend" transform="translate(60,-455.219)">
<g fill-rule="evenodd" stroke="rgb(255,255,255)">
<path fill="rgb(255,255,255)" d="M0 -0v-28.2828h611.729v28.2828h-611.729"/>
</g>
<g transform="translate(30.5865,-26.8687)">
<g text-anchor="middle" font-size="0.42cm" font-family="Arial" fill="rgb(0,0,0)">
<text x="0" y="4.45455" dominant-baseline="no-change">0</text>
</g>
<g fill-rule="evenodd" stroke="rgb(196,239,237)">
<path fill="rgb(196,239,237)" d="M0 7.63636v15.2727h68.8196v-15.2727h-68.8196"/>
</g>
<g stroke-width="0.5px" stroke="rgb(0,0,0)" fill="none">
<path d="M0 7.63636l0 15.2727l68.8196 0l0 -15.2727l-68.8196 0"/>
</g>
<g stroke-width="1px" stroke="rgb(0,0,0)" fill="none">
<path d="M0 22.9091l68.8196 0"/>
<path d="M0 7.63636l68.8196 0"/>
</g>
<g text-anchor="middle" font-size="0.42cm" font-family="Arial" fill="rgb(0,0,0)">
<text x="68.8196" y="4.45455" dominant-baseline="no-change">1</text>
</g>
<g fill-rule="evenodd" stroke="rgb(191,239,1)">
<path fill="rgb(191,239,1)" d="M68.8196 7.63636v15.2727h68.8196v-15.2727h-68.8196"/>
</g>
<g stroke-width="0.5px" stroke="rgb(0,0,0)" fill="none">
<path d="M68.8196 7.63636l0 15.2727l68.8196 0l0 -15.2727l-68.8196 0"/>
</g>
<g stroke-width="1px" stroke="rgb(0,0,0)" fill="none">
<path d="M68.8196 22.9091l68.8196 0"/>
<path d="M68.8196 7.63636l68.8196 0"/>
</g>
<g text-anchor="middle" font-size="0.42cm" font-family="Arial" fill="rgb(0,0,0)">
<text x="137.639" y="4.45455" dominant-baseline="no-change">20</text>
</g>
<g fill-rule="evenodd" stroke="rgb(255,186,0)">
<path fill="rgb(255,186,0)" d="M137.639 7.63636v15.2727h68.8196v-15.2727h-68.8196"/>
</g>
<g stroke-width="0.5px" stroke="rgb(0,0,0)" fill="none">
<path d="M137.639 7.63636l0 15.2727l68.8196 0l0 -15.2727l-68.8196 0"/>
</g>
<g stroke-width="1px" stroke="rgb(0,0,0)" fill="none">
<path d="M137.639 22.9091l68.8196 0"/>
<path d="M137.639 7.63636l68.8196 0"/>
</g>
<g text-anchor="middle" font-size="0.42cm" font-family="Arial" fill="rgb(0,0,0)">
<text x="206.459" y="4.45455" dominant-baseline="no-change">40</text>
</g>
<g fill-rule="evenodd" stroke="rgb(252,28,28)">
<path fill="rgb(252,28,28)" d="M206.459 7.63636v15.2727h68.8196v-15.2727h-68.8196"/>
</g>
<g stroke-width="0.5px" stroke="rgb(0,0,0)" fill="none">
<path d="M206.459 7.63636l0 15.2727l68.8196 0l0 -15.2727l-68.8196 0"/>
</g>
<g stroke-width="1px" stroke="rgb(0,0,0)" fill="none">
<path d="M206.459 22.9091l68.8196 0"/>
<path d="M206.459 7.63636l68.8196 0"/>
</g>
<g text-anchor="middle" font-size="0.42cm" font-family="Arial" fill="rgb(0,0,0)">
<text x="275.278" y="4.45455" dominant-baseline="no-change">60</text>
</g>
<g fill-rule="evenodd" stroke="rgb(224,71,249)">
<path fill="rgb(224,71,249)" d="M275.278 7.63636v15.2727h68.8196v-15.2727h-68.8196"/>
</g>
<g stroke-width="0.5px" stroke="rgb(0,0,0)" fill="none">
<path d="M275.278 7.63636l0 15.2727l68.8196 0l0 -15.2727l-68.8196 0"/>
</g>
<g stroke-width="1px" stroke="rgb(0,0,0)" fill="none">
<path d="M275.278 22.9091l68.8196 0"/>
<path d="M275.278 7.63636l68.8196 0"/>
</g>
<g text-anchor="middle" font-size="0.42cm" font-family="Arial" fill="rgb(0,0,0)">
<text x="344.098" y="4.45455" dominant-baseline="no-change">100</text>
</g>
<g fill-rule="evenodd" stroke="rgb(94,73,232)">
<path fill="rgb(94,73,232)" d="M344.098 7.63636v15.2727h68.8196v-15.2727h-68.8196"/>
</g>
<g stroke-width="0.5px" stroke="rgb(0,0,0)" fill="none">
<path d="M344.098 7.63636l0 15.2727l68.8196 0l0 -15.2727l-68.8196 0"/>
</g>
<g stroke-width="1px" stroke="rgb(0,0,0)" fill="none">
<path d="M344.098 22.9091l68.8196 0"/>
<path d="M344.098 7.63636l68.8196 0"/>
</g>
<g text-anchor="middle" font-size="0.42cm" font-family="Arial" fill="rgb(0,0,0)">
<text x="412.917" y="4.45455" dominant-baseline="no-change">150</text>
</g>
<g fill-rule="evenodd" stroke="rgb(10,10,109)">
<path fill="rgb(10,10,109)" d="M412.917 7.63636v15.2727h68.8196v-15.2727h-68.8196"/>
</g>
<g stroke-width="0.5px" stroke="rgb(0,0,0)" fill="none">
<path d="M412.917 7.63636l0 15.2727l68.8196 0l0 -15.2727l-68.8196 0"/>
</g>
<g stroke-width="1px" stroke="rgb(0,0,0)" fill="none">
<path d="M412.917 22.9091l68.8196 0"/>
<path d="M412.917 7.63636l68.8196 0"/>
</g>
<g text-anchor="middle" font-size="0.42cm" font-family="Arial" fill="rgb(0,0,0)">
<text x="481.737" y="4.45455" dominant-baseline="no-change">250</text>
<text x="550.556" y="4.45455" dominant-baseline="no-change">500</text>
</g>
<g fill-rule="evenodd" stroke="rgb(114,114,114)">
<path fill="rgb(114,114,114)" d="M481.737 7.63636v15.2727h68.8196v-15.2727h-68.8196"/>
</g>
<g stroke-width="0.5px" stroke="rgb(0,0,0)" fill="none">
<path d="M481.737 7.63636l0 15.2727l68.8196 0l0 -15.2727l-68.8196 0"/>
</g>
<g stroke-width="1px" stroke="rgb(0,0,0)" fill="none">
<path d="M481.737 22.9091l68.8196 0"/>
<path d="M481.737 7.63636l68.8196 0"/>
<path d="M550.556 7.63636l0 15.2727"/>
</g>
</g>
</g>
</g>
</g>
<g id="Page0">
</g>
</g><!--ePage-->
</svg>
