<?xml version="1.0" ?>
<svg version="1.1" encoding="iso-8859-1" baseProfile="full"
xmlns:dc="http://purl.org/dc/elements/1.1/"
xmlns:cc="http://creativecommons.org/ns#"
xmlns:rdf="http://www.w3.org/1999/02/22-rdf-syntax-ns#"
xmlns="http://www.w3.org/2000/svg"
xmlns:xlink="http://www.w3.org/1999/xlink"
xmlns:ev="http://www.w3.org/2001/xml-events"
xmlns:sodipodi="http://sodipodi.sourceforge.net/DTD/sodipodi-0.dtd"
xmlns:inkscape="http://www.inkscape.org/namespaces/inkscape"
inkscape:version="0.46"
inkscape:output_extension="org.inkscape.output.svg.inkscape"
viewBox="0 0 801 566" xml:space="preserve">
<title>MAGICS++ PLOT</title>
<metadata id="MAGICSmetadata">
<rdf:RDF><cc:Work rdf:about="">
	<dc:format>image/svg+xml</dc:format>
	<dc:title>MAGICS++ PLOT</dc:title>
	<dc:author>mofp on omicron</dc:author>
	<dc:date>Fri Mar 19 17:44:56 2021</dc:date>
	<dc:language>en-GB</dc:language>
	<dc:creator><cc:Agent><dc:title>Metview 5.10.1</dc:title></cc:Agent></dc:creator>
	<dc:publisher><cc:Agent>
	 <dc:title>Magics 4.5.1 (64 bit)</dc:title>
	</cc:Agent></dc:publisher>
	<dc:coverage>Plot of meteorological data</dc:coverage>
</cc:Work></rdf:RDF>
</metadata>
<g id="page" transform="translate(0,565.657)" vector-effect="non-scaling-stroke">
<g id="Page0">
</g>
<g inkscape:groupmode="layer" inkscape:label="Coastline" id="Coastline"><title>Coastline</title>
<g id="Page0">
<g id="drawing" transform="translate(10958,988.793)">
</g>
</g>
</g>
<g inkscape:groupmode="layer" inkscape:label="Obs_IMN.mv, line 101:8" id="Obs_IMN.mv, line 101:8"><title>Obs_IMN.mv, line 101:8</title>
<g id="Page0">
<g id="drawing" transform="translate(10958,988.793)">
<g stroke-width="0.5px" stroke="rgb(191,239,1)" fill="none">
</g>
<g stroke="rgb(191,239,1)" fill="rgb(191,239,1)">
<circle cx="-10734" cy="-1406" r="11.25"/>
<circle cx="-10744" cy="-1388" r="11.25"/>
<circle cx="-10646" cy="-1335" r="11.25"/>
<circle cx="-10664" cy="-1327" r="11.25"/>
<circle cx="-10849" cy="-1428" r="11.25"/>
<circle cx="-10638" cy="-1313" r="11.25"/>
<circle cx="-10654" cy="-1315" r="11.25"/>
<circle cx="-10636" cy="-1299" r="11.25"/>
<circle cx="-10645" cy="-1330" r="11.25"/>
<circle cx="-10726" cy="-1333" r="11.25"/>
<circle cx="-10660" cy="-1327" r="11.25"/>
<circle cx="-10828" cy="-1412" r="11.25"/>
<circle cx="-10695" cy="-1366" r="11.25"/>
<circle cx="-10694" cy="-1309" r="11.25"/>
<circle cx="-10603" cy="-1337" r="11.25"/>
<circle cx="-10877" cy="-1307" r="11.25"/>
<circle cx="-10763" cy="-1250" r="11.25"/>
<circle cx="-10849" cy="-1262" r="11.25"/>
<circle cx="-10853" cy="-1356" r="11.25"/>
<circle cx="-10830" cy="-1284" r="11.25"/>
<circle cx="-10822" cy="-1277" r="11.25"/>
<circle cx="-10851" cy="-1409" r="11.25"/>
<circle cx="-10825" cy="-1264" r="11.25"/>
<circle cx="-10632" cy="-1254" r="11.25"/>
<circle cx="-10624" cy="-1269" r="11.25"/>
<circle cx="-10619" cy="-1262" r="11.25"/>
<circle cx="-10593" cy="-1301" r="11.25"/>
<circle cx="-10603" cy="-1262" r="11.25"/>
<circle cx="-10602" cy="-1260" r="11.25"/>
<circle cx="-10627" cy="-1244" r="11.25"/>
<circle cx="-10597" cy="-1258" r="11.25"/>
<circle cx="-10831" cy="-1327" r="11.25"/>
<circle cx="-10605" cy="-1269" r="11.25"/>
<circle cx="-10841" cy="-1349" r="11.25"/>
<circle cx="-10840" cy="-1348" r="11.25"/>
<circle cx="-10815" cy="-1318" r="11.25"/>
<circle cx="-10828" cy="-1351" r="11.25"/>
<circle cx="-10831" cy="-1327" r="11.25"/>
<circle cx="-10823" cy="-1324" r="11.25"/>
<circle cx="-10823" cy="-1335" r="11.25"/>
<circle cx="-10812" cy="-1324" r="11.25"/>
<circle cx="-10792" cy="-1331" r="11.25"/>
<circle cx="-10814" cy="-1317" r="11.25"/>
<circle cx="-10792" cy="-1316" r="11.25"/>
<circle cx="-10781" cy="-1359" r="11.25"/>
<circle cx="-10778" cy="-1335" r="11.25"/>
<circle cx="-10802" cy="-1347" r="11.25"/>
<circle cx="-10796" cy="-1365" r="11.25"/>
<circle cx="-10521" cy="-1268" r="11.25"/>
<circle cx="-10710" cy="-1264" r="11.25"/>
<circle cx="-10650" cy="-1265" r="11.25"/>
<circle cx="-10653" cy="-1265" r="11.25"/>
<circle cx="-10671" cy="-1272" r="11.25"/>
<circle cx="-10640" cy="-1267" r="11.25"/>
<circle cx="-10672" cy="-1272" r="11.25"/>
<circle cx="-10661" cy="-1268" r="11.25"/>
<circle cx="-10665" cy="-1277" r="11.25"/>
<circle cx="-10668" cy="-1270" r="11.25"/>
<circle cx="-10652" cy="-1263" r="11.25"/>
<circle cx="-10640" cy="-1269" r="11.25"/>
<circle cx="-10640" cy="-1269" r="11.25"/>
<circle cx="-10658" cy="-1253" r="11.25"/>
<circle cx="-10663" cy="-1273" r="11.25"/>
<circle cx="-10695" cy="-1282" r="11.25"/>
<circle cx="-10658" cy="-1276" r="11.25"/>
<circle cx="-10638" cy="-1261" r="11.25"/>
<circle cx="-10642" cy="-1267" r="11.25"/>
<circle cx="-10662" cy="-1268" r="11.25"/>
<circle cx="-10665" cy="-1283" r="11.25"/>
<circle cx="-10728" cy="-1228" r="11.25"/>
<circle cx="-10644" cy="-1239" r="11.25"/>
<circle cx="-10646" cy="-1232" r="11.25"/>
<circle cx="-10666" cy="-1199" r="11.25"/>
<circle cx="-10629" cy="-1180" r="11.25"/>
<circle cx="-10500" cy="-1077" r="11.25"/>
<circle cx="-10513" cy="-1097" r="11.25"/>
<circle cx="-10558" cy="-1069" r="11.25"/>
</g>
<g stroke-width="0.5px" stroke="rgb(255,186,0)" fill="none">
</g>
<g stroke="rgb(255,186,0)" fill="rgb(255,186,0)">
<circle cx="-10779" cy="-1385" r="11.25"/>
<circle cx="-10849" cy="-1382" r="11.25"/>
<circle cx="-10804" cy="-1276" r="11.25"/>
<circle cx="-10856" cy="-1279" r="11.25"/>
<circle cx="-10615" cy="-1300" r="11.25"/>
<circle cx="-10834" cy="-1397" r="11.25"/>
<circle cx="-10859" cy="-1338" r="11.25"/>
<circle cx="-10726" cy="-1260" r="11.25"/>
<circle cx="-10678" cy="-1274" r="11.25"/>
<circle cx="-10682" cy="-1274" r="11.25"/>
<circle cx="-10679" cy="-1263" r="11.25"/>
<circle cx="-10667" cy="-1258" r="11.25"/>
<circle cx="-10688" cy="-1278" r="11.25"/>
<circle cx="-10686" cy="-1211" r="11.25"/>
<circle cx="-10671" cy="-1208" r="11.25"/>
<circle cx="-10623" cy="-1197" r="11.25"/>
<circle cx="-10504" cy="-1129" r="11.25"/>
<circle cx="-10560" cy="-1164" r="11.25"/>
<circle cx="-10593" cy="-1191" r="11.25"/>
<circle cx="-10512" cy="-1117" r="11.25"/>
<circle cx="-10511" cy="-1123" r="11.25"/>
<circle cx="-10514" cy="-1121" r="11.25"/>
<circle cx="-10571" cy="-1093" r="11.25"/>
<circle cx="-10525" cy="-1103" r="11.25"/>
<circle cx="-10578" cy="-1133" r="11.25"/>
</g>
<g stroke-width="0.5px" stroke="rgb(196,239,237)" fill="none">
</g>
<g stroke="rgb(196,239,237)" fill="rgb(196,239,237)">
<circle cx="-10709" cy="-1320" r="11.25"/>
<circle cx="-10682" cy="-1329" r="11.25"/>
<circle cx="-10705" cy="-1299" r="11.25"/>
<circle cx="-10759" cy="-1362" r="11.25"/>
<circle cx="-10769" cy="-1365" r="11.25"/>
<circle cx="-10697" cy="-1337" r="11.25"/>
<circle cx="-10782" cy="-1221" r="11.25"/>
<circle cx="-10860" cy="-1299" r="11.25"/>
<circle cx="-10494" cy="-1239" r="11.25"/>
</g>
<g stroke-width="0.5px" stroke="rgb(252,28,28)" fill="none">
</g>
<g stroke="rgb(252,28,28)" fill="rgb(252,28,28)">
<circle cx="-10669" cy="-1291" r="11.25"/>
<circle cx="-10673" cy="-1298" r="11.25"/>
<circle cx="-10613" cy="-1217" r="11.25"/>
<circle cx="-10518" cy="-1148" r="11.25"/>
</g>
</g>
</g>
</g>
<g inkscape:groupmode="layer" inkscape:label="Obs_IMN.mv, line 46:3(FG)" id="Obs_IMN.mv, line 46:3(FG)"><title>Obs_IMN.mv, line 46:3(FG)</title>
<g id="Page0">
<g id="drawing" transform="translate(10958,988.793)">
<g stroke-width="5px" stroke="rgb(0,0,0)" fill="none">
<path d="M-10443.4 -1046.65l-1.54688 -1.99024l-0.783754 -1.71938l0.788911 0l2.88236 0.364722"/>
<path d="M-10628.1 -1106.96l-0.984768 0.378826l-1.59141 -0.302207l-0.758144 -0.681149l1.66687 -0.833399l1.8184 -0.0762437l-0.150949 1.51417"/>
<path d="M-10789.7 -1287l1.20141 0.644207l0.546565 -0.0314244l1.23751 0.298532l0.701254 0.602295l1.03126 0.277576l1.34063 -0.036661l0 0.796058l-1.54173 0.560374l-1.94392 0.471337l-2.15532 0.188533l-2.15017 -0.256615l-2.19657 -0.911257l-1.16016 -1.18362l-1.75313 -3.25774l2.38736 -0.806618l1.06735 -0.0733298l4.04252 0.691389l3.7383 1.14705l0 0.879909l-4.39315 0"/>
<path d="M-10627.8 -1437.92l3.88268 16.9418l2.73798 6.73149l3.80533 5.88448l1.22719 3.22557l3.02674 4.85359l1.06735 1.02422l2.30486 1.43386l0.912661 2.47893l1.00547 2.75184l2.22751 -0.420115l-0.479534 -1.37591l1.84079 -0.267836l2.69158 0.551424l2.07798 1.09232l2.5472 2.97222l3.23814 5.97525l2.2997 6.35753l-0.293908 4.07856l-1.86142 -2.30956l-3.33096 -8.25779l2.14501 10.2997l-0.216564 4.16213l-3.66096 3.14886l1.93876 -0.356858l1.30969 -0.902655l1.23235 -1.1231l1.65517 -1.0549l-0.577503 0.656038l-0.134063 0.787231l0.216564 0.93416l0.495003 1.06009l0.48469 -1.51667l0.536253 -2.96003l0.711566 -1.60607l6.14113 17.0493l7.70348 18.2428l9.08021 15.2676l24.1778 31.7698l1.94392 1.49278l8.07473 9.92955l4.98612 4.94818l3.01642 -1.69645l1.15501 0.738279l3.34127 0.586425l0.690941 0.984338l0.092813 2.40315l0.40219 2.00514l0.92813 1.77994l1.65001 1.71705l5.89878 8.79354l1.8872 1.35027l7.30129 9.9007l5.50691 5.22154l3.23814 -0.994031l0.732192 2.01943l0.696098 5.17893l1.17048 2.37478l1.95423 1.5064l8.5027 2.9708l3.02158 0.313805l2.97002 -0.104601l2.7947 0.230123l2.4647 1.30749l3.17111 4.80077l2.1347 1.30731l0.123751 0.0784372l1.48501 0.915091l12.1946 9.65174l7.48176 7.54319"/>
<path d="M-10441.8 -1053.94l-2.3822 -0.646131l-1.81501 -1.44861l-0.26297 -1.50598l2.29454 -0.854623l0 -0.786891l-1.07251 -0.432535l-0.582659 -0.750431l-0.185626 -1.03186l0.108282 -1.28725l-1.28391 0.96935l-0.201095 1.58427l-0.556878 1.63633l-2.35642 1.06307l0 0.865029l0.531097 0.713898l0.505315 0.880634l0.417658 0.96399l0.268127 0.943129l-2.38736 0.515848l-0.876567 -0.0364739l-1.05704 -0.479374l-3.2433 0.604427l-5.18722 -1.40166l-8.87395 -3.56945l-4.59424 -0.964055l-5.02737 -0.00521115l-4.99643 0.687869l-8.95646 2.78786l-3.84143 2.19891l-2.97002 3.13146l-1.86657 4.48062l-0.340314 5.27203l0.892036 5.37566l2.99064 8.65614l0 0.796792l-1.62938 1.68208l-0.773442 2.11423l-1.1086 1.08833l-2.61939 -1.39036l-1.72735 -1.35915l0.195939 -1.95286l0.959068 -2.15604l0.572347 -1.96343l-0.350627 -1.56768l-8.63161 -14.8719l-3.05252 -3.22498l-15.7473 -11.4897l-4.31065 -4.24742l3.72283 -4.56573l0.685785 -0.36486l0.711566 -1.31352l1.37673 -1.7045l0.876567 -1.96519l-0.80438 -2.05389l-4.14049 -5.18725l-0.696098 -1.45461l-0.0670317 -1.89263l0.902349 -0.662175l1.57782 -0.469264l1.99032 -1.26703l-1.49532 -0.479709l-3.69705 0.198141l-1.80985 -0.67264l-0.943599 -1.05851l-2.52142 -4.99045l0.417659 -0.662303l0.201095 -0.448494l0.247501 -0.719685l0.866255 0l1.22204 2.0808l0.371252 1.0169l0.13922 1.71564l0.556878 0.286804l3.76924 -1.51747l0 -0.954311l-1.73251 -0.735301l-1.83564 -1.36633l-1.56235 -1.63757l-0.92813 -1.51767l-0.866255 0l-0.959068 1.57503l-2.30486 0.0938746l-2.63486 -0.307701l-1.96454 0.391145l-0.92813 -1.72106l-1.48501 -1.80457l-1.75829 -0.917958l-1.79954 0.949252l-4.01674 -2.37316l-1.17563 -1.9247l0.783754 -2.70722l-0.866255 -0.0625967l-0.861099 0.0625967l0.520784 -2.09703l-1.79438 -1.00682l-2.67095 -0.558192l-2.11923 -0.709487l-0.742504 1.50243l-0.670316 -0.109551l-0.835317 -0.610358l-1.28391 0.00521675l-0.603285 0.688608l-0.154688 0.902479l-0.52594 0.782483l-1.71188 0.333855l-4.19205 -0.631197l-1.70673 0.625981l-0.629066 2.55079l0.959068 -0.735489l-0.0154688 -0.057379l0.788911 0l4.44987 6.72332l0.587816 2.03924l2.59876 4.10951l1.01063 1.20984l1.67063 0.860428l4.73346 1.43923l1.90267 0.245082l1.74282 1.0481l1.66032 2.03878l1.6036 1.3713l1.56235 -0.954174l0.0670317 3.15965l-0.252658 1.29821l-0.768285 0.865457l0 0.875868l1.91298 2.62751l0.773442 4.48313l-0.335158 4.65994l-1.39735 3.17935l-2.84627 0.104237l-4.63549 -1.49583l-4.36737 -2.11613l-2.07282 -1.73571l0.778598 0l0.567191 0.453479l0.464065 0.208495l1.7222 0.203282l-2.44408 -1.09982l-0.990005 -0.651561l-1.05188 -0.943476l0 1.8296l-7.30645 -3.20575l-2.59876 -0.375321l-7.7602 0.943509l-2.15017 0.0104254l-1.83048 -0.87053l-1.6861 -1.74111l-3.08861 -4.0298l-11.019 -10.2923l-0.70641 -1.16285l-0.546565 -0.140795l-2.59361 -1.0638l-0.788911 -0.500619l-0.391877 -3.98428l3.8569 -5.9666l0.897192 -1.03276l1.99032 -1.18926l1.36126 -0.526832l0.62391 0.370348l0.40219 0.766767l0.876567 -0.886738l3.08345 -4.73129l0.830161 -0.886842l-1.58813 -2.03458l1.91298 -2.29031l3.48049 -1.87824l3.11439 -0.798276l0 -0.793072l-2.74314 -0.328711l-1.37673 0.125224l-0.943599 0.76177l-1.46438 1.58611l-1.48501 0.699125l-0.495003 -1.2313l0.603285 -2.17572l1.77376 -2.14452l3.14017 -1.53409l1.44376 -1.00188l0.603285 -1.44546l-0.788911 -1.29939l-1.64485 -0.902809l-1.49532 -1.21073l-0.314533 -2.23889l2.44923 1.25776l1.18594 0.370537l1.55204 0.0469691l-0.757973 -0.939393l-0.959068 -0.714995l-1.82532 -0.97596l-0.773442 -0.641953l-0.438284 -0.594988l-0.675472 -0.407102l-1.49016 -0.104386l1.53657 -0.929042l-0.216564 -0.673306l-0.881724 -0.51151l-0.438284 -0.438442l0.572347 -1.40931l0.649691 -1.04918l0.88688 -0.929141l1.26844 -1.06488l-3.35674 -8.84886l-0.618753 -1.12254l-2.07798 -2.29216l-0.866255 0.866752l-2.84627 -3.71253l-2.59361 -4.32905l-3.33096 -3.3946l-5.06862 -0.90875l0.293908 -3.31135l-2.78955 -2.83103l-3.83111 -1.95884l-2.83595 -0.74177l-9.95677 -9.56051l-9.76083 -4.55632l-1.56235 -1.22276l-12.1894 -4.81822l-0.788911 0l-0.819848 0.600999l-0.711566 -0.00522603l-0.592972 -0.548738l-0.474378 -1.00342l-1.73767 0.75257l-1.03641 -0.830964l-1.17563 -1.20728l-2.17595 -0.39198l1.36126 -2.36763l-1.80985 -3.33999l-3.31033 -2.92727l-3.17111 -1.08732l0 0.867768l1.11376 0.219553l0.752817 0.313645l1.67579 1.2232l-3.29486 -0.58023l-5.22847 -3.08946l-3.31549 -0.710972l-3.21236 -0.250934l-16.9435 -4.74711l-3.2433 -0.266648l-1.51595 0.266648l-1.62423 0.517606l-1.6861 0.345067l-1.70157 -0.256186l-1.48501 -1.25481l-0.500159 -1.51628l-0.598128 -1.22352l-1.73767 -0.39216l0.324845 0.517651l0.185626 0.386927l0.268127 0.930702l-2.09345 -1.6941l-4.69737 -3.0485l-0.912661 -1.91392l-0.448596 -1.76757l-1.11376 -0.852436l-1.40766 -0.559583l-1.36126 -0.852463l-0.433127 -1.30226l0.18047 -1.34414l-0.350627 -0.868223l-1.98517 0.083685l0.500159 -1.45928l-0.139219 -1.40179l-0.324846 -1.31814l-0.036094 -1.16125l0.74766 -1.44377l2.18111 -2.18143l0.861099 -2.17631l0.88688 -1.08297l0.892036 -1.40214l0.407346 -1.85215l-0.422815 -1.53829l-0.990005 -1.33428l-1.97485 -1.99364l-5.12534 -7.66148l-1.43345 -1.12527l-2.05736 -0.884532l0.273283 -1.94708l1.78407 -2.9522l-3.11439 -2.57549l-0.572347 -1.25116l0.654847 -1.88466l-3.63518 -1.12037l-11.2304 1.12037l0 -0.958069l1.5572 -0.612547l1.99548 -0.219891l4.39315 0.0314131l0 -0.879575l-4.03737 -0.193718l-3.60424 -0.643989l-3.25877 -1.11522l-3.02158 -1.63362l-3.8208 -3.18889l-0.582659 -0.69122l-0.819848 -0.188517l-1.60876 -1.09446l-1.13438 -1.21494l0.608441 -0.57606l-2.11923 -1.10501l-5.19753 -4.89696l-2.76892 -1.38278l-1.30454 -1.20997l-0.799223 -0.272379l-0.634222 0.288093l-0.546565 0.481896l-0.721879 0.109997l-1.11891 -0.879986l0.74766 -1.36716l0.247501 -0.874795l-0.572347 -0.398117l-0.495003 -0.235729l-1.66032 -1.51917l-2.28423 0.749117l-8.57489 0.130963l-2.26876 -0.586718l-2.02642 -1.42492l-3.17627 -3.33723l0 -0.801605l0.727035 -2.35251l-2.21204 -2.70896l-5.43987 -3.81486l0.773442 2.60441l3.66096 2.68808l0.840473 3.14373l0.335158 5.97243l0.763129 3.50447l1.49532 2.38853l-1.65001 1.06851l0.232033 1.78078l1.49532 1.6812l3.87236 1.3669l1.37673 1.50302l1.67063 3.22057l0.788911 0l1.02094 -0.424159l0.44344 0.345611l0.190782 0.879725l-1.10344 0.0837824l-1.13954 -0.146619l-1.08282 -0.324659l-0.92813 -0.413682l0 0.801177l2.37704 2.11545l2.89783 2.58133l7.68801 3.14137l0.96938 0.549715l0.902349 -0.356005l2.02126 0.83242l4.89331 2.82696l2.25845 0.732885l2.42345 0.0628181l2.27907 -0.989396l1.49532 1.19879l3.19174 2.02059l1.45407 1.25628l0 0.800856l-2.52658 0.612409l0.113438 1.85288l1.53141 2.15635l1.66548 1.60149l-1.03126 0.355879l-0.974537 0.690815l-1.53141 1.58569l1.87173 0.847772l2.21204 0.251188l4.56331 -0.141293l0 0.800656l-1.78407 1.2088l-2.26876 0.9576l-1.95423 1.31863l-0.835317 2.26041l-0.474378 0.523226l-2.98549 1.7109l-0.562034 0.941753l-0.649691 2.36999l-0.520784 0.999227l-3.97549 -1.97755l-2.10892 -0.172648l-0.912661 1.71075l0.562034 1.05153l1.94907 2.48485l-0.309377 0.496953l-4.1044 2.01391l-0.690941 0.172616l-0.464065 0.659074l-3.00095 1.5378l-0.618753 1.01994l-2.76892 8.84371l-1.16016 2.24856l-1.51595 2.00792l-0.933286 0l-3.54236 -7.34712l-10.5601 -14.3684l-0.685785 -1.66363l-0.520784 -0.601644l-1.17563 -0.737679l-3.17627 -1.31844l-0.26297 -1.02025l0.0464065 -1.17201l-0.103126 -0.894722l-3.01642 -3.3436l-4.19721 -2.39144l-13.628 -4.87749l-1.21688 0.261682l-1.81501 1.27175l-0.819848 0.30354l-1.22204 -0.28784l-1.71704 -1.25605l-1.3922 -0.293084l-0.814692 -0.0680375l-0.283595 -0.204113l-0.165001 -0.387295l-0.464065 -0.580949l-0.88688 -0.413473l-0.737348 0.193652l-0.48469 0.408237l-0.092813 0.251221l-7.16207 -2.31338l-3.42893 -0.533875l-0.809536 -0.502477l-0.644535 -0.612402l-1.01063 -0.50249l-1.42313 0.0628116l-0.938443 0.570535l-0.835317 0.0575764l-1.12922 -1.49178l0.907505 -2.39743l-1.34063 -3.24041l-12.9784 -16.0068l-0.773442 -1.41405l-1.02094 -3.46723l-1.56235 -2.42514l-4.93971 -12.1488l-0.448596 -3.64692l-0.541409 -2.2166l-0.742504 -1.61406l1.74798 -1.71894l0.727035 -1.23684l-0.273283 -1.04296l-2.69673 -3.45925l-1.69642 -1.03783l0.938443 -1.2685l2.19657 -1.7508l1.48501 -2.18599l1.03641 -2.13368l2.16564 0.865021l1.17563 -1.36831l0.917817 -1.99751l2.69158 -2.0448l-1.04157 -2.31232l-1.91298 -2.41208l-1.32001 -1.36342l0.794067 -0.550624l0.340314 -0.188787l0.587816 -0.141591l0 -0.881021l-1.7222 0l0 -0.88104l1.44376 -0.272707l0.92813 -0.8968l1.08282 -2.43352l0.866255 0l1.76345 1.4423l2.48533 -1.03321l2.53689 -1.43185l1.93876 0.230777l0.788911 0l-0.170157 -1.69415l0.433127 -0.818252l0.721879 -0.445849l0.670316 -0.566499l1.16016 -2.01428l0.458909 0.110159l1.56751 0.146878l3.81565 -4.00262l-0.288752 -1.07023l-0.670316 -0.818432l-1.6397 -1.14898l-5.19237 5.27769l-0.123751 -0.424917l0.0154688 -0.377708l-0.13922 -0.209839l-0.618753 0.0524599l0 -0.802644l1.46954 -1.61058l0.897193 -0.67678l1.09829 -0.346264l-0.866255 -0.881413l-0.113438 0.115424l-0.170157 0.246587l-0.26297 0.272818l-0.397033 0.246584l0.319689 -1.07029l0.0618753 -0.37251l1.42829 -0.398747l0 -0.802752l-0.866255 0l0 -0.960176l2.11407 -1.69479l0.417658 -4.38162l-0.721879 -8.49702l-1.90267 -2.25709l-4.19205 -1.87401l-4.19721 -0.687684l-1.90267 1.30186l-0.757973 0l-3.49596 -2.90826l-1.01579 -1.10246l0.603285 0.199496l0.752817 -0.346494l0.314533 -0.719247l-0.727035 -0.897765l-0.92813 -0.210006l-2.44923 0.241507l-1.02094 -0.0315009l-3.72799 -1.40707l-2.93392 -1.7274l-3.27939 -1.45444l-4.76956 -0.609095l0 -0.960919l2.86689 -0.724643l5.36253 -2.44708l3.01642 -0.357098l-0.479534 -0.79298l-0.381565 -0.4884l-0.587816 -0.294093l-1.14469 -0.189061l0 -0.871794l6.26488 -0.378134l1.59329 0.378134l0.66516 0.992584l-0.159845 1.15536l-0.309377 0.961019l0.247501 0.409608l0.52594 0.246813l1.62938 1.51235l0.788911 0l0.943599 -0.955714l0 -0.803448l-1.44376 -1.4389l1.38188 -0.929535l2.70189 -0.404381l2.55236 0.126041l0.866255 0.409631l1.13438 1.12909l1.03126 0.225814l0.825005 -0.304587l0.350627 -0.740471l-0.13922 -0.87703l-0.613597 -0.714243l0 -0.961098l1.88204 -0.70377l0.531097 -1.41808l-0.438284 -1.67551l-1.03126 -1.49699l-0.917818 -0.672351l-2.1347 -0.887731l-0.912661 -0.64086l-1.06735 -1.13466l0 -0.304684l0.639379 -0.136583l0.861098 -0.630391l1.93876 -1.80193l1.12407 0.619914l1.31485 1.22404l2.54205 -0.0420264l1.52626 -1.40791l-0.340314 -1.87555l-1.37157 -1.80734l-1.54688 -1.1559l-1.07766 -0.457116l-0.0876566 -0.0420339l-6.3216 -2.64823l-2.45954 -0.383588l-1.78407 -0.97738l-1.00032 -2.29642l-1.1911 -4.65632l-2.31001 -3.4532"/>
<path d="M-10743.6 -1423.58l0 -10.1531l-0.801994 -2.96659l-1.19366 -1.82571"/>
<path d="M-10850.8 -1435.56l4.17783 0.418367l2.14487 0.570492l1.93971 0.836706l3.45044 2.12971l1.52938 1.1789l1.54803 1.55913l1.7905 1.29289l11.1906 4.03047l5.25959 0.418232l4.36434 0.98853l4.6814 1.63482l1.28692 1.10251l2.53654 2.77515l1.06311 0.532196l2.72305 -0.152055l1.41748 0.114042l2.94686 1.40648l2.05161 -0.15205l2.10756 -0.380127l2.03296 0.0380129l22.7915 5.24541l2.10756 0.15203l2.779 0.570108l1.97701 2.43236l2.59249 0.494055l1.24962 -0.266029l3.28258 -1.44419l0.652785 -0.456071l0.72739 -0.30405l4.04727 -0.152026l5.46475 -4.06692l1.10041 -1.21636l0.167859 -2.39482l-1.54803 -4.18181l-0.428973 -2.77545"/>
</g>
<g stroke-width="5px" stroke="rgb(51,51,51)" fill="none">
<path d="M-10668.8 -1374.4l-0.667944 -0.876609l-2.78965 -2.24994l-0.288133 -0.446671l-0.51733 -0.550012l-0.235745 -0.726695l0.563169 -0.996727l0.523878 -0.360028l1.75827 -0.923421l-0.47149 -3.09379l-2.19046 -1.85039l-2.41639 -1.24031l-1.13289 -1.26369l-1.34571 -0.916953l-5.88708 -2.2708l-1.33916 -1.25717l-0.353618 -0.907055l-1.68623 -2.12766l-0.55662 -0.933807l-0.261939 -1.59753l0.0261939 -1.30409l-0.294681 -0.970591l-1.20164 -0.610384"/>
<path d="M-10601.9 -1393.24l0.746526 0.160065"/>
<path d="M-10601.9 -1393.24l-0.92006 0.656931l0.150615 0.65692l-0.0589363 0.623563l0.117873 5.5416l1.16235 4.59072l-0.366714 3.50352l-4.44969 2.30328l-8.32249 1.99669l-0.652192 0.156466l-8.41151 3.20619l-2.5932 3.04597l-0.47149 0.286589"/>
<path d="M-10600.4 -1393.1l0.902322 0.0891693"/>
<path d="M-10601.2 -1393.08l0.802188 -0.0200081"/>
<path d="M-10663.4 -1375.11l-1.10381 -0.161574l-0.90002 -0.131743l-1.97436 -0.0399979"/>
<path d="M-10668.8 -1374.4l1.41774 -1.0366"/>
<path d="M-10634.1 -1365.6l-1.17873 -0.183278l-0.854576 -0.406547l-7.64207 -6.05539l-0.57954 -2.19977l-1.3981 -0.953272"/>
<path d="M-10645.7 -1375.4l-1.70588 0.286651l-1.50287 1.50988"/>
<path d="M-10661.9 -1375.36l2.35418 2.31314l1.45704 0.5566"/>
<path d="M-10663.4 -1375.11l1.52252 -0.256652"/>
<path d="M-10651.1 -1374.12l2.16427 0.519953"/>
<path d="M-10654.2 -1372.09l3.14327 -2.02978"/>
<path d="M-10655.8 -1373.6l1.53562 1.50982"/>
<path d="M-10655.8 -1373.6l-0.870947 0l-1.45704 1.10988"/>
<path d="M-10630.2 -1367.36l3.46414 0.693148"/>
<path d="M-10630.2 -1367.36l-0.848027 0.286592l-1.76481 1.23299l-1.24094 0.24326"/>
<path d="M-10847 -1429.68l3.62785 1.8792l3.57547 3.23748l4.09607 2.31279l12.8252 4.77531l17.1144 6.35947l4.54714 1.69177l18.2023 6.77141l20.4574 7.58423l2.91407 0.326815"/>
<path d="M-10847 -1429.68l-4.22704 1.77239l-3.56892 4.82943l-2.31489 5.06239l-3.06074 5.00434"/>
<path d="M-10721 -1406.87l-2.21011 -0.320247l-4.82295 -3.48287l-2.24613 -0.990874"/>
<path d="M-10730.3 -1411.66l-3.96837 0.950839l-9.37741 6.21823l-13.0773 8.67514l-2.96973 1.07383"/>
<path d="M-10698.7 -1396.26l-1.38828 -0.140069l-1.35226 -0.533601l-1.13616 -0.647001l-1.08377 -0.917159l-2.88133 -3.60215l-0.530426 -0.393589l-0.615557 -0.333553l-0.654847 -0.263509l-0.684315 -0.193463l-6.31928 -2.79866l-2.92389 -0.937379"/>
<path d="M-10721 -1406.87l2.73071 -0.153451"/>
<path d="M-10689.6 -1401.88l-1.07722 0.647074l-6.81696 4.46251l-1.20164 0.506918"/>
<path d="M-10482.3 -1214.71l-1.22129 -0.458185l-5.28789 -4.49246l-7.34084 -2.93878"/>
<path d="M-10496.2 -1222.6l-2.33781 0.265661l-2.35418 2.00236l-1.43739 2.04212l-0.235745 1.19202l1.53562 2.73256l0.877495 3.52585l0.543523 0.740326l0.828382 0.252306l0.582814 0.358537l-0.203003 1.04572l-1.88923 1.08553l-6.75802 0.929481l-2.36727 0.839836l-1.06413 1.7958l-0.327424 2.4662l0.137518 10.6399l0.196454 15.3946l0.269899 21.0223l0.0182335 1.41984"/>
<path d="M-10463.4 -1214.31l0.985545 -0.0597625l-1.36281 -4.81883"/>
<path d="M-10463.4 -1214.31l-1.93507 -1.02925l-1.92853 -0.312101"/>
<path d="M-10467.3 -1215.65l-0.900415 1.38784l-0.530426 4.93012l-0.818559 1.64325l-1.68296 0.262251"/>
<path d="M-10481.3 -1215.18l1.2966 1.47083l1.62075 3.09754l1.34571 1.50055l1.24748 0.59091l2.21666 0.683853l2.35418 0.408315"/>
<path d="M-10482.3 -1214.71l1.01829 -0.471466"/>
<path d="M-10516.4 -1050.93l-0.802188 -0.0463202l-0.707235 -0.565774l-1.22456 -1.80986l-0.671219 -0.721314l-3.54927 -2.09452l-1.16235 -1.24749l0.144066 -1.6049l1.11651 -0.910018l5.76921 -3.25635l5.60877 -5.37145l3.64095 -1.87667l3.58201 -1.1022l3.30698 -1.63515l2.80275 -3.46576l1.18855 -3.77389l0.373263 -4.50256l-0.746526 -8.93351l-1.00519 -3.89444l-1.57491 -3.31184l-2.11843 -2.9941l-3.9782 -4.46832l-1.12634 -1.68608l-0.625379 -1.81202l0.150615 -1.9181l1.02484 -1.1065l3.77192 -2.35886l1.182 -1.37495l0.0196454 -1.74608l-1.00519 -0.622906l-0.60246 -0.583153l1.23439 -1.64678l1.47668 -1.06365l13.0708 -5.37162l3.79157 -2.3132l1.73649 -2.8543l0.100353 -0.164957l-0.504232 -1.20643l-3.26769 -5.53541l-1.71897 -1.14362l-5.76266 -1.9724l-5.81832 -4.31306l-2.84859 -1.27643l-0.743252 -0.43764l-0.563169 -0.789088l-0.356892 -1.01125l-0.455119 -0.97148l-0.88077 -0.656507"/>
<path d="M-10505.2 -1154.45l-1.1689 0.00663137l-3.79157 1.59483"/>
<path d="M-10504.8 -1021.52l0.793204 -2.91763l0.628653 -5.71461l-6.67617 -14.6764l-0.57954 -4.06263l-0.867673 -1.31348l-2.21666 -1.17124l-1.15581 -0.162123"/>
<path d="M-10514.9 -1051.54l-1.52907 0.612094"/>
</g>
</g>
</g>
</g>
<g inkscape:groupmode="layer" inkscape:label="Coastline" id="Coastline"><title>Coastline</title>
<g id="Page0">
<g id="drawing" transform="translate(10958,988.793)">
<g stroke-width="1px" stroke="rgb(0,0,0)" fill="none">
<path d="M-10898 -1017.08l0 -424.242l456.194 0l0 424.242l-456.194 0"/>
</g>
</g>
</g>
</g>
<g id="Clone of page">
<g>
<g id="TextVisitor0" transform="translate(60,-483.502)">
<g text-anchor="middle" font-size="0.6cm" font-family="Arial" fill="rgb(0,0,0)">
<text x="228.097" y="-35.0168" dominant-baseline="no-change">End Period: 20181006 at 0 am</text>
<text x="228.097" y="-67.3401" dominant-baseline="no-change">12-h Rainfall Observations (in mm)</text>
</g>
</g>
</g>
</g>
<g id="Clone for legend">
<g>
<g id="legend" transform="translate(60,-455.219)">
<g fill-rule="evenodd" stroke="rgb(255,255,255)">
<path fill="rgb(255,255,255)" d="M0 -0v-28.2828h456.194v28.2828h-456.194"/>
</g>
<g transform="translate(22.8097,-26.8687)">
<g text-anchor="middle" font-size="0.42cm" font-family="Arial" fill="rgb(0,0,0)">
<text x="0" y="4.45455" dominant-baseline="no-change">0</text>
</g>
<g fill-rule="evenodd" stroke="rgb(196,239,237)">
<path fill="rgb(196,239,237)" d="M0 7.63636v15.2727h51.3219v-15.2727h-51.3219"/>
</g>
<g stroke-width="0.5px" stroke="rgb(0,0,0)" fill="none">
<path d="M0 7.63636l0 15.2727l51.3219 0l0 -15.2727l-51.3219 0"/>
</g>
<g stroke-width="1px" stroke="rgb(0,0,0)" fill="none">
<path d="M0 22.9091l51.3219 0"/>
<path d="M0 7.63636l51.3219 0"/>
</g>
<g text-anchor="middle" font-size="0.42cm" font-family="Arial" fill="rgb(0,0,0)">
<text x="51.3219" y="4.45455" dominant-baseline="no-change">1</text>
</g>
<g fill-rule="evenodd" stroke="rgb(191,239,1)">
<path fill="rgb(191,239,1)" d="M51.3219 7.63636v15.2727h51.3219v-15.2727h-51.3219"/>
</g>
<g stroke-width="0.5px" stroke="rgb(0,0,0)" fill="none">
<path d="M51.3219 7.63636l0 15.2727l51.3219 0l0 -15.2727l-51.3219 0"/>
</g>
<g stroke-width="1px" stroke="rgb(0,0,0)" fill="none">
<path d="M51.3219 22.9091l51.3219 0"/>
<path d="M51.3219 7.63636l51.3219 0"/>
</g>
<g text-anchor="middle" font-size="0.42cm" font-family="Arial" fill="rgb(0,0,0)">
<text x="102.644" y="4.45455" dominant-baseline="no-change">20</text>
</g>
<g fill-rule="evenodd" stroke="rgb(255,186,0)">
<path fill="rgb(255,186,0)" d="M102.644 7.63636v15.2727h51.3219v-15.2727h-51.3219"/>
</g>
<g stroke-width="0.5px" stroke="rgb(0,0,0)" fill="none">
<path d="M102.644 7.63636l0 15.2727l51.3219 0l0 -15.2727l-51.3219 0"/>
</g>
<g stroke-width="1px" stroke="rgb(0,0,0)" fill="none">
<path d="M102.644 22.9091l51.3219 0"/>
<path d="M102.644 7.63636l51.3219 0"/>
</g>
<g text-anchor="middle" font-size="0.42cm" font-family="Arial" fill="rgb(0,0,0)">
<text x="153.966" y="4.45455" dominant-baseline="no-change">40</text>
</g>
<g fill-rule="evenodd" stroke="rgb(252,28,28)">
<path fill="rgb(252,28,28)" d="M153.966 7.63636v15.2727h51.3219v-15.2727h-51.3219"/>
</g>
<g stroke-width="0.5px" stroke="rgb(0,0,0)" fill="none">
<path d="M153.966 7.63636l0 15.2727l51.3219 0l0 -15.2727l-51.3219 0"/>
</g>
<g stroke-width="1px" stroke="rgb(0,0,0)" fill="none">
<path d="M153.966 22.9091l51.3219 0"/>
<path d="M153.966 7.63636l51.3219 0"/>
</g>
<g text-anchor="middle" font-size="0.42cm" font-family="Arial" fill="rgb(0,0,0)">
<text x="205.288" y="4.45455" dominant-baseline="no-change">60</text>
</g>
<g fill-rule="evenodd" stroke="rgb(224,71,249)">
<path fill="rgb(224,71,249)" d="M205.288 7.63636v15.2727h51.3219v-15.2727h-51.3219"/>
</g>
<g stroke-width="0.5px" stroke="rgb(0,0,0)" fill="none">
<path d="M205.288 7.63636l0 15.2727l51.3219 0l0 -15.2727l-51.3219 0"/>
</g>
<g stroke-width="1px" stroke="rgb(0,0,0)" fill="none">
<path d="M205.288 22.9091l51.3219 0"/>
<path d="M205.288 7.63636l51.3219 0"/>
</g>
<g text-anchor="middle" font-size="0.42cm" font-family="Arial" fill="rgb(0,0,0)">
<text x="256.609" y="4.45455" dominant-baseline="no-change">100</text>
</g>
<g fill-rule="evenodd" stroke="rgb(94,73,232)">
<path fill="rgb(94,73,232)" d="M256.609 7.63636v15.2727h51.3219v-15.2727h-51.3219"/>
</g>
<g stroke-width="0.5px" stroke="rgb(0,0,0)" fill="none">
<path d="M256.609 7.63636l0 15.2727l51.3219 0l0 -15.2727l-51.3219 0"/>
</g>
<g stroke-width="1px" stroke="rgb(0,0,0)" fill="none">
<path d="M256.609 22.9091l51.3219 0"/>
<path d="M256.609 7.63636l51.3219 0"/>
</g>
<g text-anchor="middle" font-size="0.42cm" font-family="Arial" fill="rgb(0,0,0)">
<text x="307.931" y="4.45455" dominant-baseline="no-change">150</text>
</g>
<g fill-rule="evenodd" stroke="rgb(10,10,109)">
<path fill="rgb(10,10,109)" d="M307.931 7.63636v15.2727h51.3219v-15.2727h-51.3219"/>
</g>
<g stroke-width="0.5px" stroke="rgb(0,0,0)" fill="none">
<path d="M307.931 7.63636l0 15.2727l51.3219 0l0 -15.2727l-51.3219 0"/>
</g>
<g stroke-width="1px" stroke="rgb(0,0,0)" fill="none">
<path d="M307.931 22.9091l51.3219 0"/>
<path d="M307.931 7.63636l51.3219 0"/>
</g>
<g text-anchor="middle" font-size="0.42cm" font-family="Arial" fill="rgb(0,0,0)">
<text x="359.253" y="4.45455" dominant-baseline="no-change">250</text>
<text x="410.575" y="4.45455" dominant-baseline="no-change">500</text>
</g>
<g fill-rule="evenodd" stroke="rgb(114,114,114)">
<path fill="rgb(114,114,114)" d="M359.253 7.63636v15.2727h51.3219v-15.2727h-51.3219"/>
</g>
<g stroke-width="0.5px" stroke="rgb(0,0,0)" fill="none">
<path d="M359.253 7.63636l0 15.2727l51.3219 0l0 -15.2727l-51.3219 0"/>
</g>
<g stroke-width="1px" stroke="rgb(0,0,0)" fill="none">
<path d="M359.253 22.9091l51.3219 0"/>
<path d="M359.253 7.63636l51.3219 0"/>
<path d="M410.575 7.63636l0 15.2727"/>
</g>
</g>
</g>
</g>
</g>
<g id="Page0">
</g>
</g><!--ePage-->
</svg>
